<svg width="213" height="213" viewBox="0 0 213 213" fill="none" xmlns="http://www.w3.org/2000/svg">
<g clip-path="url(#clip0_2_1493)">
<path d="M-0.852051 114.7C-0.639051 113.955 -0.426051 113.209 -0.106551 112.464C0.958449 110.121 3.72745 108.949 6.07045 109.908C7.02895 110.227 7.45495 111.079 7.34845 112.038C7.24195 112.89 6.60295 113.529 5.75095 113.635C4.79245 113.742 3.94045 113.316 3.62095 112.464C3.40795 111.825 3.62095 111.186 3.62095 110.547C2.76895 110.44 1.38445 111.292 0.745449 112.464C-1.27805 116.404 0.958449 121.41 5.32495 122.475C8.83945 123.327 11.8214 121.836 13.4189 118.321C15.8684 112.783 18.2114 107.245 20.5544 101.707C20.6609 101.388 20.6609 101.068 20.6609 100.749C21.5129 99.897 22.3649 99.045 23.3234 98.193C23.4299 98.406 23.5364 98.619 23.6429 98.832C25.7729 104.476 27.9029 110.014 29.9264 115.659C30.1394 116.191 30.3524 116.724 30.6719 117.256C31.2044 118.534 32.0564 119.386 33.5474 119.599C33.6539 119.599 33.7604 119.706 33.9734 119.919C30.8849 119.919 28.0094 119.919 25.2404 119.919C25.2404 119.919 25.2404 119.812 25.1339 119.812C25.3469 119.706 25.4534 119.706 25.6664 119.599C27.0509 119.28 27.3704 118.747 26.9444 117.363C26.4119 115.659 25.7729 113.955 25.1339 112.251C25.0274 112.038 24.7079 111.825 24.4949 111.825C22.1519 111.825 19.8089 111.825 17.4659 111.825C17.0399 111.825 16.9334 112.038 16.8269 112.357C16.0814 114.381 15.2294 116.298 14.4839 118.321C13.4189 121.197 11.3954 122.901 8.41345 123.54C8.30695 123.54 8.30695 123.646 8.20045 123.646C7.45495 123.646 6.70945 123.646 5.96395 123.646C5.85745 123.646 5.64445 123.54 5.53795 123.54C3.62095 123.114 2.02345 122.155 0.745449 120.664C-0.106551 119.599 -0.532551 118.215 -0.852051 116.937C-0.852051 116.085 -0.852051 115.446 -0.852051 114.7ZM24.8144 111.186C23.6429 108.097 22.4714 105.222 21.2999 102.24C21.1934 102.24 21.1934 102.24 21.0869 102.24C19.9154 105.222 18.6374 108.097 17.3594 111.186C20.0219 111.186 22.3649 111.186 24.8144 111.186Z" fill="#727272"/>
<path d="M137.811 119.919C138.13 119.813 138.45 119.706 138.876 119.6C140.26 119.174 140.58 118.641 140.686 117.257C140.793 115.766 140.793 114.381 140.793 112.89C140.793 109.482 140.793 106.074 140.793 102.666C140.793 102.134 140.686 101.601 140.686 101.069C140.686 100.11 140.047 99.5776 139.195 99.3646C138.663 99.2581 138.237 99.1516 137.704 99.0451C137.704 98.9386 137.704 98.9386 137.704 98.8321C138.13 98.8321 138.45 98.7256 138.876 98.7256C141.751 98.7256 144.52 98.6191 147.396 98.7256C148.78 98.7256 150.165 98.9386 151.443 99.3646C154.105 100.217 155.596 102.24 155.596 104.903C155.596 107.352 154.105 109.482 151.549 110.441C149.739 111.08 147.822 111.186 145.905 111.293C145.372 111.293 144.84 111.293 144.201 111.293C144.201 112.358 144.201 113.423 144.201 114.488C144.201 115.446 144.201 116.405 144.307 117.363C144.414 118.748 144.946 119.387 146.437 119.706C146.757 119.813 147.076 119.813 147.502 120.026C144.307 120.026 141.219 120.026 138.024 120.026C137.811 120.026 137.811 120.026 137.811 119.919ZM143.988 110.867C145.266 110.76 146.331 110.76 147.502 110.547C149.952 110.121 151.762 108.311 152.188 106.074C152.614 103.625 151.762 101.282 149.739 100.004C148.354 99.1516 146.757 99.0451 145.159 99.1516C144.52 99.1516 144.307 99.4711 144.307 100.11C144.201 103.625 144.094 107.139 143.988 110.867Z" fill="#727272"/>
<path d="M104.796 106.181C104.796 104.583 104.796 102.986 104.796 101.282C104.796 101.069 104.583 100.856 104.37 100.749C103.731 100.43 103.092 100.217 102.453 100.004C102.453 99.897 102.453 99.897 102.453 99.7905C104.05 99.3645 105.648 98.9385 107.352 98.406C107.352 98.7255 107.352 99.045 107.352 99.258C107.352 105.116 107.352 111.08 107.352 116.937C107.352 117.576 107.565 118.002 108.204 118.215C108.63 118.322 109.056 118.535 109.482 118.748C109.482 118.854 109.482 118.854 109.482 118.961C107.991 119.387 106.5 119.813 105.009 120.345C105.009 119.387 105.009 118.428 105.009 117.363C104.796 117.683 104.689 117.683 104.583 117.896C102.133 121.41 97.2344 121.091 95.2109 117.363C93.5069 114.168 93.8264 109.269 97.4474 107.033C99.4709 105.755 101.707 105.648 104.05 106.074C104.263 106.074 104.583 106.181 104.796 106.287C104.689 106.181 104.689 106.181 104.796 106.181ZM104.796 112.677C104.796 111.825 104.689 110.973 104.796 110.121C104.902 109.269 104.476 108.524 103.944 107.885C101.494 105.116 98.7254 106.5 97.6604 108.843C96.9149 110.547 96.7019 112.358 97.0214 114.168C97.2344 115.446 97.6604 116.724 98.5124 117.789C99.5774 118.961 101.281 119.493 102.559 118.961C103.944 118.428 104.796 117.15 104.796 115.446C104.796 114.488 104.796 113.529 104.796 112.677Z" fill="#727272"/>
<path d="M85.6259 120.026C83.7089 120.026 81.7919 120.026 79.9814 120.026C79.9814 119.919 79.9814 119.919 79.9814 119.813C80.1944 119.706 80.4074 119.706 80.5139 119.6C81.3659 119.387 81.5789 119.174 81.5789 118.322C81.5789 115.233 81.5789 112.145 81.5789 109.163C81.5789 108.417 81.3659 107.885 80.6204 107.672C80.4074 107.565 80.1944 107.459 79.7684 107.246C81.2594 106.713 82.5374 106.287 84.0284 105.755C84.0284 106.926 84.0284 107.885 84.0284 108.95C84.5609 108.311 84.9869 107.778 85.5194 107.352C86.2649 106.607 87.2234 105.968 88.2884 105.861C90.4184 105.542 92.0159 106.82 92.4419 109.056C92.5484 109.589 92.5484 110.121 92.5484 110.654C92.5484 113.316 92.5484 115.979 92.5484 118.641C92.5484 119.493 92.6549 119.706 93.6134 119.813C93.8264 119.813 94.1459 119.919 94.3589 119.919C94.3589 120.026 94.3589 120.026 94.3589 120.132C92.3354 120.132 90.4184 120.132 88.3949 120.132C88.3949 120.026 88.3949 120.026 88.3949 119.919C88.6079 119.919 88.8209 119.813 89.1404 119.813C89.9924 119.706 90.2054 119.493 90.2054 118.641C90.2054 116.085 90.2054 113.529 90.2054 110.973C90.2054 110.867 90.2054 110.76 90.2054 110.654C90.0989 109.482 89.7794 108.417 88.5014 107.991C87.3299 107.565 86.1584 107.778 85.1999 108.524C84.5609 109.056 84.2414 109.589 84.2414 110.441C84.3479 113.103 84.2414 115.766 84.2414 118.322C84.2414 119.493 84.2414 119.6 85.4129 119.813C85.5194 119.813 85.6259 119.919 85.7324 119.919C85.6259 119.919 85.6259 119.919 85.6259 120.026Z" fill="#727272"/>
<path d="M167.205 117.257C167.205 118.748 166.14 120.026 164.755 120.239C163.158 120.558 162.412 119.919 161.667 117.896C161.241 118.215 160.708 118.641 160.176 119.067C159.111 119.919 158.046 120.345 156.661 120.132C154.638 119.706 153.786 117.47 155.17 115.872C155.596 115.34 156.235 114.807 156.768 114.488C158.152 113.636 159.537 112.784 161.028 112.038C161.454 111.825 161.667 111.612 161.56 111.08C161.56 110.334 161.56 109.695 161.56 108.95C161.56 108.311 161.241 107.885 160.815 107.672C159.643 107.033 157.833 107.246 157.087 108.311C156.768 108.737 156.768 109.376 156.768 109.802C156.768 110.547 156.342 110.867 155.809 111.08C155.277 111.293 154.744 111.186 154.531 110.654C154.318 110.334 154.318 109.802 154.425 109.376C154.425 109.056 154.744 108.843 155.064 108.63C156.874 107.459 158.791 106.394 160.921 105.861C162.625 105.435 164.116 106.5 164.116 108.204C164.116 110.654 164.116 113.21 164.116 115.659C164.116 115.979 164.116 116.192 164.116 116.511C164.223 117.47 164.542 118.002 165.181 118.109C166.033 118.428 166.566 118.215 167.205 117.257ZM161.667 112.358C161.56 112.251 161.56 112.251 161.454 112.145C160.282 112.997 159.004 113.742 157.833 114.594C157.407 114.914 157.087 115.553 156.981 116.085C156.768 117.044 157.513 118.109 158.472 118.322C159.643 118.641 161.347 117.896 161.667 117.044C161.667 116.937 161.667 116.831 161.667 116.724C161.667 115.34 161.667 113.849 161.667 112.358Z" fill="#727272"/>
<path d="M132.699 117.256C132.699 118.854 131.634 120.026 130.249 120.239C128.758 120.452 128.013 119.812 127.267 117.789C126.735 118.321 126.096 118.96 125.457 119.386C124.392 120.132 123.22 120.451 121.942 120.025C120.345 119.493 119.599 117.47 120.558 116.085C121.09 115.34 121.729 114.807 122.475 114.275C123.859 113.423 125.244 112.571 126.628 111.825C127.054 111.612 127.161 111.399 127.161 110.973C127.161 110.227 127.161 109.588 127.161 108.843C127.161 108.097 126.841 107.778 126.309 107.459C125.137 106.82 123.433 107.139 122.688 108.204C122.368 108.63 122.368 109.269 122.368 109.695C122.368 110.334 122.049 110.653 121.516 110.973C120.984 111.186 120.558 111.08 120.132 110.654C119.706 110.228 119.706 109.695 120.025 109.163C120.238 108.95 120.451 108.63 120.664 108.524C122.368 107.459 124.179 106.394 126.096 105.861C126.628 105.755 127.267 105.755 127.8 105.861C128.971 106.181 129.504 106.82 129.504 107.991C129.504 110.654 129.504 113.21 129.504 115.872C129.504 116.192 129.504 116.618 129.61 116.937C129.717 117.576 130.143 118.109 130.782 118.109C131.421 118.215 132.06 118.002 132.379 117.363C132.592 117.363 132.699 117.256 132.699 117.256ZM127.267 112.038C125.989 112.89 124.818 113.529 123.646 114.381C123.22 114.594 123.007 115.02 122.794 115.446C122.155 116.724 123.007 118.215 124.392 118.321C125.244 118.321 126.096 118.215 126.841 117.576C127.054 117.363 127.267 117.15 127.267 116.937C127.267 115.34 127.267 113.742 127.267 112.038Z" fill="#727272"/>
<path d="M181.369 117.789C180.837 118.215 180.304 118.748 179.665 119.28C178.6 120.026 177.535 120.452 176.151 120.132C174.447 119.706 173.488 117.683 174.553 116.192C174.979 115.553 175.725 114.914 176.364 114.488C177.748 113.636 179.239 112.784 180.624 111.932C181.05 111.719 181.263 111.399 181.263 110.867C181.263 110.334 181.263 109.908 181.263 109.376C181.263 107.885 180.198 106.926 178.707 107.139C178.387 107.139 178.068 107.246 177.748 107.459C176.896 107.885 176.257 108.417 176.47 109.482C176.577 110.228 176.257 110.76 175.618 110.973C175.086 111.186 174.447 111.08 174.234 110.547C174.021 110.121 174.127 109.589 174.234 109.163C174.234 108.95 174.553 108.737 174.873 108.524C176.683 107.352 178.6 106.287 180.624 105.755C181.582 105.542 182.541 105.755 183.18 106.5C183.499 106.82 183.712 107.459 183.819 107.991C183.819 110.547 183.819 112.997 183.819 115.553C183.819 115.872 183.819 116.192 183.819 116.511C183.925 117.257 184.032 117.896 184.884 118.109C185.736 118.322 186.268 118.109 186.801 117.257C187.12 118.109 185.949 119.919 184.458 120.132C182.754 120.558 181.582 119.6 181.369 117.789ZM181.369 112.251C181.263 112.251 181.263 112.145 181.156 112.145C179.878 112.997 178.6 113.849 177.429 114.701C177.109 114.914 176.896 115.34 176.683 115.766C176.257 116.831 176.896 118.109 178.068 118.322C179.026 118.535 180.091 118.322 180.837 117.576C181.156 117.363 181.369 116.937 181.369 116.511C181.369 115.127 181.369 113.742 181.369 112.251Z" fill="#727272"/>
<path d="M80.5139 117.15C80.5139 118.748 79.3424 120.026 77.8514 120.132C76.3604 120.239 75.5084 119.493 74.9759 117.47C74.7629 117.683 74.6564 117.896 74.5499 118.109C73.4849 119.387 72.2069 120.132 70.5029 120.132C69.5444 120.132 68.6924 119.706 68.2664 118.748C67.8404 117.789 67.7339 116.831 68.3729 115.979C68.9054 115.34 69.5444 114.701 70.2899 114.275C71.6744 113.423 73.0589 112.571 74.5499 111.825C74.8694 111.612 75.0824 111.399 75.0824 110.973C75.0824 110.334 75.0824 109.802 75.0824 109.163C75.1889 107.778 74.3369 107.352 73.3784 107.139C72.3134 106.926 71.3549 107.246 70.5029 107.991C69.9704 108.417 70.1834 109.056 70.1834 109.695C70.1834 110.334 69.8639 110.76 69.2249 110.973C68.6924 111.186 68.2664 111.08 67.8404 110.654C67.5209 110.228 67.5209 109.695 67.7339 109.269C67.9469 109.056 68.1599 108.737 68.3729 108.63C70.0769 107.459 71.8874 106.5 73.9109 105.968C74.5499 105.861 75.2954 105.861 75.8279 106.074C76.7864 106.394 77.3189 107.033 77.3189 108.098C77.3189 110.547 77.3189 113.103 77.3189 115.553C77.3189 115.872 77.3189 116.192 77.3189 116.405C77.4254 117.15 77.5319 117.896 78.3839 118.109C79.3424 118.428 79.8749 118.109 80.5139 117.15ZM75.0824 112.038C74.3369 112.464 73.8044 112.784 73.2719 113.103C72.6329 113.529 71.9939 113.849 71.4614 114.275C70.2899 115.233 70.0769 116.298 70.6094 117.363C71.1419 118.215 72.4199 118.535 73.6979 118.109C73.8044 118.002 74.0174 118.002 74.1239 117.896C74.7629 117.576 75.0824 117.044 75.0824 116.298C75.0824 115.233 75.0824 114.275 75.0824 113.21C75.0824 112.89 75.0824 112.571 75.0824 112.038Z" fill="#727272"/>
<path d="M53.676 110.653C50.481 110.653 47.3925 110.653 44.304 110.653C43.5585 112.677 44.6235 115.872 46.434 117.15C48.138 118.428 50.694 118.534 52.398 117.256C52.9305 116.83 53.3565 116.191 53.9955 115.552C53.889 115.978 53.7825 116.298 53.676 116.617C51.8655 120.771 46.5405 121.516 43.5585 118.108C40.7895 114.913 41.0025 109.908 44.091 107.139C46.5405 105.009 51.0135 105.328 52.824 107.884C53.3565 108.736 53.676 109.588 53.676 110.653ZM44.1975 110.121C46.1145 110.121 48.0315 110.121 49.842 110.121C50.481 110.121 50.694 109.588 50.694 108.843C50.5875 106.926 48.564 105.648 46.7535 106.5C45.369 107.245 44.6235 108.63 44.1975 110.121Z" fill="#727272"/>
<path d="M212.148 115.659C212.041 117.469 210.018 119.599 207.994 120.132C205.545 120.664 203.415 120.025 201.711 118.108C199.048 115.126 199.261 110.121 202.243 107.458C204.48 105.328 208.633 105.435 210.657 107.565C211.402 108.417 211.935 109.695 211.828 110.76C208.74 110.76 205.545 110.76 202.35 110.76C202.137 112.89 202.456 114.913 203.841 116.511C205.438 118.428 208.527 118.854 210.55 117.363C211.296 116.937 211.722 116.298 212.148 115.659ZM202.563 110.227C204.373 110.227 206.184 110.227 207.994 110.227C208.846 110.227 209.272 109.695 209.166 108.843C209.059 107.778 208.527 107.032 207.462 106.606C206.397 106.18 205.438 106.393 204.586 107.032C203.521 107.778 202.882 108.949 202.563 110.227Z" fill="#727272"/>
<path d="M67.734 120.025C65.4975 120.025 63.261 120.025 60.918 120.025C60.918 120.025 60.918 119.919 60.8115 119.919C61.0245 119.812 61.131 119.812 61.344 119.706C61.983 119.493 62.3025 119.067 62.0895 118.428C61.4505 117.043 60.8115 115.659 60.1725 114.381C60.066 114.381 59.9595 114.381 59.853 114.381C59.001 115.659 58.149 117.043 57.4035 118.321C57.084 118.96 57.51 119.599 58.2555 119.706C58.4685 119.706 58.788 119.812 59.001 119.812C59.001 119.919 59.001 119.919 59.001 120.025C57.084 120.025 55.167 120.025 53.25 120.025V119.919C53.463 119.919 53.676 119.919 53.7825 119.812C54.4215 119.493 55.2735 119.386 55.6995 118.854C57.084 117.363 58.362 115.659 59.5335 114.061C59.64 113.955 59.64 113.635 59.5335 113.529C58.4685 111.612 57.297 109.801 56.232 107.884C55.6995 106.926 54.8475 106.5 53.7825 106.393C53.5695 106.393 53.3565 106.287 53.25 106.287C53.25 106.18 53.25 106.18 53.25 106.074C55.593 106.074 58.0425 106.074 60.3855 106.074C60.3855 106.18 60.3855 106.18 60.3855 106.287C60.1725 106.393 59.9595 106.393 59.7465 106.5C59.001 106.713 58.788 107.139 59.1075 107.778C59.7465 109.162 60.492 110.44 61.131 111.825C61.2375 111.825 61.344 111.825 61.344 111.825C62.0895 110.44 62.9415 109.162 63.687 107.778C64.0065 107.245 63.5805 106.606 62.9415 106.5C62.622 106.393 62.3025 106.393 62.0895 106.287C62.0895 106.18 62.0895 106.18 62.0895 106.074C64.0065 106.074 65.817 106.074 67.734 106.074V106.18C67.521 106.287 67.4145 106.393 67.2015 106.393C66.456 106.393 65.817 106.713 65.391 107.352C64.113 108.843 62.9415 110.44 61.6635 112.038C61.557 112.144 61.557 112.57 61.6635 112.677C62.7285 114.594 63.7935 116.511 64.965 118.321C65.4975 119.173 66.1365 119.812 67.308 119.812C67.4145 119.812 67.521 119.919 67.6275 119.919C67.734 119.919 67.734 120.025 67.734 120.025Z" fill="#727272"/>
<path d="M199.048 115.979C198.835 117.044 198.196 117.896 197.344 118.641C194.469 121.304 189.996 120.771 187.759 117.47C185.416 113.849 186.375 108.843 189.889 106.713C192.232 105.329 194.575 105.542 196.918 106.82C197.877 107.352 198.516 108.204 198.516 109.482C198.516 110.547 197.451 111.186 196.386 110.867C195.747 110.654 195.534 110.228 195.64 109.589C195.853 108.524 195.747 107.459 194.788 106.82C193.83 106.181 192.658 106.287 191.7 106.82C191.274 107.033 190.954 107.352 190.635 107.778C188.824 109.908 188.611 113.742 190.102 116.192C192.126 119.387 197.131 118.748 198.516 116.511C198.622 116.298 198.835 116.192 198.942 115.979C198.942 115.872 199.048 115.872 199.048 115.979Z" fill="#727272"/>
<path d="M41.7479 120.026C39.5114 120.026 37.2749 120.026 34.9319 120.026V119.919C35.0384 119.813 35.1449 119.706 35.2514 119.706C35.5709 119.706 35.7839 119.706 36.1034 119.6C37.0619 119.387 37.1684 119.28 37.1684 118.322C37.1684 112.997 37.1684 107.672 37.1684 102.347C37.1684 101.601 36.9554 101.069 36.2099 100.749C35.8904 100.643 35.4644 100.323 35.0384 100.11C36.6359 99.5775 38.1269 99.1515 39.6179 98.619C39.6179 99.045 39.6179 99.258 39.6179 99.5775C39.6179 105.861 39.6179 112.251 39.6179 118.535C39.6179 119.6 39.7244 119.706 40.7894 119.813C41.1089 119.813 41.4284 119.919 41.7479 119.919C41.8544 119.919 41.8544 120.026 41.7479 120.026Z" fill="#727272"/>
<path d="M166.885 100.11C168.483 99.5775 169.974 99.1515 171.572 98.619C171.572 99.045 171.572 99.258 171.572 99.5775C171.572 105.968 171.572 112.251 171.572 118.641C171.572 119.6 171.678 119.706 172.637 119.813C172.956 119.813 173.382 119.919 173.702 119.919C173.702 120.026 173.702 120.026 173.702 120.132C171.465 120.132 169.122 120.132 166.885 120.132C166.885 120.026 166.885 120.026 166.885 119.919C167.311 119.813 167.737 119.813 168.163 119.706C169.015 119.6 169.228 119.387 169.228 118.535C169.228 113.103 169.228 107.672 169.228 102.134C169.228 101.601 169.015 101.175 168.483 100.962C167.95 100.749 167.524 100.536 166.885 100.11Z" fill="#727272"/>
<path d="M116.191 120.025C114.061 120.025 111.825 120.025 109.695 120.025V119.919C109.908 119.812 110.121 119.812 110.334 119.706C111.186 119.493 111.399 119.28 111.399 118.428C111.399 115.446 111.399 112.464 111.399 109.375C111.399 108.523 111.186 107.991 110.44 107.778C110.227 107.671 110.015 107.565 109.589 107.245C111.08 106.713 112.358 106.18 113.742 105.648C113.742 107.032 113.742 108.31 113.742 109.695C114.168 108.949 114.488 108.31 114.807 107.778C115.553 106.713 116.404 105.861 117.789 105.754C118.854 105.648 119.706 106.393 119.706 107.245C119.706 107.884 119.493 108.417 118.96 108.63C118.428 108.949 117.789 108.843 117.363 108.417C116.404 107.352 115.339 107.565 114.594 108.843C114.061 109.695 113.742 110.547 113.742 111.505C113.849 113.848 113.742 116.085 113.742 118.428C113.742 119.173 114.061 119.493 114.7 119.599C115.233 119.706 115.765 119.706 116.298 119.812C116.298 119.919 116.298 120.025 116.191 120.025Z" fill="#727272"/>
</g>
<defs>
<clipPath id="clip0_2_1493">
<rect width="213" height="213" fill="white"/>
</clipPath>
</defs>
</svg>
