<svg width="150" height="150" viewBox="0 0 150 150" fill="none" xmlns="http://www.w3.org/2000/svg">
<g clip-path="url(#clip0_2_1404)">
<path d="M133.875 68.175C123.375 67.95 112.875 67.725 102.45 67.5C101.925 67.5 101.1 67.275 100.875 66.9C99.225 64.125 96.75 63.975 94.125 64.65C92.475 65.025 90.9 65.85 89.25 66.375C87.825 66.825 86.4001 67.2 84.9751 67.575C84.9001 67.425 84.75 67.275 84.675 67.125C84.975 66.6 85.2 66.075 85.5 65.55C85.95 64.725 85.725 64.2 84.75 64.125C83.025 63.975 81.375 64.95 80.55 66.525C80.3251 66.9 79.8 67.425 79.425 67.425C73.125 67.875 66.9001 68.25 60.6001 68.55C59.1001 68.625 57.525 68.4 55.95 68.325C55.8 69.225 55.65 70.2 55.575 71.175C55.575 71.475 55.8 71.775 55.95 72.075C56.025 72.225 56.175 72.3 56.25 72.375C55.725 72.75 55.8 73.2 56.325 73.425C56.625 73.575 57.15 73.275 57.9 73.125C57.825 73.8 57.825 74.475 57.75 75.3C58.125 75.675 58.9501 76.125 59.1001 76.8C59.3251 77.55 58.9501 78.45 58.8 79.35C59.1 79.575 59.1 79.575 61.8 78C61.8 78.525 61.95 78.975 61.875 79.35C61.5 82.125 59.3251 84.225 56.475 84.675C55.275 84.9 54.8251 85.425 55.35 86.4C55.9501 87.525 55.575 88.125 54.525 88.65C54.975 90.075 56.1 90.45 57.3 90.6C58.8 90.9 59.1 89.55 59.7 88.35C60.3 91.125 59.3251 92.475 56.85 92.475C55.9501 92.475 54.975 92.325 53.775 92.25C54.075 92.7 54.3 93 54.45 93.3C54.675 93.9 54.9 94.425 55.125 95.025C54.6 95.175 54.15 95.325 53.625 95.55C53.4 96.45 53.175 97.425 52.95 98.325C52.875 98.475 52.725 98.625 52.725 98.625C52.5751 97.8 52.5 96.75 52.2 95.85C52.125 95.475 51.525 95.025 51.225 95.1C50.85 95.175 50.55 95.7 50.4 96.075C50.025 97.05 49.8 98.025 49.575 99C49.425 99 49.275 99 49.125 98.925C49.125 98.1 49.125 97.275 49.125 96.45C49.125 95.625 49.125 94.8 48.9 94.05C48.75 93.525 48.15 93.15 47.775 92.775C47.55 93.3 47.175 93.825 47.1 94.35C46.95 95.475 47.1 96.675 46.95 97.8C46.725 99.225 46.275 100.65 45.825 102C45.6 102.525 45.075 102.975 44.475 103.575C44.475 101.7 44.55 100.2 44.475 98.7C44.475 98.25 44.025 97.875 43.725 97.425C43.35 97.8 42.825 98.1 42.75 98.55C42.375 100.2 42.375 101.925 41.85 103.5C40.875 106.575 37.95 107.775 35.025 106.35C34.425 106.05 33.9 105.525 33.375 105.075C33.45 104.925 33.45 104.85 33.525 104.7C34.125 104.7 34.8 104.85 35.325 104.625C35.55 104.55 35.4 103.65 35.475 103.2C36 103.05 36.9 102.975 37.575 102.675C38.4 102.3 39.075 101.775 38.25 100.575C37.5 99.45 38.1 97.05 39.15 96C39.375 95.775 39.675 95.625 39.825 95.4C39.975 95.175 39.975 94.8 40.05 94.5C39.75 94.425 39.3 94.2 39.15 94.35C38.625 94.65 38.025 95.025 37.725 95.55C37.05 96.675 36.6 97.875 35.925 99.225C35.7 98.7 35.4 98.25 35.325 97.8C35.025 95.175 36.15 93.075 38.475 91.8C38.7 91.65 39 91.575 39.075 91.35C39.225 90.975 39.3 90.525 39.375 90.075C39 90.075 38.55 89.925 38.175 90C36.525 90.6 35.4 91.65 35.175 93.675C34.125 92.625 34.2 91.65 34.65 90.75C34.95 90 34.875 89.55 34.5 88.95C34.125 88.35 33.75 87.675 33.525 87C32.85 85.275 33.075 84.9 34.725 84C34.8 84.075 34.875 84.15 34.875 84.15C34.575 86.625 35.925 87.9 38.4 87.15C38.85 87 39.375 86.325 39.375 85.875C39.45 84.075 39.45 82.275 39.375 80.475C39.3 79.425 39.525 78.825 40.725 78.6C41.85 78.45 42 77.925 41.55 76.8C40.5 74.325 40.65 71.925 42.375 69.75C42.75 69.225 43.35 68.925 43.875 68.475C44.775 69.6 42.525 71.175 44.625 71.85C46.425 69.675 46.425 69.675 48.45 70.35C49.05 69.825 49.65 69.375 50.025 69C50.475 69.675 50.775 70.05 51.075 70.5C51.3 70.275 51.6 70.05 51.9 69.75C53.7 70.65 53.625 68.025 55.125 68.175C55.125 68.1 55.05 67.95 55.05 67.875C54.525 67.65 53.9251 67.5 53.475 67.125C52.5751 66.3 51.4501 65.55 50.85 64.575C49.9501 63.075 49.725 62.7 48 62.925C45.975 63.15 43.95 63.45 42 63.675C37.425 64.5 32.925 65.175 28.275 64.5C27.6 64.425 26.925 64.2 26.55 64.125C27.6 60.375 28.725 56.775 29.475 53.175C30.3 49.5 30 45.75 29.325 41.925C32.175 41.7 34.875 41.325 37.575 41.25C41.925 41.1 46.275 41.175 50.625 41.175C51.15 41.175 51.75 41.325 52.275 41.475C53.775 41.925 54.075 42.375 54.075 44.025C53.925 46.95 54.6 48 57.525 48.15C60.3 48.3 63.15 48 66 47.85C72 47.475 77.925 46.875 83.925 46.725C100.875 46.275 117.9 45.975 134.925 45.6C134.85 45.975 134.85 46.125 134.775 46.125C131.4 47.7 130.575 49.875 132.225 53.25C132.75 54.3 133.425 55.35 134.025 56.325C128.7 60.45 128.7 63.6 133.875 68.175ZM98.7001 63.975C98.175 63.45 97.5751 63.075 97.5 62.7C97.35 61.125 97.275 59.55 97.275 57.975C97.425 57.9 97.5751 57.9 97.7251 57.825C98.3251 58.875 99.0001 59.925 99.4501 61.05C100.275 63.15 101.4 64.65 104.025 63.9C104.175 63.825 104.4 63.975 104.55 63.975C106.05 63.975 107.55 63.975 109.125 63.975C109.2 63.825 109.35 63.675 109.425 63.525C107.625 63.375 107.925 62.175 107.925 61.2C107.85 58.8 107.775 56.4 107.775 54C107.775 52.725 107.175 51.225 109.05 50.55C107.25 50.55 105.6 50.55 104.25 50.55C104.625 51.225 105.225 51.825 105.225 52.425C105.375 55.65 105.375 58.875 105.375 62.1C105.375 62.55 104.925 63.375 104.55 63.45C104.1 63.525 103.35 63.15 103.125 62.7C102.15 61.125 101.4 59.475 100.5 57.825C100.725 57.675 100.95 57.525 101.1 57.45C102.375 56.475 102.825 54.675 102.225 52.875C101.7 51.375 100.725 50.7 99 50.7C97.65 50.7 96.225 50.7 94.875 50.7C94.5 50.7 94.125 50.775 93.75 50.775C95.025 51.3 94.95 52.275 95.025 53.25C95.025 55.875 95.1001 58.5 95.1001 61.125C95.1001 62.25 95.4 63.45 94.05 64.125C95.4751 63.975 97.05 63.975 98.7001 63.975ZM69.6001 61.275C69.6001 58.725 69.6001 56.475 69.6001 54.15C68.7001 55.05 69.375 56.85 67.5 57.15C67.5 55.35 67.5 53.625 67.5 51.975C70.05 51.225 70.875 52.875 71.55 54.9C71.7001 53.85 71.625 52.95 71.7 52.05C71.775 51.075 71.4 50.775 70.425 50.775C68.475 51 66.525 51 64.575 51C64.275 51 63.975 51.075 63.675 51.15C63.6 51.225 63.45 51.375 63.375 51.45C65.25 51.6 64.875 52.8 64.95 53.85C65.025 56.55 65.1 59.175 65.175 61.875C65.175 62.925 65.3251 63.975 63.9751 64.425C66.4501 64.5 69 64.5 71.4751 64.5C71.625 64.5 72 64.35 72 64.2C72.15 62.85 72.3 61.5 72.375 60.225C72.225 60.225 72.15 60.225 72 60.15C71.85 60.675 71.7001 61.2 71.4751 61.65C70.9501 63 69.75 63.75 68.4751 63.525C68.1001 63.45 67.575 63.075 67.575 62.85C67.5 61.275 67.5 59.7 67.5 58.05C69.225 58.5 68.925 60.075 69.6001 61.275ZM49.05 80.475C49.05 80.25 49.125 79.725 48.9 79.35C48.675 78.975 48.225 78.75 47.85 78.45C47.7 78.825 47.325 79.275 47.325 79.65C47.325 80.325 47.7 81 47.775 81.675C47.85 82.875 47.25 83.325 46.05 82.95C44.7 82.575 44.325 81.375 44.025 80.175C43.875 79.575 43.65 78.9 43.5 78.225C42 79.5 41.85 81.3 43.05 82.725C43.8 83.625 43.95 84.45 43.95 85.5C43.95 86.775 43.95 88.275 45.375 88.8C46.8 89.325 47.85 88.275 48.75 87.375C49.35 86.775 49.8 86.7 50.55 86.775C52.05 86.925 53.175 86.4 54 85.2C54.15 84.9 54.225 84.525 54.3 84.15C53.925 84.15 53.55 84.075 53.25 84.15C52.125 84.375 51 84.75 49.875 84.75C49.35 84.75 48.6 84 48.45 83.475C48.3 83.175 48.975 82.35 49.425 82.05C49.95 81.675 50.625 81.675 51.225 81.375C51.9 81.075 51.9 80.475 51.3 80.25C50.55 80.175 49.8 80.4 49.05 80.475ZM46.65 53.7C47.175 53.625 47.625 53.55 48.075 53.4C49.575 53.1 50.55 51.9 50.7 50.325C50.85 48.45 50.1 46.8 48.675 46.35C46.65 45.75 44.625 46.05 42.525 46.425C43.875 46.8 43.8 47.775 43.875 48.825C43.95 51.525 44.1 54.15 44.175 56.85C44.25 57.975 44.475 59.1 42.975 59.55C43.05 59.625 43.125 59.775 43.2 59.85C44.775 59.775 46.275 59.7 47.775 59.625C47.325 58.95 46.725 58.425 46.65 57.9C46.575 56.55 46.65 55.2 46.65 53.7ZM88.275 50.85C86.7 50.85 85.125 50.85 83.8501 50.85C84.1501 51.675 84.5251 52.35 84.6001 53.1C84.8251 55.95 84.75 58.8 85.05 61.575C85.275 63.675 86.7 64.65 88.575 64.575C90.375 64.5 91.8 63.3 91.875 61.275C92.025 58.95 91.95 56.55 91.95 54.225C91.95 52.95 91.65 51.6 93.375 50.775C91.9501 50.775 90.975 50.775 90 50.775C90.375 51.45 91.05 51.975 91.05 52.575C91.2001 55.425 91.2001 58.275 91.125 61.125C91.05 62.55 90.075 63.525 89.025 63.45C87.9 63.45 87.2251 62.55 87.2251 60.9C87.1501 58.35 87.075 55.8 87 53.325C87 52.2 87 51.225 88.275 50.85ZM62.1001 51.375C61.425 51.3 60.9 51.375 60.45 51.225C58.725 50.475 57.3001 50.925 56.475 52.65C55.5751 54.525 55.95 56.775 57.525 58.2C58.2 58.8 59.025 59.25 59.625 59.85C60.15 60.375 60.75 60.975 61.05 61.65C61.425 62.475 61.125 63.375 60.375 63.9C59.55 64.5 58.725 64.125 58.2 63.45C57.675 62.775 57.3 61.95 56.925 61.125C56.7 60.75 56.625 60.3 56.475 59.925C56.4 59.925 56.325 60 56.325 60C56.325 61.65 56.325 63.225 56.325 64.65C57 64.575 57.6751 64.35 57.975 64.575C60 65.85 62.55 64.425 62.925 61.5C63.15 59.475 62.4 57.9 60.75 56.7C59.85 56.025 58.875 55.35 58.125 54.45C57.45 53.7 57.525 52.65 58.35 52.05C59.175 51.375 60.0751 51.675 60.6001 52.5C61.05 53.175 61.3501 54 61.7251 54.75C61.8 54.9 61.95 55.125 62.025 55.275C62.1 55.275 62.175 55.2 62.25 55.2C62.25 53.85 62.175 52.5 62.1001 51.375ZM112.8 51.225C112.8 54.525 112.8 57.825 112.8 61.125C112.8 62.1 112.875 63.075 111.675 63.525C113.25 63.525 114.9 63.525 116.475 63.525C116.55 63.45 116.625 63.3 116.7 63.225C115.2 63.075 115.275 62.025 115.275 61.125C115.2 58.125 115.125 55.125 115.125 52.05C115.125 51.75 115.275 51.075 115.5 51.075C115.95 51 116.475 51.075 116.775 51.375C117.15 51.75 117.375 52.275 117.6 52.8C117.75 53.1 117.825 53.325 117.9 53.625C118.2 52.575 118.2 51.6 118.125 50.7C118.125 50.475 117.675 50.025 117.45 50.025C114.9 49.95 112.275 50.025 109.725 50.025C109.725 51.45 109.725 52.65 109.725 53.775C110.475 52.575 110.4 50.7 112.8 51.225ZM82.425 51C81.6 51 81 51.15 80.55 51C78.4501 50.175 76.7251 50.55 75.2251 52.275C72.9751 54.975 72.9 60 74.925 62.775C76.8 65.25 80.4 65.325 82.05 62.85C82.275 62.475 82.35 61.95 82.5 61.5C82.35 61.5 82.275 61.425 82.125 61.425C81.9 61.725 81.75 61.95 81.525 62.25C80.775 63.225 79.875 63.75 78.6001 63.525C77.4001 63.3 76.95 62.4 76.65 61.35C75.975 58.875 75.825 56.325 76.575 53.85C76.95 52.725 77.55 51.75 78.9751 51.6C80.4001 51.525 81.0751 52.575 81.6001 53.7C81.8251 54.15 81.9 54.675 82.125 55.125C82.2 55.125 82.35 55.05 82.425 55.05C82.425 53.625 82.425 52.125 82.425 51ZM126.75 63.375C126.075 62.85 125.325 62.475 125.325 62.1C125.175 60.6 124.875 58.95 125.325 57.6C126.15 54.975 126.975 52.2 128.775 49.875C127.8 49.875 126.9 49.875 126.15 49.875C126.375 50.55 126.825 51.15 126.675 51.6C126.15 53.25 125.475 54.9 124.725 56.775C124.05 55.05 123.45 53.55 122.85 52.125C122.475 51.3 122.25 50.55 123.45 50.025C121.725 50.025 120.3 50.025 118.95 50.025C119.475 51 120.075 51.9 120.45 52.8C121.2 54.375 122.025 56.025 122.4 57.675C122.85 59.55 123.825 61.725 121.425 63.3C123.15 63.375 124.875 63.375 126.75 63.375ZM39.075 60.075C38.55 59.025 38.025 58.2 37.65 57.3C37.125 56.025 36.75 54.6 36.225 53.325C35.4 51.075 34.65 48.825 33.675 46.275C33.45 46.875 33.3 47.1 33.225 47.325C31.875 51.675 31.275 56.25 29.1 60.45C30.15 60.375 31.2 60.3 32.175 60.225C32.25 60.075 32.25 60 32.325 59.85C31.05 59.7 30.825 58.95 31.125 57.975C31.275 57.375 31.2 56.325 32.325 56.475C33.225 56.625 34.425 55.725 34.95 57C35.325 57.9 36.375 59.1 34.275 59.925C36.15 60.075 37.575 60.075 39.075 60.075ZM54.75 80.025C55.35 79.575 55.875 79.35 56.1 78.975C56.25 78.75 56.025 78.075 55.8 77.925C54.825 77.25 53.775 77.025 52.65 77.55C52.425 77.625 52.275 78.375 52.425 78.45C53.1 78.975 53.925 79.425 54.75 80.025ZM49.875 75.75C49.05 74.775 48.525 74.025 47.85 73.425C47.625 73.2 46.875 73.2 46.575 73.425C46.275 73.65 46.125 74.325 46.275 74.7C46.65 75.825 47.55 76.35 48.675 76.575C49.05 76.5 49.35 76.125 49.875 75.75ZM50.175 60.075C50.55 59.55 51 59.25 51 58.95C51 58.65 50.55 58.35 50.25 58.125C50.025 58.35 49.575 58.575 49.5 58.875C49.5 59.175 49.8 59.475 50.175 60.075ZM42.3 59.25C41.775 58.875 41.475 58.575 41.175 58.575C40.95 58.575 40.5 59.1 40.575 59.325C40.65 59.625 41.025 60.075 41.25 60.15C41.55 60.075 41.85 59.625 42.3 59.25Z" fill="#727272"/>
<path d="M129.075 93.9751C125.625 96.2251 128.85 98.0251 129 99.9751C128.325 100.275 127.65 100.65 126.9 101.025C127.575 101.925 128.175 102.675 128.625 103.5C129.525 105.15 129.075 106.05 127.275 106.425C126.075 106.725 126 107.1 126.675 108C127.5 109.125 128.175 110.325 128.925 111.525C127.425 111.675 126.15 111.75 124.725 111.9C124.725 111.45 124.875 111 124.8 110.475C124.8 109.95 124.8 109.35 124.5 109.05C124.2 108.75 123.375 108.675 123.15 108.825C122.775 109.125 122.55 109.8 122.475 110.325C122.4 110.925 122.55 111.525 122.625 112.05C121.575 111.825 120.75 111.675 120 111.525C119.55 111.375 119.1 111.225 118.575 111.075C118.725 110.625 118.875 110.175 119.1 109.725C119.4 109.275 119.7 108.825 120.15 108.3C119.025 107.925 118.575 108.45 118.125 109.125C117.975 109.35 117.525 109.575 117.3 109.5C117 109.425 116.625 109.125 116.55 108.825C116.475 108.6 116.7 108.075 116.925 108C118.65 107.475 118.8 106.2 118.05 104.325C119.1 104.7 119.7 104.775 120.3 105.075C121.65 105.825 122.325 105.525 122.4 103.95C122.475 102.075 122.55 100.2 122.4 98.3251C122.25 96.5251 121.125 95.4751 119.925 95.4751C118.5 95.4751 117 96.9001 116.625 98.4001C116.55 98.7751 115.95 99.3001 115.65 99.3001C113.775 99.1501 112.575 99.9751 111.975 101.7C111.9 101.925 111.75 102.075 111.6 102.225C111.525 102.3 111.375 102.375 111.075 102.525C110.25 99.9001 108.45 100.65 106.575 101.1C103.2 102 100.05 101.4 97.0499 99.5251C94.9499 98.1751 92.6249 97.1251 90.2999 96.1501C88.7249 95.5501 87.5999 95.8501 86.6249 96.7501C87.5249 96.9001 88.3499 96.9751 89.1749 97.1251C92.2499 97.6501 94.5749 99.3751 95.9249 102.15C97.1249 104.625 98.2499 105.075 100.8 103.875C103.05 102.9 105.3 102.375 107.7 103.05C108.9 103.35 109.725 104.175 109.95 105.45C110.175 106.65 109.425 107.325 108.3 107.925C108.225 107.1 108.225 106.425 108.15 105.675C107.1 107.175 106.2 107.475 104.7 106.575C104.4 106.425 104.175 106.125 103.875 105.975C102.825 105.225 102.225 105.525 102.15 106.8C102.075 107.325 102 107.85 101.85 108.6C101.175 108.15 100.725 107.925 100.275 107.625C99.2249 106.875 98.9249 107.025 98.7 108.3C98.6249 109.125 98.6249 109.95 98.5499 110.775C98.3249 112.575 97.1249 114.075 95.8499 114.375C95.6249 114.45 95.3999 114.375 95.2499 114.375C95.0249 113.325 94.8749 112.275 94.7249 111.3C94.575 110.475 93.9749 110.175 93.2249 110.175C92.4749 110.175 91.7999 110.25 91.4249 111.15C90.8249 112.725 89.9249 114.075 88.9499 115.125C88.0499 114.45 87.3749 113.85 86.6249 113.475C85.7999 113.175 85.0499 113.475 84.5999 114.3C84.075 115.275 83.325 115.2 82.4249 114.9C81.5999 114.6 80.9249 114.375 81.0749 113.25C81.2249 112.425 80.6249 112.05 79.9499 112.05C79.0499 112.05 78.1499 112.275 77.2499 112.275C76.8749 112.275 76.4999 111.975 76.1249 111.825C76.4249 111.45 76.5749 110.925 76.9499 110.85C77.9999 110.55 79.0499 110.4 80.1749 110.175C80.1749 110.025 80.2499 109.95 80.2499 109.8C79.6499 109.65 79.0499 109.425 78.4499 109.275C77.9999 109.125 77.6249 109.05 77.1749 108.975C77.3999 108.6 77.6249 108.15 77.9249 107.775C78.075 107.625 78.3749 107.55 78.6749 107.4C78.3749 106.575 78.1499 105.675 77.85 104.925C79.2 104.325 80.0999 104.625 81.0749 106.05C81.6749 106.875 82.0499 107.85 82.5749 108.75C83.3249 110.025 83.9249 110.025 85.1999 109.35C86.6999 108.525 88.2 107.85 89.8499 107.025C89.0999 106.8 88.4999 106.65 87.8249 106.5C86.6999 106.2 85.7999 105.675 85.3499 104.475C85.0499 103.575 84.5999 103.425 83.7749 104.025C83.1749 104.4 82.5749 104.7 81.8999 105.075C81.8249 103.8 81.825 102.675 81.6 101.625C81.3749 100.275 80.6249 99.8251 79.35 100.275C78.6 100.575 77.8499 101.1 77.2499 101.7C75.5249 103.425 74.0249 105.375 72.2249 107.025C69.45 109.575 66.4499 111.825 62.2499 110.55C62.0999 111.675 61.8749 112.65 60.5249 112.65C60.3749 112.05 60.2249 111.45 60.0749 110.55C59.0249 111.525 58.95 113.25 57.225 113.175C57.975 111.225 56.7749 110.1 55.4249 109.125C53.9249 108.075 52.5749 108.825 52.5749 110.625C52.5749 111.375 52.725 112.2 52.725 112.95C52.725 113.4 52.6499 113.925 52.6499 114.525C51.8999 114 51.3749 113.475 50.6999 113.25C49.4999 112.875 48.3749 113.1 47.3999 113.925C46.1999 114.975 45.0749 116.1 43.9499 117.225C43.5749 117.6 43.1999 117.975 42.5999 118.5C42.4499 117.675 42.4499 117.075 42.2249 116.475C42.0749 116.025 41.7749 115.35 41.3999 115.2C41.0249 115.05 40.2749 115.35 39.8999 115.65C38.6249 116.7 38.3999 116.7 37.5749 115.2C36.3749 112.95 35.0999 112.875 33.5999 114.975C33.2249 115.5 32.9999 115.875 32.2499 115.425C32.0999 115.275 31.5749 115.575 31.275 115.725C30 116.4 29.4749 116.55 28.3499 115.95C28.8749 115.2 29.3999 114.45 30.0749 113.475C29.5499 113.475 29.175 113.475 28.8 113.475C28.425 113.475 28.0499 113.475 27.5999 113.475C27.6749 113.1 27.7499 112.725 27.8249 112.425C27.8249 112.275 27.9 112.2 28.05 111.75C27.375 111.825 26.775 111.75 26.175 111.9C25.575 112.05 25.1249 112.425 24.5999 112.725C23.6999 113.25 22.9499 112.875 22.7999 111.825C22.7249 111 22.65 110.175 22.5 109.425C22.4249 109.05 22.0499 108.675 21.75 108.525C21.5999 108.45 21.0749 108.825 20.8499 109.125C20.1749 109.875 19.4999 110.775 18.2249 110.175C17.9999 111.225 17.85 112.125 17.7 113.1C16.5 112.2 16.65 112.2 17.25 111.075C17.7 110.175 17.775 109.05 18.2249 107.925C18.2999 108.525 18.375 109.05 18.525 109.65C18.6 109.65 18.675 109.65 18.75 109.725C18.825 109.125 19.1249 108.525 19.05 107.925C18.9749 107.175 18.375 107.025 17.7 107.175C17.025 107.325 16.65 107.7 17.025 108.375C17.625 109.425 17.325 110.175 16.5 110.85C15.525 111.6 15.75 112.2 16.5 112.95C16.8 113.175 16.875 113.625 17.025 114C16.575 114.075 16.05 114.3 15.6 114.225C14.55 114 13.95 112.95 14.25 111.75C14.625 110.1 15 108.525 15.45 106.95C15.825 105.75 16.8 105.375 17.8499 105.525C18.8249 105.6 19.425 105.3 19.5 104.4C19.575 103.425 18.75 103.425 18.075 103.275C17.85 103.275 17.625 103.275 17.4 103.2C16.95 103.05 16.35 102.9 16.125 102.6C15.975 102.45 16.35 101.775 16.575 101.4C16.8 101.025 17.1 100.725 17.55 100.125C16.8 100.425 16.35 100.575 16.2 100.575C15.75 99.9751 15.525 99.3001 15.075 99.1501C14.025 98.7751 13.125 99.1501 12.825 100.5C12.675 100.5 12.6 100.425 12.45 100.425C12.15 99.8251 11.7 99.3001 11.7 98.7001C11.7 98.3251 12.525 97.9501 13.05 97.7251C14.025 97.3501 15 97.1251 16.05 96.8251C17.475 96.4501 17.925 96.9001 17.625 98.3251C17.4 99.1501 17.85 99.3751 18.525 99.3751C19.05 99.3751 19.4999 99.2251 20.0999 99.0751C20.1749 100.5 20.625 101.85 22.5 102.6C22.0499 101.4 21.5999 100.5 21.375 99.6001C21.2249 99.0001 21.225 97.8751 21.45 97.8001C22.275 97.5001 23.0999 97.8001 23.4749 98.8501C23.5499 99.0001 23.6999 99.1501 23.9249 99.3751C24.525 98.9251 25.1249 98.4751 25.7249 98.0251C25.8749 98.1001 25.9499 98.1001 26.0999 98.1751C26.0249 99.1501 25.95 100.2 25.8 101.175C25.275 104.475 27.5249 107.475 30.5999 107.1C32.3999 106.875 33.6 107.25 35.1749 108.075C37.5749 109.35 40.2749 109.05 42.5249 107.025C43.4249 106.2 44.2499 105.375 45.5999 105.15C46.4999 105 47.325 103.95 48.225 103.35C48.675 103.5 49.2 103.875 49.725 103.875C50.025 103.875 50.6999 103.275 50.625 103.05C50.3999 102.15 51 101.775 51.6 101.775C51.9 101.775 52.3499 102.225 52.6499 102.525C52.7999 102.675 52.9499 102.9 53.3249 103.275C54.1499 100.95 54.9749 98.7751 55.6499 96.8251C57.3749 96.9751 58.7249 97.1251 60.2999 97.2751C59.9249 96.2251 59.6249 95.5501 59.3999 94.8751C59.1749 94.1251 59.325 93.7501 60.2249 93.7501C62.8499 93.7501 65.1749 93.0001 67.4999 91.8751C71.2499 90.0751 75.3749 89.5501 79.4999 89.1751C85.2749 88.5751 91.0499 88.6501 96.825 89.1751C97.8749 89.2501 98.9999 89.4001 100.05 89.6251C106.8 90.9001 113.25 90.0751 119.4 87.0751C121.125 86.2501 122.625 84.9751 124.05 83.7001C125.55 82.3501 125.025 80.2501 123.075 79.8001C121.725 79.5001 120.15 79.5751 118.8 79.9501C115.95 80.8501 113.175 81.9001 110.55 83.1751C103.5 86.5501 96.1499 87.6001 88.4249 86.9251C85.7999 86.7001 83.2499 86.0251 81.1499 84.2251C77.5499 81.0751 78.2249 74.9251 82.4249 72.6751C84.825 71.4001 87.3749 71.0251 89.9999 70.9501C91.5749 70.9501 93.1499 70.6501 94.7249 70.3501C95.7 70.2001 96.2999 69.6001 96.075 68.4751C95.85 67.4251 95.0249 66.9751 94.0499 67.2751C92.6249 67.7251 91.2749 68.3251 89.8499 68.8501C87.7499 69.6001 85.6499 70.4251 83.5499 71.0251C82.0499 71.4751 80.6999 71.0251 79.6499 69.4501C80.9249 69.5251 81.2249 69.0001 81.2999 67.8001C81.3749 66.1501 83.2499 64.8751 85.0499 65.1751C84.5249 66.4501 83.3999 67.5001 84.0749 69.2251C84.5999 68.9251 84.9749 68.7001 85.4249 68.4001C85.8749 69.4501 86.5499 69.0751 87.3749 68.7001C89.6999 67.6501 92.0999 66.6001 94.4999 65.7001C95.3999 65.3251 96.5249 65.4001 97.575 65.4001C98.6249 65.4001 99.6749 65.7751 100.05 66.9751C100.425 68.1751 100.35 69.3751 99.45 70.2001C98.5499 71.1001 98.0999 72.0751 97.7999 73.2751C97.4249 75.0001 96.2999 76.3501 94.7999 77.3251C94.1999 77.7001 93.5249 78.0001 92.9999 77.1751C92.6249 76.4251 93.0749 76.0501 93.7499 75.6751C94.4999 75.3001 95.5499 74.9251 94.9499 73.8001C94.3499 72.6751 93.2999 73.0501 92.4749 73.6501C91.95 73.9501 91.5749 74.4751 91.1999 74.9251C90.2249 76.1251 88.2749 76.7251 86.7749 76.2001C86.9999 75.9001 87.2249 75.6751 87.4499 75.3751C88.0499 74.7001 88.1999 74.0251 87.3749 73.3501C86.5499 72.7501 85.7249 72.6751 85.1249 73.5751C84.6749 74.3251 84.2249 74.5501 83.3249 74.4751C82.8749 74.4001 82.1999 74.7001 81.8249 75.0001C80.0249 76.6501 80.2499 80.1751 82.1249 81.6751C82.7999 81.0751 83.4749 80.4001 84.3749 79.5001C84.3749 81.3001 83.9999 82.7251 85.6499 83.7751C85.6499 81.3751 86.6999 79.7251 88.4999 78.5251C89.6999 77.7001 91.0499 77.6251 92.4749 78.1501C93.2249 78.4501 93.6749 79.0501 93.2999 79.8751C92.9249 80.7001 92.3999 80.6251 91.5749 80.2501C91.1999 80.0251 90.1499 80.2501 90.0749 80.4751C89.8499 81.0001 89.8499 81.8251 90.0749 82.3501C90.4499 83.1751 94.0499 84.3001 94.9499 84.0001C95.2499 83.9251 95.4749 83.4751 95.6249 83.1751C96.2249 81.7501 96.5249 81.6751 97.7999 82.6501C98.2499 82.9501 98.6999 83.3251 99.1499 83.6251C99.2999 83.7001 99.4499 83.7001 99.7499 83.7751C99.7499 83.1001 99.7499 82.5001 99.7499 81.9751C99.6749 80.5501 100.275 79.5001 101.625 79.0501C102.225 78.8251 102.975 79.0501 103.65 79.0501C103.65 79.8001 103.65 80.5501 103.65 81.4501C102.9 81.0751 102.45 80.8501 101.775 80.4751C101.925 81.9001 102.675 82.5001 103.65 82.5751C106.875 82.7251 110.175 82.6501 112.8 80.4001C114.525 78.9751 116.025 77.3251 117.675 75.8251C119.025 74.5501 120.45 73.3501 121.95 72.2251C123.075 71.4001 124.35 71.3251 125.55 72.0751C126.825 72.9001 127.125 74.1751 127.2 75.5251C127.2 75.8251 126.9 76.1251 126.675 76.4251C126.45 76.2001 126.075 76.0501 125.925 75.8251C125.7 75.3001 125.55 74.7751 125.325 74.2501C124.95 73.3501 124.275 72.9751 123.375 73.4251C122.325 73.9501 121.725 75.0001 122.325 75.8251C122.775 76.4251 123.45 77.0251 124.125 77.3251C126.675 78.3001 127.425 79.8751 126.375 82.4251C125.325 84.9001 123.45 86.5501 121.125 87.7501C118.2 89.3251 115.05 90.1501 111.825 90.6751C110.925 90.8251 109.95 91.0501 109.125 91.4251C108.75 91.5751 108.15 92.1751 108.225 92.4751C108.3 92.9251 108.825 93.5251 109.275 93.6001C110.325 93.8251 111.45 93.9751 112.425 93.8251C116.175 93.3001 119.55 91.8751 122.1 88.9501C122.85 88.1251 123.675 87.3001 124.5 86.6251C125.475 85.8001 126.6 85.3501 127.95 85.9501C129.225 86.4751 129.375 87.6751 129.525 88.8001C129.6 89.3251 129.525 89.7751 129.525 90.5251C129.075 90.2251 128.85 89.8501 128.625 89.9251C128.25 90.0001 127.575 90.3001 127.575 90.3001C127.875 91.4251 126.975 91.5751 126.3 91.9501C126 92.1001 125.625 92.1751 125.4 92.4001C125.175 92.6251 124.95 93.0001 125.025 93.3001C125.1 93.5251 125.55 93.6751 125.85 93.6751C126.525 93.7501 127.2 93.6001 127.95 93.6751C128.025 93.5251 128.475 93.7501 129.075 93.9751Z" fill="#727272"/>
<path d="M33.1499 90.3001C32.9249 91.3501 32.6249 92.3251 32.3999 93.3751C32.1749 94.6501 32.0249 95.8501 33.2999 96.9001C34.2749 97.7251 34.1249 100.575 33.2999 101.325C32.3249 102.225 31.7999 102.15 31.2749 100.95C31.1999 100.8 31.1249 100.65 31.0499 100.5C31.0499 100.5 30.9749 100.425 30.8999 100.425C30.2999 101.325 29.6249 102.3 29.0249 103.2C28.8749 103.125 28.7999 103.05 28.6499 103.05C28.5749 102.825 28.4999 102.6 28.4999 102.375C28.6499 101.1 28.3499 99.9751 27.5249 98.9251C27.2249 98.4751 27.2999 97.8001 27.2249 97.2001C26.9999 96.0001 26.8499 94.7251 26.4749 93.6001C26.3999 93.2251 25.7999 92.9251 25.4249 92.8501C25.1999 92.7751 24.8999 93.3001 24.8249 93.3751C24.2999 93.0001 23.6999 92.4751 23.0999 92.0251C21.4499 90.7501 20.0999 90.6751 18.4499 91.7251C18.1499 91.8751 17.5499 91.9501 17.3249 91.7251C17.0999 91.5751 17.0999 90.9001 17.2499 90.6001C17.5499 90.0751 17.9999 89.7001 18.4499 89.3251C18.5999 89.1751 18.8999 89.1001 19.1249 88.9501C20.1749 88.4251 21.1499 86.7001 20.6249 86.0251C20.1749 85.5001 19.1249 85.5001 18.1499 85.2001C17.5499 84.4501 16.7249 83.5501 15.8999 82.5001C16.1999 82.4251 16.4249 82.3501 16.5749 82.2751C17.0249 82.0501 17.4749 81.7501 17.9249 81.4501C17.3249 81.0001 16.8749 80.3251 16.1999 80.1001C15.3749 79.8001 15.2999 80.5501 15.2249 81.2251C15.2249 81.5251 14.9999 81.8251 14.8499 82.1251C14.5499 81.9751 14.0999 81.9001 13.8749 81.6001C12.9749 80.7001 13.1249 79.3501 14.2499 78.0001C14.8499 77.3251 15.3749 76.7251 14.3999 75.8251C13.9499 75.3751 14.2499 74.7001 14.9999 74.9251C15.8999 75.1501 16.7249 75.6751 17.5499 76.0501C18.0749 76.2751 18.5249 77.1001 19.1999 76.2751C19.7249 75.5251 19.8749 74.7751 19.1999 74.0251C18.8999 73.7251 18.5249 73.4251 18.0749 73.0501C19.0499 72.4501 19.9499 72.7501 20.6249 73.3501C20.9999 73.6501 21.1499 74.4001 21.1499 75.0001C21.2249 75.6001 21.0749 76.2751 20.9249 76.9501C20.4749 79.2751 21.2999 81.2251 22.6499 83.1001C24.8249 85.9501 29.0999 88.9501 33.1499 90.3001Z" fill="#727272"/>
<path d="M26.9999 41.1001C27.6749 41.1751 28.2749 41.3251 29.0249 41.4001C26.9249 54.7501 24.8249 68.1751 22.7249 81.7501C21.4499 79.8001 21.2999 77.9251 21.5999 75.8251C23.3249 64.5751 25.0499 53.4001 26.7749 42.1501C26.7749 41.7751 26.8499 41.4751 26.9999 41.1001Z" fill="#727272"/>
<path d="M18.1499 98.4751C18.2999 96.6001 18.5249 94.8001 18.6749 92.9251C18.7499 91.8001 19.3499 91.6501 20.2499 91.7251C21.2999 91.8001 20.9999 92.6251 20.9249 93.2251C20.6999 94.5751 20.5499 95.9251 20.0999 97.2001C19.8749 97.8001 19.1249 98.3251 18.6749 98.8501C18.4499 98.7001 18.2999 98.5501 18.1499 98.4751Z" fill="#727272"/>
<path d="M30.45 38.775C30.45 39.9 29.55 40.8 28.35 40.875C27.15 40.95 26.175 39.975 26.175 38.775C26.175 37.65 27.075 36.75 28.2 36.675C29.325 36.675 30.45 37.65 30.45 38.775Z" fill="#727272"/>
<path d="M14.55 116.325C15.375 116.4 16.125 116.55 16.95 116.475C17.925 116.4 17.85 117.15 18 117.675C18.15 118.425 18.3 119.175 17.325 119.475C16.95 119.55 16.5 119.625 16.2 119.55C15.3 119.325 13.95 119.25 13.65 118.65C13.35 118.05 14.025 116.925 14.25 115.95C14.25 116.175 14.4 116.25 14.55 116.325Z" fill="#727272"/>
<path d="M17.4 114.225C17.325 114.525 17.325 115.05 17.175 115.5C17.025 115.8 16.725 116.175 16.425 116.175C15.975 116.175 15.375 116.025 15.15 115.8C14.85 115.35 14.925 114.9 15.75 114.75C16.35 114.75 16.875 114.45 17.4 114.225Z" fill="#727272"/>
<path d="M16.875 104.25C17.4 104.1 17.925 103.95 18.525 103.875C18.6 104.1 18.6 104.25 18.675 104.475C18.15 104.625 17.625 104.775 17.025 104.85C16.95 104.625 16.875 104.4 16.875 104.25Z" fill="#727272"/>
<path d="M97.2749 56.8501C97.2749 55.2751 97.1999 53.6251 97.2749 51.9751C97.3499 50.8501 98.2499 51.3001 98.6999 51.4501C99.7499 51.7501 100.2 53.6251 99.7499 55.3501C99.5249 56.6251 98.9249 57.0001 97.2749 56.8501Z" fill="#727272"/>
<path d="M46.425 52.575C46.425 50.7 46.425 48.975 46.425 47.175C47.925 47.4 48.3 48.15 48.3 50.25C48.3 51.9 47.925 52.425 46.425 52.575Z" fill="#727272"/>
<path d="M33.075 51.675C33.45 52.8 33.9 54.0001 34.35 55.35C33.45 55.4251 32.7 55.5 31.8 55.575C32.175 54.15 32.475 52.95 32.85 51.675C32.925 51.75 33 51.75 33.075 51.675Z" fill="#727272"/>
</g>
<defs>
<clipPath id="clip0_2_1404">
<rect width="150" height="150" fill="white"/>
</clipPath>
</defs>
</svg>
