<svg xmlns="http://www.w3.org/2000/svg" enable-background="new 0 0 512 512" height="512" width="512" style=""><rect id="backgroundrect" width="100%" height="100%" x="0" y="0" fill="none" stroke="none"/><g class="currentLayer" style=""><title>Layer 1</title><path d="m393.8 512c-4.6 0-8.9-.6-13-1.7-89.5-25.4-172-74-238.5-140.5-66.6-66.6-115.1-149-140.5-238.5-6.5-23 5.7-54.8 32.7-85.1 22.6-25.4 57.9-50.7 88.9-45.5 30.8 5.1 62.7 48.2 74.6 85.3 10.8 33.8 6.6 62.6-12 81.2l-21.8 21.8c37.3 65.7 93.1 121.5 158.8 158.8l21.9-21.9c18-18 48.8-21.8 84.5-10.4 35.5 11.4 76.3 39.1 81.9 73 5.1 31-20.1 66.3-45.5 88.9-24.8 22.3-50.8 34.6-72 34.6zm-278.8-480c-14.7 0-37.7 14.3-56.7 35.5-20.6 23.1-28.6 45.2-25.8 55.1 48.7 171.4 185.5 308.2 357 356.9 9.9 2.8 31.9-5.2 55-25.8 22.8-20.4 37.6-45.5 35.2-59.8-2.7-16.6-29.7-38-60.1-47.8-23.1-7.4-43.1-6.5-52.1 2.5l-30.4 30.4c-5 5-12.6 6.1-18.8 2.8-79.2-42.1-146-108.9-188.1-188.1-3.3-6.2-2.2-13.8 2.8-18.8l30.4-30.4c13-13 8.2-36.1 4.1-48.8-11.3-35.1-37.2-61.5-49.4-63.5-.9-.1-2-.2-3.1-.2z" id="svg_1" class="selected" fill="#b6b6b6" fill-opacity="1"/></g></svg>