<svg width="29" height="26" viewBox="0 0 29 26" fill="none" xmlns="http://www.w3.org/2000/svg">
<g filter="url(#filter0_d_1_426)">
<path d="M11.3763 17.3075C11.1467 17.3065 10.9267 17.2154 10.7638 17.0537L5.12875 11.4275C4.96515 11.2627 4.8737 11.0397 4.87452 10.8075C4.87534 10.5753 4.96836 10.3529 5.13313 10.1893C5.29789 10.0257 5.5209 9.93427 5.7531 9.93509C5.98529 9.93591 6.20765 10.0289 6.37125 10.1937L11.3763 15.1987L22.6288 3.9462C22.7101 3.86419 22.8069 3.79909 22.9135 3.75467C23.0201 3.71025 23.1345 3.68738 23.25 3.68738C23.3655 3.68738 23.4799 3.71025 23.5865 3.75467C23.6931 3.79909 23.7899 3.86419 23.8713 3.9462C24.0342 4.11014 24.1257 4.33191 24.1257 4.56308C24.1257 4.79424 24.0342 5.01601 23.8713 5.17995L11.9975 17.0537C11.9157 17.1348 11.8188 17.199 11.7122 17.2425C11.6056 17.286 11.4914 17.3081 11.3763 17.3075Z" fill="#71EF9B"/>
</g>
<defs>
<filter id="filter0_d_1_426" x="0" y="0" width="29" height="29" filterUnits="userSpaceOnUse" color-interpolation-filters="sRGB">
<feFlood flood-opacity="0" result="BackgroundImageFix"/>
<feColorMatrix in="SourceAlpha" type="matrix" values="0 0 0 0 0 0 0 0 0 0 0 0 0 0 0 0 0 0 127 0" result="hardAlpha"/>
<feOffset dy="4"/>
<feGaussianBlur stdDeviation="2"/>
<feComposite in2="hardAlpha" operator="out"/>
<feColorMatrix type="matrix" values="0 0 0 0 0 0 0 0 0 0 0 0 0 0 0 0 0 0 0.25 0"/>
<feBlend mode="normal" in2="BackgroundImageFix" result="effect1_dropShadow_1_426"/>
<feBlend mode="normal" in="SourceGraphic" in2="effect1_dropShadow_1_426" result="shape"/>
</filter>
</defs>
</svg>
