<svg width="128" height="128" viewBox="0 0 128 128" fill="none" xmlns="http://www.w3.org/2000/svg">
<path d="M119.875 0H23.125C22.0892 0 21.25 0.8395 21.25 1.875V98H8.125C7.08925 98 6.25 98.8395 6.25 99.875C6.25 107.112 12.138 113 19.375 113H21.25V126.125C21.25 127.16 22.0892 128 23.125 128H119.875C120.911 128 121.75 127.16 121.75 126.125V1.875C121.75 0.8395 120.911 0 119.875 0ZM47.5 3.75H51.25V16.875C51.25 17.9105 52.0892 18.75 53.125 18.75H89.875C90.9108 18.75 91.75 17.9105 91.75 16.875V3.75H95.5V16.875C95.5 19.9767 92.9765 22.5 89.875 22.5H53.125C50.0235 22.5 47.5 19.9767 47.5 16.875V3.75ZM55 11.25H88V15H55V11.25ZM88 7.5H55V3.75H88V7.5ZM25 3.75H43.75V7.5H30.625C29.5893 7.5 28.75 8.3395 28.75 9.375V92.375C28.75 93.4105 29.5893 94.25 30.625 94.25C31.6607 94.25 32.5 93.4105 32.5 92.375V11.25H43.75V16.875C43.75 22.0445 47.9555 26.25 53.125 26.25H89.875C95.0445 26.25 99.25 22.0445 99.25 16.875V11.25H110.5V99.875C110.5 105.045 106.295 109.25 101.125 109.25C95.9555 109.25 91.75 105.045 91.75 99.875C91.75 98.8395 90.9108 98 89.875 98H25V3.75ZM10.1882 101.75H88.1335C88.5527 104.668 89.9355 107.28 91.9482 109.25H19.375C14.8477 109.25 11.0595 106.024 10.1882 101.75ZM118 124.25H25V113H101.125C108.362 113 114.25 107.112 114.25 99.875V9.375C114.25 8.3395 113.411 7.5 112.375 7.5H99.25V3.75H118V124.25Z" fill="white"/>
<path d="M84.8467 66.4632L95.3157 56.1517C95.8217 55.6535 96.0027 54.912 95.7832 54.2365C95.5637 53.561 94.9815 53.0678 94.2792 52.9618L79.7485 50.7735L73.177 37.6302C72.8592 36.995 72.2102 36.5938 71.5 36.5938C70.7897 36.5938 70.1405 36.995 69.823 37.6302L63.2515 50.7735L48.7207 52.9618C48.0185 53.0675 47.4362 53.561 47.2167 54.2365C46.9972 54.912 47.1782 55.6535 47.6842 56.1517L58.1532 66.4632L55.7445 80.959C55.628 81.6595 55.9172 82.3657 56.492 82.7832C57.0662 83.2005 57.827 83.2575 58.458 82.9305L71.5 76.16L84.5417 82.9305C84.814 83.0717 85.1102 83.1415 85.4055 83.1415C85.7945 83.1415 86.1815 83.0207 86.5077 82.7832C87.0825 82.366 87.3717 81.6595 87.2552 80.959L84.8467 66.4632ZM80.9877 66.1178L82.9412 77.8743L72.3637 72.3832C72.0927 72.2427 71.7962 72.1725 71.4997 72.1725C71.2032 72.1725 70.9067 72.2427 70.6357 72.3832L60.0582 77.8743L62.0117 66.1178C62.1117 65.5158 61.9127 64.9028 61.4777 64.4745L52.9867 56.1115L64.772 54.3365C65.3752 54.2455 65.8967 53.8668 66.1697 53.3208L71.5 42.6615L76.8297 53.3213C77.1027 53.8673 77.6242 54.246 78.2275 54.337L90.0127 56.112L81.5217 64.475C81.087 64.9027 80.8877 65.5158 80.9877 66.1178Z" fill="white"/>
</svg>
