<svg width="124" height="124" viewBox="0 0 124 124" fill="none" xmlns="http://www.w3.org/2000/svg">
<g clip-path="url(#clip0_1_397)">
<path d="M122.467 53.2584L109.37 38.694C107.705 36.8434 105.128 36.2239 102.804 37.1157C100.479 38.0072 98.9772 40.1922 98.9772 42.6816V48.7552H80.5141C76.8437 48.7552 73.3441 49.5004 70.1586 50.8475V25.4606H76.5616C79.0505 25.4606 81.2351 23.9593 82.127 21.6358C83.0195 19.311 82.4005 16.7322 80.5489 15.065L65.9867 1.96796C63.7138 -0.0746464 60.2856 -0.0744044 58.0124 1.96845L43.4497 15.0659C41.5991 16.7322 40.9801 19.311 41.8726 21.6358C42.7645 23.9593 44.9491 25.4606 47.438 25.4606H53.841V38.4557C53.841 39.4588 54.6542 40.2721 55.6574 40.2721C56.6605 40.2721 57.4738 39.4588 57.4738 38.4557V23.6445C57.4738 22.6413 56.6605 21.8281 55.6574 21.8281H47.438C45.9529 21.8281 45.3986 20.6842 45.2639 20.3338C45.129 19.9828 44.7754 18.7603 45.8795 17.7661L60.4408 4.67005C61.3297 3.87131 62.6699 3.87131 63.5583 4.66956L78.1193 17.7654C79.2244 18.7605 78.8706 19.9831 78.7359 20.334C78.6013 20.6845 78.0469 21.8283 76.5618 21.8283H68.3424C67.3393 21.8283 66.526 22.6416 66.526 23.6447V52.7266C62.8031 55.0288 59.6862 58.2201 57.4735 62.0026V45.7208C57.4735 44.7177 56.6603 43.9044 55.6571 43.9044C54.654 43.9044 53.8407 44.7177 53.8407 45.7208V74.4058C50.6557 73.059 47.1566 72.3137 43.4867 72.3137H25.0233V66.2402C25.0233 63.7505 23.5213 61.5657 21.1968 60.6742C18.8723 59.7827 16.2944 60.4027 14.6296 62.254L1.53308 76.8163C-0.510742 79.0887 -0.510984 82.5164 1.53308 84.7891L14.6301 99.3513C16.2951 101.203 18.8725 101.822 21.1973 100.931C23.522 100.04 25.0238 97.8548 25.0238 95.3652V88.6304H43.4872C49.197 88.6304 53.8422 93.2756 53.8422 98.9854V121.747C53.8422 122.751 54.6554 123.564 55.6586 123.564H68.3424C69.3456 123.564 70.1588 122.751 70.1588 121.747V98.9914C70.1588 98.9897 70.1591 98.9883 70.1591 98.9868V75.4259C70.1591 69.7158 74.8045 65.0704 80.5145 65.0704H98.9777V71.8052C98.9777 74.2946 100.48 76.4794 102.804 77.3711C105.128 78.2628 107.706 77.6433 109.371 75.7925L112.59 72.2132C113.26 71.4673 113.199 70.3188 112.454 69.6482C111.708 68.9776 110.559 69.0384 109.888 69.7843L106.67 73.3634C105.677 74.4673 104.456 74.1144 104.105 73.9795C103.755 73.8451 102.611 73.2907 102.611 71.8052V63.254C102.611 62.2509 101.797 61.4376 100.794 61.4376H80.5145C72.8016 61.4376 66.5265 67.7127 66.5265 75.4256V85.5614C64.3139 81.7787 61.1972 78.5869 57.474 76.2847V75.4254C57.474 62.7221 67.8099 52.3873 80.5143 52.3873H100.794C101.797 52.3873 102.61 51.574 102.61 50.5709V42.6809C102.61 41.1953 103.754 40.6409 104.105 40.5065C104.456 40.3716 105.677 40.019 106.67 41.1224L119.767 55.6873C120.565 56.574 120.565 57.9128 119.767 58.8009L114.734 64.3952C114.064 65.1409 114.124 66.2893 114.87 66.9602C115.616 67.6311 116.765 67.5703 117.435 66.8246L122.468 61.2295C124.511 58.9564 124.511 55.5292 122.467 53.2584ZM66.5258 98.9854V119.931H57.4745V98.9854C57.4745 91.2727 51.1997 84.9978 43.487 84.9978H23.2074C22.2043 84.9978 21.391 85.8111 21.391 86.8142V95.3652C21.391 96.8507 20.2469 97.4049 19.8962 97.5395C19.5455 97.6739 18.3239 98.0268 17.3307 96.9224L4.23371 82.3602C3.43522 81.4723 3.43522 80.1333 4.23371 79.2454L17.3307 64.6831C18.3244 63.5788 19.5455 63.9316 19.8962 64.0661C20.2469 64.2007 21.391 64.7548 21.391 66.2404V74.1301C21.391 75.1333 22.2043 75.9466 23.2074 75.9466H43.487C56.1907 75.9466 66.5258 86.2817 66.5258 98.9854Z" fill="white"/>
</g>
<defs>
<clipPath id="clip0_1_397">
<rect width="124" height="124" fill="white"/>
</clipPath>
</defs>
</svg>
