<svg width="256" height="150" viewBox="0 0 256 150" fill="none" xmlns="http://www.w3.org/2000/svg">
<path d="M239.158 65.3617C239.158 65.2333 238.902 64.9765 238.773 64.8481C238.516 64.9765 238.26 65.2333 238.131 65.3617C238.003 65.2333 238.003 64.8481 237.746 64.7197C237.618 64.5913 237.232 64.8481 236.719 65.1049C237.489 64.4629 237.874 63.5641 238.902 63.8209C239.158 63.8209 239.415 63.8209 239.672 63.6924C241.213 63.1788 242.882 62.6652 244.423 62.28C245.193 62.0232 245.322 61.7664 245.322 60.996C245.45 57.7859 245.579 54.4474 245.707 51.2373C245.707 50.3385 245.707 49.4397 245.579 48.6692C245.579 48.4124 245.45 48.0272 245.579 47.7704C245.707 47.5136 245.964 47.2568 246.221 47C246.349 47.2568 246.477 47.5136 246.606 47.7704C246.734 48.4124 246.863 49.1829 246.863 49.8249C246.863 50.4669 246.606 50.9805 246.606 51.6225C246.606 53.1634 246.477 54.5758 246.606 56.1167C246.734 57.9143 246.863 59.8403 247.119 61.638C247.119 61.7664 247.376 62.0232 247.633 62.1516C249.431 62.7936 251.357 63.3072 253.154 63.8209C253.283 63.8209 253.411 63.8209 253.54 63.8209C253.668 64.0777 253.796 64.3345 253.925 64.5913C254.182 64.4629 254.31 64.3345 254.567 64.0777C254.438 64.0777 254.567 64.0777 254.567 64.0777C254.695 64.4629 255.722 64.4629 255.209 65.2333C254.824 65.7469 253.54 65.6185 253.026 65.2333C252.898 65.1049 252.769 64.9765 252.641 64.9765C251.1 64.4629 249.431 63.9493 247.761 63.4356C247.761 63.9493 247.761 64.2061 247.761 64.5913C247.761 77.8168 247.761 91.1708 247.761 104.396C247.761 106.066 247.505 107.606 246.092 108.762C245.579 107.863 244.937 106.964 244.937 105.68C244.937 91.9412 244.937 78.0736 244.937 64.3345C244.937 64.0777 244.937 63.8209 244.808 63.4356C242.882 64.0777 240.828 64.2061 239.158 65.3617Z" fill="#727272"/>
<path d="M200.124 81.7975C199.739 81.6691 199.353 81.669 199.225 81.5406C198.968 81.4122 198.84 81.027 198.84 80.7702C198.84 80.6418 199.225 80.385 199.482 80.385C200.766 80.385 202.05 80.385 203.334 80.385C203.591 80.385 203.847 80.6418 203.976 80.7702C203.976 81.027 203.847 81.4122 203.591 81.5406C203.334 81.669 202.949 81.6691 202.692 81.7975C202.692 85.1359 202.692 88.4744 202.692 91.8129C202.82 91.9413 202.82 91.9413 202.949 91.9413C203.462 92.0697 204.104 91.9413 204.104 92.8402C203.976 93.739 203.205 93.3538 202.82 93.3538C201.408 93.3538 199.867 93.3538 198.454 93.3538C196.143 93.4822 194.602 92.1981 193.318 90.5289C192.676 89.7585 192.163 88.8596 191.649 88.0892C191.392 87.8324 191.007 87.704 190.493 87.4472C190.493 88.8596 190.493 90.0153 190.493 91.1709C190.493 91.8129 190.75 91.9413 191.392 92.0697C192.291 92.1981 192.163 92.3265 192.034 93.3538C190.493 93.3538 188.824 93.3538 187.283 93.3538C187.027 93.3538 186.77 92.9686 186.77 92.8402C186.77 92.5833 187.027 92.1981 187.283 92.1981C188.182 92.1981 188.182 91.5561 188.182 90.9141C188.182 88.2176 188.182 85.5212 188.182 82.6963C188.182 82.1827 188.054 81.7974 187.412 81.669C187.155 81.669 187.027 81.1554 186.77 80.8986C187.027 80.7702 187.283 80.385 187.54 80.385C189.209 80.385 190.879 80.385 192.548 80.385C193.704 80.385 194.731 80.8986 195.63 81.7975C197.042 83.2099 196.657 85.5211 194.988 86.8052C194.731 86.9336 194.474 87.1904 194.217 87.3188C195.116 89.1164 196.143 90.5289 197.684 91.6845C198.069 91.9413 198.583 92.0697 199.096 92.1981C199.995 92.3265 200.381 91.9413 200.381 91.0425C200.124 87.9608 200.124 84.8791 200.124 81.7975ZM190.237 81.9259C190.237 82.9531 190.237 83.8519 190.237 84.7507C190.237 86.1632 190.237 86.1632 191.649 86.1632C192.933 86.1632 193.704 85.3927 193.704 84.1087C193.704 82.6963 193.062 81.9259 191.778 81.9259C191.264 81.9259 190.879 81.9259 190.237 81.9259Z" fill="#727272"/>
<path d="M76.5998 80.8985C77.2418 80.1281 78.1406 80.5133 79.0395 80.3849C79.8099 80.3849 80.4519 80.3849 81.2223 80.3849C81.4791 80.8985 81.4791 81.2837 80.7087 81.6689C80.1951 81.9257 79.6815 82.4393 79.4247 83.0814C78.0122 86.0346 76.7282 88.9879 75.4442 91.9412C75.3158 92.198 75.1874 92.5832 75.059 92.84C74.8021 93.0968 74.4169 93.482 74.1601 93.482C73.9033 93.482 73.6465 93.0968 73.3897 92.84C72.7477 91.6844 72.2341 90.6571 71.5921 89.3731C70.95 90.6571 70.4364 91.6844 69.9228 92.84C69.666 93.2252 69.2808 93.6104 68.8956 93.6104C68.6388 93.6104 68.2536 93.2252 68.1252 92.84C66.4559 89.6299 64.9151 86.4198 63.2458 83.2098C62.8606 82.5677 62.6038 81.7973 61.5766 81.6689C61.4482 81.6689 61.1914 81.1553 61.3198 80.8985C61.3198 80.7701 61.705 80.5133 61.9618 80.5133C63.1174 80.5133 64.2731 80.5133 65.4287 80.5133C65.6855 80.5133 65.9423 80.6417 66.3275 80.7701C66.1991 81.0269 65.9423 81.4121 65.8139 81.6689C65.8139 81.7973 65.5571 81.7973 65.3003 81.9257C66.7127 84.7506 68.1252 87.4471 69.5376 90.2719C69.9228 89.3731 70.308 88.7311 70.6932 87.9607C70.8216 87.7039 70.8216 87.3187 70.6932 87.0619C69.9228 85.521 69.1524 83.9802 68.382 82.4393C68.2536 82.0541 67.74 81.9257 67.3547 81.6689C67.0979 81.4121 66.9695 81.1553 66.8411 80.8985C67.0979 80.7701 67.3547 80.5133 67.6116 80.5133C68.7672 80.5133 69.7944 80.5133 70.95 80.5133C71.2069 80.5133 71.7205 80.6417 71.7205 80.7701C71.8489 81.1553 71.8489 81.6689 71.2068 81.6689C71.0784 81.6689 71.0784 81.7973 70.8216 81.9257C71.2068 82.8245 71.5921 83.8518 72.1057 84.7506C72.2341 84.7506 72.2341 84.7506 72.3625 84.7506C72.7477 83.9802 73.1329 83.2098 73.3897 82.4393C73.3897 82.3109 73.1329 81.9257 72.8761 81.6689C72.7477 81.4121 72.4909 81.1553 72.2341 80.8985C72.4909 80.7701 72.8761 80.5133 73.1329 80.5133C74.1601 80.3849 75.059 80.5133 76.0862 80.3849C76.343 80.3849 76.7282 80.2565 76.5998 80.8985C76.4714 81.1553 76.343 81.5405 76.2146 81.5405C75.3158 81.6689 74.9306 82.4393 74.5453 83.0814C74.0317 84.1086 73.5181 85.1358 73.0045 86.163C72.8761 86.4198 72.8761 86.805 73.0045 87.0619C73.5181 88.0891 74.0317 88.9879 74.5453 90.1435C75.701 87.5755 76.7282 85.1358 77.7554 82.5677C77.8838 82.3109 77.7554 81.7973 77.4986 81.6689C77.3702 81.2837 76.8566 81.1553 76.5998 80.8985Z" fill="#727272"/>
<path d="M54.5144 80.2565C57.5961 80.2565 60.8062 82.8245 60.8062 86.9335C60.8062 90.7856 57.8529 93.6104 54.5144 93.6104C50.9191 93.6104 48.2227 90.6572 48.2227 86.9335C48.2227 82.9529 51.3043 80.2565 54.5144 80.2565ZM58.2381 87.1903C58.3665 87.1903 58.3665 87.1903 58.4949 87.0619C58.1097 85.9062 57.8529 84.6222 57.3393 83.595C56.1837 81.4121 53.4872 81.0269 52.0748 82.6961C50.2771 84.879 50.5339 89.1163 52.46 91.0424C53.8724 92.4548 55.7985 92.3264 57.0825 90.914C57.9813 89.8867 58.2381 88.6027 58.2381 87.1903Z" fill="#727272"/>
<path d="M153.899 87.5756C153.899 88.8596 153.899 90.0152 153.899 91.1709C153.899 91.4277 154.284 91.6845 154.412 91.6845C155.183 91.6845 156.081 91.6845 156.852 91.6845C157.879 91.6845 158.393 91.0425 158.778 90.1436C158.906 89.8868 159.292 89.5016 159.677 89.5016C160.062 89.3732 160.319 89.63 160.19 90.272C159.805 91.2993 159.548 92.1981 159.163 93.3537C157.622 93.3537 156.081 93.3537 154.412 93.3537C153.128 93.3537 151.973 93.3537 150.689 93.3537C150.432 93.3537 150.175 93.0969 149.918 92.8401C150.175 92.5833 150.303 92.0697 150.56 92.0697C151.202 91.9413 151.331 91.5561 151.331 91.0425C151.331 88.2176 151.331 85.3927 151.331 82.5678C151.331 82.0542 151.202 81.669 150.56 81.5406C150.303 81.5406 150.046 81.027 149.918 80.7702C150.175 80.6418 150.432 80.2566 150.689 80.2566C153.128 80.1282 155.568 80.1282 158.008 79.9998C158.65 79.9998 158.906 80.1282 158.906 80.7702C158.906 81.2838 159.163 81.9258 159.292 82.4394C159.292 82.6962 159.163 82.953 159.035 83.3382C158.778 83.2098 158.393 83.0814 158.136 82.953C157.751 82.5678 157.494 81.9258 157.109 81.7974C156.081 81.669 155.054 81.669 154.027 81.7974C153.899 81.7974 153.77 82.1826 153.77 82.311C153.77 83.4666 153.77 84.6223 153.77 85.9063C154.541 85.9063 155.183 86.0347 155.953 85.9063C156.338 85.7779 156.595 85.3927 156.98 85.1359C157.237 84.8791 157.494 84.6223 157.751 84.6223C158.008 84.6223 158.264 85.0075 158.264 85.2643C158.393 86.1631 158.264 87.1903 158.264 88.0892C158.264 88.346 158.008 88.7312 157.879 88.7312C157.622 88.7312 157.109 88.6028 157.109 88.4744C156.852 87.0619 155.825 87.4472 155.054 87.4472C154.669 87.5756 154.284 87.5756 153.899 87.5756Z" fill="#727272"/>
<path d="M90.9809 88.4743C90.4673 88.3459 90.0821 88.3459 89.8253 88.2175C89.5685 88.0891 89.3117 87.7039 89.4401 87.5755C89.4401 87.4471 89.8253 87.0619 90.0821 87.0619C91.4945 87.0619 93.0354 87.0619 94.4478 87.0619C94.7046 87.7039 94.5762 88.0891 93.9342 88.3459C93.6774 88.4743 93.2922 88.8595 93.2922 89.2447C93.2922 90.0152 93.4206 90.7856 93.549 91.556C93.549 91.8128 93.4206 92.198 93.1638 92.4548C90.2105 94.5093 85.0744 93.6105 83.0199 90.6572C81.6075 88.7311 81.6075 85.3926 83.0199 83.3382C84.5607 81.0269 87.0004 79.9997 89.5685 80.3849C90.4673 80.5133 91.2377 80.7701 92.1365 80.8985C93.0354 81.0269 93.2922 81.5405 93.2922 82.311C93.2922 82.8246 93.4206 83.2098 93.2922 83.7234C93.2922 83.9802 93.0354 84.3654 92.7786 84.3654C92.5218 84.3654 92.1365 84.237 92.0081 83.9802C91.6229 83.0814 91.2377 82.311 90.3389 82.0542C89.4401 81.7973 88.5412 81.669 87.7708 81.7974C86.23 82.0542 84.8175 83.8518 84.5607 85.7779C84.4323 87.3187 84.6891 88.7311 85.588 89.8868C87.1288 91.9412 88.4128 91.9412 90.5957 91.6844C90.8525 91.6844 91.1093 91.2992 91.1093 91.0424C90.9809 90.272 90.9809 89.3732 90.9809 88.4743Z" fill="#727272"/>
<path d="M10.0867 91.556C10.0867 90.5288 9.95833 89.5016 9.95833 88.4743C9.57312 88.3459 9.31631 88.4743 9.0595 88.2175C8.8027 88.0891 8.67429 87.8323 8.41749 87.5755C8.67429 87.4471 8.9311 87.0619 9.18791 87.0619C10.6003 87.0619 12.0128 87.0619 13.5536 87.0619C13.8104 87.7039 13.8104 88.0891 13.04 88.3459C12.7832 88.4743 12.398 88.8595 12.398 89.1163C12.398 89.8868 12.5264 90.6572 12.5264 91.4276C12.5264 91.6844 12.398 92.198 12.2696 92.3264C9.70152 93.6105 4.69379 94.3809 2.12572 90.6572C0.713278 88.6027 0.584874 85.3927 1.99731 83.2098C3.40975 81.0269 5.97782 79.7429 8.54589 80.2565C9.57312 80.5133 10.6003 80.6417 11.6276 80.8985C11.8844 81.0269 12.1412 81.2837 12.1412 81.5405C12.2696 82.1826 12.2696 82.8246 12.1412 83.4666C12.1412 83.7234 11.756 84.1086 11.6276 84.1086C11.3708 84.1086 10.9856 83.8518 10.8572 83.595C9.70152 81.2837 6.74824 80.7701 4.95059 82.5678C2.63933 84.7506 2.89614 88.9879 5.3358 90.914C6.61984 91.9412 8.41749 92.198 10.0867 91.556Z" fill="#727272"/>
<path d="M174.443 81.9258C173.93 81.4122 172.902 81.7974 173.159 80.7701C173.288 79.7429 174.186 80.3849 174.572 80.3849C175.599 80.2565 176.498 80.2565 177.525 80.2565C177.782 80.2565 178.039 80.5133 178.167 80.6417C178.039 80.8985 177.91 81.4122 177.653 81.4122C176.883 81.5406 176.754 82.0542 176.754 82.6962C176.754 84.3654 176.754 86.1631 176.754 87.8323C176.754 88.4743 176.883 89.1164 177.14 89.7584C177.653 91.1708 178.809 91.8128 180.35 91.556C181.505 91.4276 182.533 90.4004 182.533 89.1164C182.661 86.8051 182.661 84.4938 182.533 82.1826C182.533 81.9258 182.019 81.669 181.762 81.5406C181.249 81.4121 180.863 81.2837 181.12 80.7701C181.249 80.5133 181.634 80.3849 181.891 80.3849C183.046 80.3849 184.202 80.2565 185.358 80.3849C185.614 80.3849 185.871 80.6417 186 80.7701C185.871 81.0269 185.743 81.5406 185.486 81.5406C184.33 81.5406 184.33 82.311 184.33 83.2098C184.202 85.5211 184.202 87.8323 183.945 90.1436C183.688 91.9412 182.404 92.9685 180.735 93.2253C179.965 93.3537 179.066 93.3537 178.167 93.2253C175.984 92.8401 174.7 91.4276 174.443 89.2448C174.315 87.3187 174.315 85.2643 174.186 83.2098C174.315 82.8246 174.443 82.311 174.443 81.9258Z" fill="#727272"/>
<path d="M26.3941 93.3537C24.9816 93.3537 23.5692 93.3537 22.0284 93.3537C21.8999 93.3537 21.5147 93.0969 21.5147 92.9685C21.5147 92.7117 21.6431 92.4549 21.7715 92.1981C21.9 92.0697 22.1568 92.0697 22.6704 91.8129C22.2852 90.7857 22.0284 89.8868 21.6431 88.8596C21.6431 88.7312 21.2579 88.6028 21.0011 88.6028C20.1023 88.6028 19.2035 88.6028 18.1762 88.6028C17.791 89.63 17.4058 90.6573 17.0206 91.6845C17.5342 92.0697 18.6899 91.9413 18.3047 92.8401C18.1762 93.0969 17.2774 93.0969 16.7638 93.2253C15.9934 93.2253 15.3514 93.3537 14.581 93.2253C14.3241 93.2253 14.0673 92.8401 13.6821 92.7117C13.9389 92.4549 14.0673 92.1981 14.3241 91.9413C14.7094 91.5561 15.223 91.2993 15.4798 90.7857C16.7638 87.704 17.9194 84.6223 19.0751 81.5406C19.2035 81.2838 19.2035 80.8986 19.4603 80.7702C19.7171 80.5134 20.1023 80.1282 20.3591 80.1282C20.6159 80.1282 21.0011 80.5134 21.0011 80.8986C22.2852 84.2371 23.5692 87.5756 24.8532 90.9141C24.9816 91.2993 25.3668 91.6845 25.7521 91.9413C26.5225 92.3265 26.6509 92.5833 26.3941 93.3537ZM21.0011 87.062C20.6159 86.0347 20.3591 85.2643 19.9739 84.2371C19.5887 85.2643 19.2035 86.1631 18.9467 87.062C19.5887 87.062 20.2307 87.062 21.0011 87.062Z" fill="#727272"/>
<path d="M117.817 93.3536C116.533 93.3536 115.249 93.3536 113.965 93.3536C113.708 93.3536 113.323 93.0968 113.066 92.9684C113.323 92.7116 113.452 92.4548 113.708 92.0696C113.708 92.0696 113.837 91.9412 114.222 91.8128C113.965 90.914 113.58 89.8867 113.323 88.8595C113.323 88.7311 113.066 88.6027 112.938 88.6027C111.911 88.6027 111.012 88.6027 109.985 88.6027C109.856 88.6027 109.728 88.7311 109.728 88.8595C109.343 89.7583 109.086 90.6572 108.701 91.556C108.829 91.6844 108.829 91.8128 108.957 91.8128C109.471 91.9412 110.242 91.9412 110.113 92.84C109.985 93.6104 109.343 93.2252 108.829 93.2252C107.93 93.2252 107.031 93.2252 106.133 93.2252C105.876 93.2252 105.491 92.9684 105.491 92.7116C105.491 92.4548 105.747 92.0696 105.876 92.0696C106.775 91.9412 107.031 91.2992 107.288 90.6571C108.444 87.7039 109.6 84.6222 110.755 81.6689C110.884 81.4121 110.884 81.0269 111.14 80.7701C111.397 80.5133 111.782 80.2565 112.039 80.2565C112.296 80.2565 112.553 80.6417 112.681 80.8985C113.965 84.237 115.249 87.5755 116.533 90.914C116.662 91.2992 117.175 91.556 117.561 91.9412C117.817 92.198 118.074 92.5832 118.331 92.84C118.074 93.2252 117.946 93.2252 117.817 93.3536ZM111.397 84.237C111.012 85.2642 110.627 86.163 110.242 87.0619C111.012 87.0619 111.654 87.0619 112.424 87.0619C112.168 86.163 111.911 85.2642 111.397 84.237Z" fill="#727272"/>
<path d="M167.638 93.3536C164.813 93.482 162.502 92.0695 161.474 89.5015C160.447 86.9334 161.218 83.7233 163.144 81.9257C164.941 80.2564 167.124 79.9996 169.435 80.2564C170.206 80.3848 170.848 80.5132 171.618 80.5132C172.132 80.5132 172.389 80.77 172.389 81.2836C172.389 81.9257 172.389 82.6961 172.389 83.3381C172.389 83.5949 172.004 83.9801 171.747 84.1085C171.618 84.1085 171.105 83.8517 170.976 83.5949C169.949 81.412 167.124 80.77 165.198 82.4393C163.144 84.2369 162.887 88.2174 164.685 90.2719C165.969 91.6843 167.509 92.0695 169.307 91.5559C170.334 91.2991 170.848 90.5287 171.233 89.6299C171.362 89.1163 171.618 88.731 172.26 88.9879C172.902 89.2447 172.774 89.6299 172.646 90.0151C172.132 92.5831 171.49 93.0968 168.793 93.0968C168.408 93.3536 168.023 93.3536 167.638 93.3536Z" fill="#727272"/>
<path d="M135.537 83.2098C135.28 83.595 135.152 84.1086 134.767 84.237C134.125 84.4938 133.996 83.8518 133.739 83.3382C133.482 82.8245 132.969 82.1825 132.455 81.9257C131.813 81.5405 130.914 81.5405 130.401 82.3109C129.887 82.9529 130.016 84.1086 130.658 84.6222C131.428 85.1358 132.198 85.6494 132.969 86.163C133.482 86.5482 133.996 86.805 134.51 87.1903C136.693 88.9879 136.307 91.8128 133.868 93.0968C132.07 93.9956 130.144 93.482 128.346 92.9684C128.218 92.9684 127.961 92.5832 127.961 92.3264C127.833 91.6844 127.704 91.0424 127.576 90.4003C127.576 90.0151 127.833 89.6299 127.961 89.2447C128.346 89.5015 128.86 89.6299 128.988 90.0151C129.63 91.556 130.401 92.198 131.685 92.0696C132.455 92.0696 133.226 91.6844 133.482 90.914C133.739 90.0151 133.482 89.2447 132.712 88.7311C131.685 88.0891 130.529 87.4471 129.502 86.805C127.704 85.521 127.319 83.595 128.346 82.0541C129.117 80.8985 130.272 80.3849 131.556 80.2565C131.942 80.2565 132.455 80.2565 132.84 80.3849C135.28 80.7701 135.28 80.7701 135.537 83.2098Z" fill="#727272"/>
<path d="M126.163 82.5679C126.163 83.0815 126.163 83.3383 126.163 83.4667C126.035 83.7235 125.778 84.1087 125.778 84.1087C125.521 84.1087 125.136 83.8519 124.879 83.5951C124.623 83.2099 124.494 82.6962 124.237 82.311C123.595 81.4122 122.183 81.2838 121.541 81.9258C120.771 82.5679 120.899 83.8519 121.798 84.6223C122.825 85.3927 123.852 86.0347 125.008 86.6768C126.163 87.4472 127.062 88.346 126.805 89.8868C126.549 92.0697 124.494 93.6105 122.055 93.2253C121.926 93.2253 121.798 93.2253 121.669 93.2253C118.844 92.7117 118.844 92.7117 118.588 89.8868C118.588 89.63 118.844 89.3732 118.973 88.988C119.358 89.1164 119.743 89.2448 120 89.5016C120.128 89.63 120.128 90.0153 120.257 90.1437C120.771 91.2993 121.798 91.9413 122.953 91.8129C123.724 91.6845 124.366 91.4277 124.494 90.6573C124.623 89.8868 124.623 89.1164 123.852 88.6028C122.953 87.9608 121.926 87.4472 121.027 86.9336C119.101 85.7779 118.588 84.1087 119.23 82.4394C119.872 80.7702 121.926 79.8714 123.852 80.1282C123.981 80.1282 124.109 80.2566 124.366 80.2566C126.035 80.7702 126.163 80.8986 126.163 82.5679Z" fill="#727272"/>
<path d="M148.891 83.0814C148.762 83.3382 148.762 84.1086 148.377 84.237C147.607 84.6222 147.478 83.7234 147.222 83.2098C146.836 82.4394 146.451 81.9257 145.552 81.7973C144.91 81.6689 144.268 81.7973 143.883 82.4394C143.498 83.2098 143.626 83.8518 144.14 84.4938C144.654 85.0074 145.296 85.3926 145.938 85.7778C146.58 86.1631 147.222 86.5483 147.864 87.0619C149.019 87.8323 149.79 88.8595 149.533 90.4004C149.276 91.9412 148.249 92.9684 146.708 93.4821C145.039 93.9957 143.498 93.482 141.957 93.0968C141.829 93.0968 141.7 92.9684 141.7 92.9684C141.572 91.8128 141.315 90.7856 141.315 89.6299C141.315 89.2447 142.214 89.2447 142.599 89.7584C142.728 90.0152 142.856 90.272 142.984 90.5288C143.498 91.6844 144.397 92.198 145.552 92.198C146.323 92.198 146.965 91.9412 147.222 91.1708C147.478 90.4004 147.35 89.5015 146.58 88.9879C145.938 88.6027 145.296 88.2175 144.654 87.8323C144.268 87.5755 143.755 87.3187 143.37 87.0619C141.957 86.0347 141.315 84.6222 141.7 83.0814C142.085 81.6689 143.626 80.5133 145.167 80.5133C146.194 80.5133 147.222 80.7701 148.249 81.0269C148.377 81.0269 148.634 81.2837 148.634 81.5405C148.762 81.7973 148.762 82.311 148.891 83.0814Z" fill="#727272"/>
<path d="M205.003 80.2565C208.855 80.2565 212.579 80.2565 216.303 80.2565C216.431 81.1553 216.56 82.0541 216.688 82.9529C216.688 83.0813 216.431 83.4666 216.174 83.4666C215.918 83.4666 215.532 83.3382 215.404 83.0814C215.147 82.6961 214.89 82.0541 214.633 81.9257C213.863 81.6689 213.093 81.7973 212.322 81.7973C212.194 81.7973 211.937 82.1825 211.937 82.4393C211.937 85.3926 211.937 88.3459 211.937 91.2992C211.937 91.556 212.322 91.9412 212.579 91.9412C213.349 92.0696 213.478 92.4548 213.221 93.2252C211.809 93.2252 210.268 93.2252 208.727 93.2252C208.599 93.2252 208.213 92.9684 208.213 92.84C208.213 92.5832 208.342 92.3264 208.47 92.198C208.727 92.0696 209.112 92.0696 209.369 91.9412C209.369 88.6027 209.369 85.2642 209.369 81.9257C208.727 81.9257 208.213 81.9257 207.571 81.9257C206.672 81.7973 206.159 82.1825 205.902 82.9529C205.774 83.2097 205.388 83.3382 205.132 83.595C205.003 83.2097 204.618 82.9529 204.746 82.5677C204.618 81.7973 204.875 81.0269 205.003 80.2565Z" fill="#727272"/>
<path d="M221.054 81.7973C221.696 83.0814 222.466 84.3654 223.236 85.7778C224.007 84.3654 224.777 83.0814 225.676 81.7973C225.291 81.6689 224.906 81.6689 224.649 81.5405C224.392 81.4121 224.264 81.0269 224.264 80.8985C224.264 80.7701 224.649 80.5133 224.906 80.5133C226.061 80.5133 227.345 80.5133 228.501 80.5133C228.758 80.5133 229.143 80.7701 229.143 80.8985C229.143 81.1553 228.886 81.6689 228.758 81.6689C227.731 81.7973 227.345 82.4394 226.832 83.2098C226.447 83.9802 226.061 84.6222 225.548 85.2642C224.007 87.1903 224.135 89.3731 224.264 91.556C224.264 91.8128 224.649 92.0696 224.906 92.3264C225.163 92.5832 225.291 92.84 225.548 93.0968C225.291 93.2252 225.034 93.4821 224.777 93.4821C223.622 93.4821 222.466 93.4821 221.31 93.4821C221.054 93.4821 220.797 93.2252 220.412 92.9684C220.668 92.7116 220.797 92.4548 221.054 92.3264C221.567 92.198 221.696 91.9412 221.824 91.4276C222.081 89.3731 221.952 87.4471 220.668 85.7778C220.155 85.0074 219.641 84.1086 219.256 83.2098C218.871 82.4394 218.357 81.7973 217.458 81.6689C217.202 81.6689 217.202 81.1553 216.945 80.8985C217.202 80.7701 217.458 80.5133 217.715 80.5133C218.999 80.5133 220.283 80.5133 221.567 80.5133C221.824 80.5133 222.081 80.7701 222.338 80.7701C222.081 81.0269 221.952 81.2837 221.696 81.5405C221.567 81.6689 221.31 81.6689 221.054 81.7973Z" fill="#727272"/>
<path d="M30.6312 81.7973C30.6312 84.879 30.6312 87.9607 30.6312 91.0424C30.6312 91.6844 30.888 91.9412 31.53 91.8128C32.0436 91.8128 32.6856 91.8128 33.1992 91.8128C34.3549 91.8128 35.2537 91.4276 35.6389 90.1435C35.7673 89.8867 36.1525 89.6299 36.4093 89.5015C36.9229 89.3731 37.1797 89.6299 37.0513 90.2719C36.6661 91.1708 36.4093 92.198 36.0241 93.2252C34.0981 93.2252 32.172 93.2252 30.2459 93.2252C29.3471 93.2252 28.5767 93.2252 27.6779 93.2252C27.4211 93.2252 27.1643 92.9684 26.9075 92.84C27.0359 92.5832 27.2927 92.0696 27.4211 92.0696C28.1915 92.0696 28.1915 91.6844 28.1915 91.0424C28.1915 88.2175 28.1915 85.3926 28.1915 82.4393C28.1915 81.9257 28.0631 81.5405 27.4211 81.4121C27.1643 81.2837 26.9075 81.0269 26.7791 80.7701C26.7791 80.2565 27.1643 80.2565 27.5495 80.2565C28.7051 80.2565 29.8607 80.2565 31.1448 80.2565C31.4016 80.2565 31.6584 80.5133 31.9152 80.6417C31.7868 80.8985 31.53 81.2837 31.4016 81.4121C31.2732 81.6689 31.0164 81.6689 30.6312 81.7973Z" fill="#727272"/>
<path d="M104.206 93.3537C101.381 93.3537 98.4282 93.3537 95.6033 93.3537C95.3465 93.3537 95.0897 92.9684 95.0897 92.84C95.0897 92.5832 95.3465 92.198 95.4749 92.198C96.3737 92.198 96.3737 91.6844 96.3737 91.0424C96.3737 88.0891 96.3737 85.0074 96.3737 81.9257C95.9885 81.7973 95.6033 81.7973 95.3465 81.6689C95.0897 81.5405 94.9613 81.1553 94.9613 80.8985C94.9613 80.7701 95.3465 80.5133 95.4749 80.5133C96.759 80.5133 98.1714 80.5133 99.4554 80.5133C99.5838 80.5133 99.969 80.7701 99.969 80.8985C99.969 81.1553 99.8406 81.5405 99.5838 81.6689C99.327 81.7973 99.0702 81.9257 98.685 81.9257C98.685 85.0074 98.685 88.2175 98.685 91.2992C98.685 91.556 99.0702 91.9412 99.1986 91.9412C99.969 92.0696 100.739 91.9412 101.638 91.9412C102.794 91.9412 103.308 91.2992 103.693 90.272C103.821 90.0152 104.078 89.7584 104.335 89.6299C104.848 89.5015 105.234 89.7584 104.977 90.4004C104.977 91.2992 104.592 92.3264 104.206 93.3537Z" fill="#727272"/>
<path d="M46.6817 93.3537C43.8568 93.3537 40.9035 93.3537 38.0787 93.3537C37.8219 93.3537 37.4366 92.9684 37.4366 92.84C37.4366 92.5832 37.8219 92.198 37.9503 92.198C38.8491 92.198 38.8491 91.6844 38.8491 91.0424C38.8491 88.3459 38.8491 85.6494 38.8491 83.0814C38.8491 82.311 38.7207 81.7973 37.8219 81.6689C37.6935 81.6689 37.4366 81.1553 37.4366 81.0269C37.4366 80.8985 37.8219 80.5133 38.0787 80.5133C39.3627 80.5133 40.6467 80.5133 41.9308 80.5133C42.1876 80.5133 42.5728 80.7701 42.4444 80.8985C42.4444 81.1553 42.1876 81.6689 42.0592 81.6689C41.1603 81.7973 41.0319 82.311 41.0319 83.0814C41.0319 85.6494 41.0319 88.3459 41.0319 90.914C41.0319 91.2992 41.1603 91.6844 41.1603 92.0696C42.0592 92.0696 42.958 92.0696 43.8568 92.0696C44.884 92.0696 45.6545 91.556 46.0397 90.5288C46.1681 90.272 46.5533 89.8868 46.9385 89.8868C47.3237 89.7583 47.7089 90.0152 47.4521 90.5288C47.3237 91.2992 47.0669 92.3264 46.6817 93.3537Z" fill="#727272"/>
</svg>
