<?xml version="1.0" encoding="utf-8"?>
<!-- Generator: Adobe Illustrator 25.4.1, SVG Export Plug-In . SVG Version: 6.00 Build 0)  -->
<svg version="1.1" id="Layer_1" xmlns="http://www.w3.org/2000/svg" xmlns:xlink="http://www.w3.org/1999/xlink" x="0px" y="0px"
	 viewBox="0 0 1000 1000" style="enable-background:new 0 0 1000 1000;" xml:space="preserve">
<style type="text/css">
	.st0{fill-rule:evenodd;clip-rule:evenodd;fill:#1A1A18;}
	.st1{fill:#BC2313;}
</style>
<path class="st0" d="M358.8,592.7c-5.2,1.8-10.4,3.6-15.5,5.4c-47.9,17.3-89.4,37-123,57.6c30.6-30.8,80-61.3,143.9-86.4
	C362.1,578.3,360.3,586.5,358.8,592.7 M619.4,518c71.7-0.8,131.6,12.2,162.9,39.2c31.3,27,28.2,62.9-2,99.4
	c12.1-28.8,7-55.6-16.4-75.6c-28-24-82.8-35.4-150.4-34.7C615,537.2,617.1,527.5,619.4,518z M448,542.1
	c31.9-8.4,63.8-14.6,94.8-18.6c-0.6,9.2,0.1,18.5,1.2,27.2c-39.1,4.4-80.4,12.1-122,23C429.2,563.6,438.4,552.5,448,542.1z"/>
<path class="st0" d="M247.6,681.7v191.5h505.6V681.7H247.6z M851.3,758.4h-82.8v130.3l-71.4,39.5l46.9-39.5h-68.1v56.4h175.4
	L826.6,853L851.3,758.4z M149.3,758.4h82.9v130.3l71.5,39.5l-46.9-39.5h68v56.4H149.3L174,853L149.3,758.4z"/>
<path class="st0" d="M270.1,400.8l7.8,24.2l25.4,0l-20.6,14.9l7.9,24.2l-20.6-15l-20.6,15l7.9-24.2L236.8,425l25.5,0L270.1,400.8z
	 M730.5,400.8l7.8,24.2l25.5,0l-20.6,14.9l7.9,24.2l-20.6-15l-20.6,15l7.9-24.2L697.3,425l25.5,0L730.5,400.8z"/>
<path class="st0" d="M460.2,317.3c21-71.8-16-120.8,49.1-179.6c-1.9-15.2-4.3-39.7,2.2-55.9c10.8-26.9,32.4-31.3,51.9-22.9
	c24.6,10.6,21.9,35.7,12.3,58.5c-4.5,10.5-8.7,19.1-17.4,26.7c-2.5,2.2-12.5-0.3-21-7.2c3.1,8.2,18.2,18.8,21.4,16.4
	c1.1-0.8,2.2-1.7,3.4-2.7c3.6,15.4,13.4,41.6,27.5,67.6c5.3,9.8,31.1-1.3,49.6-5.7c4.3-0.7,11.9-21.7,19.8-25.4
	c22.1-10.4,36.9-6.3,43.1,13.3c2.2,7.1-2.5,26.1-17.7,29.6c-6.8,1.6-32.5,5.1-35.4,6.6c-12.2,6.2-70.2,34.7-80.3,26.4
	c-17.6-14.9-25.4-36-36.7-56.2c0.6,5.6,8.9,34.1,20.8,57.9c-0.6,15.3-2.2,28-2.7,43.1c-12.4,2.3-27.2,3.9-34,4.9
	c2.9,1.7,19.1,5.8,34.3,5c17.1,33.1,35.5,76.7,51.1,107.4c2.1,2.9-0.1,5.2,1.8,8.2c13.2,20.4,17,32,13.3,46.8
	c-7.1,28.9-11.7,70.6-24,108.4c-2.8,8.8-6.1,23.7-7.6,31.3c-0.2,0.8,5.7,0.1,7.6,4.5c1.1,2.6,0.9,4.3,0.9,6.6
	c-0.3,10.3,36.7,14.8,47.6,26c3.6,3.7,1.9,12.5-5.2,12.5c-11.1,0-73.5,0.2-79.7,0c-10-0.3-5.1-30.6-1.8-40.7c0.7-2.1,2.1-4.9,2.7-7
	c9.5-36.8-8.8-69.2-2.7-104c3.4-19.2,9.3-34.7,4.7-41.8c-2.8-4.3-6.3-6.3-7.5-6c-2.5,0.5-10.8,2.6-12.7,1
	c-8.5-7.5-13.2-13.3-16.1-17.4c8.2-27.5,11.5-60.8,11-66.7c-10.7,33.4-19.8,67.7-35.5,99.2c-1.3,1.6-8.6-0.1-10.2,1.4
	c-32.9,32.9-74.4,70.4-94.5,112.8c-4.9,10.4-6.2,16-7,24.2c-0.5,5.4,3.1,6.2,3.8,10c0.8,3.9-1.7,7.6,1.3,11
	c5.6,6.3,7.5,10.7,7.6,17.7c0.1,6.4-7,6.8-11.1,6.8c-5.7,0-17.4,0-31.7,0c-4.9,0-9.2-0.6-9.2-6.2c0-12.4,8.8-22.6,13.1-40.6
	c11.2-46.7,32.5-131.3,76.4-151.4c1-2.9-9.8-12-8.6-14.7C449.2,410.9,430.5,364.8,460.2,317.3 M592.8,210.6
	c6-4.6,11.4-9.2,15.8-13.4c2.3-2.2,25.3-13.7,31.2-17.1c13.1-7.6,12.1-26.1,8-31.8c-11.4-15.9-26.3-15.3-43.8,0.4
	c-6.2,5.6-6.9,28-10.7,29.9c-3.4,1.7-7.7,4-11.4,5.8C585.3,193.5,589.1,202.3,592.8,210.6z"/>
<polygon class="st1" points="302.5,749.5 302.5,704.2 313.9,704.2 313.9,696.6 280.4,696.6 280.4,704.2 291.7,704.2 291.7,749.5 "/>
<polygon class="st1" points="447.2,749.5 434.1,716.1 447,696.6 436,696.6 422.4,719.4 422.4,696.6 411.6,696.6 411.6,749.5 
	422.4,749.5 422.4,733.6 427,726.6 435.9,749.5 "/>
<polygon class="st1" points="329.9,749.5 329.9,725.7 341.5,725.7 341.5,749.5 352.4,749.5 352.4,696.6 341.5,696.6 341.5,718.2 
	329.9,718.2 329.9,696.6 319.1,696.6 319.1,749.5 "/>
<polygon class="st1" points="390,749.5 390,742 371.3,742 371.3,725.7 386.2,725.7 386.2,718.2 371.3,718.2 371.3,704.2 390,704.2 
	390,696.6 360.5,696.6 360.5,749.5 "/>
<polygon class="st1" points="462,749.5 462,710.9 475.4,749.5 486.3,749.5 486.3,696.6 476.7,696.6 476.7,728.3 465.7,696.6 
	452.3,696.6 452.3,749.5 "/>
<path class="st1" d="M515.7,737.5c0,3.5-1.9,5.2-5.6,5.2c-3.7,0-5.6-1.7-5.6-5.2v-28.9c0-3.5,1.9-5.2,5.6-5.2c3.7,0,5.6,1.7,5.6,5.2
	V737.5z M493.6,737c0,8.5,5.8,13.3,16.4,13.3s16.4-4.8,16.4-13.3v-27.8c0-8.5-5.8-13.3-16.4-13.3s-16.4,4.8-16.4,13.3V737z"/>
<path class="st1" d="M533,737.3c0,8.2,5.6,13,16,13c10.3,0,16-4.8,16-13v-7.1h-10.2v7.7c0,3.2-1.8,4.8-5.4,4.8
	c-3.6,0-5.4-1.6-5.4-4.8v-29.5c0-3.2,1.8-4.9,5.4-4.9c3.6,0,5.4,1.7,5.4,4.9v6.1h10.2v-5.6c0-8.2-5.6-13-16-13c-10.3,0-16,4.8-16,13
	V737.3z"/>
<polygon class="st1" points="607,749.5 593.9,716.1 606.8,696.6 595.7,696.6 582.1,719.4 582.1,696.6 571.3,696.6 571.3,749.5 
	582.1,749.5 582.1,733.6 586.8,726.6 595.6,749.5 "/>
<path class="st1" d="M631.9,737.5c0,3.5-1.9,5.2-5.6,5.2c-3.7,0-5.6-1.7-5.6-5.2v-28.9c0-3.5,1.9-5.2,5.6-5.2c3.7,0,5.6,1.7,5.6,5.2
	V737.5z M609.8,737c0,8.5,5.8,13.3,16.4,13.3c10.6,0,16.4-4.8,16.4-13.3v-27.8c0-8.5-5.8-13.3-16.4-13.3c-10.6,0-16.4,4.8-16.4,13.3
	V737z"/>
<path class="st1" d="M649.6,737c0,8.5,5.6,13.3,16.2,13.3c10.5,0,16.2-4.8,16.2-13.3v-40.4h-10.4v41c0,3.4-1.9,5.1-5.5,5.1
	c-3.6,0-5.5-1.7-5.5-5.1v-41h-10.8V737z"/>
<polygon class="st1" points="708.9,749.5 708.9,704.2 720.2,704.2 720.2,696.6 686.7,696.6 686.7,704.2 698.1,704.2 698.1,749.5 "/>
<path class="st1" d="M379.5,776.4L329.4,839h6.3c5.6,0,9.5-0.7,11.6-2.1c2.1-1.4,3.1-4.7,3.1-9.8v-9h30.1v43H280v-18.5l49.8-61.9
	h-5.4c-6.3,0-10.3,0.8-11.8,2.4c-1.5,1.6-2.3,5.3-2.3,11.2v5.1h-29.4v-40.8h98.6V776.4z"/>
<path class="st1" d="M434.6,833c0,3.3,0.7,5.5,2,6.5c1.3,1,3.3,1.5,6,1.5c2.3,0,4.3-0.5,5.7-1.6c1.5-1.1,2.2-3.2,2.2-6.4v-46.3
	c0-2.5-0.5-4.4-1.6-5.8c-1.1-1.4-3.2-2.1-6.4-2.1c-3,0-5,0.7-6.2,2.1c-1.2,1.4-1.8,3.3-1.8,5.8V833z M491.5,831.5
	c0,11.6-4,19.8-11.9,24.5c-7.9,4.7-20.3,7.1-37,7.1c-17.1,0-29.5-2.5-37.2-7.5c-7.7-5-11.6-13-11.6-24.1v-43.1
	c0-11.5,4-19.7,11.9-24.4c7.9-4.8,20.2-7.2,36.9-7.2c16.6,0,28.9,2.4,36.9,7.2c8,4.8,12,12.9,12,24.4V831.5z"/>
<path class="st1" d="M572.2,804.9v-18.1c0-3.4-0.3-5.6-0.8-6.8c-0.5-1.2-1.7-2.3-3.7-3.3v-18.2h42v18.2c-1.5,0.7-2.7,1.6-3.4,2.7
	c-0.7,1.1-1.1,3.5-1.1,7.3v74.2h-39.7l-24.5-46l-0.2,17.8v2.1c0,1.9,0.3,3.5,0.8,4.7c0.5,1.2,1.7,2.3,3.7,3.2v18.2h-40.6v-18.2
	c1.4-0.6,2.5-1.5,3.3-2.7c0.8-1.2,1.1-3.6,1.1-7.4v-46c0-3.1-0.3-5.3-0.8-6.6c-0.5-1.3-1.7-2.4-3.7-3.5v-18.2H549L572.2,804.9z"/>
<path class="st1" d="M720.6,824.1v37h-98.3v-18.2c1.6-0.7,2.8-1.7,3.5-3c0.7-1.3,1-3.6,1-7v-46v-1.6c0-2.2-0.3-4-0.8-5.2
	c-0.5-1.2-1.7-2.3-3.7-3.3v-18.2h98.3v34.8h-37.7v-3.1c0-4.5-1-7.3-3-8.3c-2-1.1-5.9-1.6-11.7-1.6v18.4h25.9v19.9h-25.9v20.7
	c6.5,0,10.6-0.6,12.3-1.9c1.6-1.3,2.5-4.6,2.5-10v-3.3H720.6z"/>
</svg>
