<svg xmlns="http://www.w3.org/2000/svg" enable-background="new 0 0 32 32" height="24" width="30" style=""><rect id="backgroundrect" width="100%" height="100%" x="0" y="0" fill="none" stroke="none"/><g class="currentLayer" style=""><title>Layer 1</title><g id="Layer_1" fill="#484848" class="selected" fill-opacity="1"><path d="m28,4 h-26 c-1.1045,0 -2,-0.8955000000000001 -2,-2 s0.8955000000000001,-2 2,-2 h26 c1.1045,0 2,0.8955000000000001 2,2 s-0.8955000000000001,2 -2,2 z" id="svg_1" fill="#484848" fill-opacity="1"/><path d="m28,24 h-26 c-1.1045,0 -2,-0.8955000000000001 -2,-2 s0.8955000000000001,-2 2,-2 h26 c1.1045,0 2,0.8955000000000001 2,2 s-0.8955000000000001,2 -2,2 z" id="svg_2" fill="#484848" fill-opacity="1"/><path d="m28,14 h-26 c-1.1045,0 -2,-0.8955000000000001 -2,-2 s0.8955000000000001,-2 2,-2 h26 c1.1045,0 2,0.8955000000000001 2,2 s-0.8955000000000001,2 -2,2 z" id="svg_3" fill="#484848" fill-opacity="1"/></g></g></svg>