<svg width="150" height="150" viewBox="0 0 150 150" fill="none" xmlns="http://www.w3.org/2000/svg">
<g clip-path="url(#clip0_2_885)">
<path fill-rule="evenodd" clip-rule="evenodd" d="M29.1194 66.7606C29.1194 86.2809 43.2796 102.521 63.92 102.521C84.4003 102.521 98.6406 86.3609 98.6406 66.7606C98.6406 46.0402 84.7203 31 63.92 31C43.0396 31 29.1194 46.0402 29.1194 66.7606ZM42.5596 66.7606C42.5596 53.8004 50.4797 41.1602 64 41.1602C77.3602 41.1602 85.2803 53.7204 85.2803 66.7606C85.2803 78.9208 78.7202 92.361 64 92.361C49.1197 92.361 42.5596 78.9208 42.5596 66.7606Z" fill="#727272"/>
<path d="M117.441 115.881V111.081H105.121C110.081 106.201 116.481 100.361 116.481 93.961C116.481 88.0409 112.801 85.1609 107.041 85.1609C104.001 85.1609 100.801 85.9609 98.0806 87.3209L98.5606 92.361C100.561 91.081 102.961 89.961 105.521 89.961C108.001 89.961 110.481 91.241 110.481 94.041C110.481 99.5611 100.241 108.201 97.3606 110.921V115.961L117.441 115.881Z" fill="#727272"/>
</g>
<defs>
<clipPath id="clip0_2_885">
<rect width="150" height="150" fill="white"/>
</clipPath>
</defs>
</svg>
