<svg width="200" height="200" viewBox="0 0 200 200" fill="none" xmlns="http://www.w3.org/2000/svg">
<g clip-path="url(#clip0_3_2)">
<path d="M88.7001 53.4C88.7001 49.6 88.7001 45.9 88.7001 42C96.3001 45.6 103.8 45.6 111.4 42C111.4 45.9 111.4 49.6 111.4 53.5C112.9 52.6 114.2 51.9 115.5 51.2C118.9 49.4 122.4 47.8 126.1 46.8C130.4 45.6 134.9 44.9 139.4 44.9C144.3 44.9 149.1 45.6 153.7 47.3C158 48.9 161.9 51.2 164.7 54.9C167 57.9 168.1 61.2 168.1 65C168.1 82.7 168.1 100.3 168.1 118C168.1 118.9 167.9 119.3 167 119.6C161.8 121.4 156.5 122.7 151 123.3C145.5 123.9 140.1 123.8 134.7 123C128.2 122.1 122 120.2 116.7 116.3C114.9 115 113.3 113.4 111.5 111.8C111.5 115.6 111.5 119.4 111.5 123.3C103.8 123.3 96.3001 123.3 88.7001 123.3C88.7001 119.4 88.7001 115.6 88.7001 111.6C87.7001 112.6 86.8001 113.5 85.9001 114.3C82.2001 117.7 77.8001 119.8 73.1001 121.3C66.5001 123.3 59.8001 123.9 53.0001 123.5C49.1001 123.3 45.3001 122.6 41.5001 121.9C39.3001 121.5 37.1001 120.8 35.0001 120.2C34.7001 120.1 34.4001 119.7 34.4001 119.5C34.4001 115.4 34.4001 111.3 34.4001 107C35.1001 107.3 35.7001 107.5 36.3001 107.7C41.9001 110 47.6001 111.7 53.7001 111.9C57.5001 112.1 61.2001 111.5 64.4001 109.3C67.4001 107.2 68.6001 103.6 67.3001 100.6C66.4001 98.6 65.0001 97 63.3001 95.8C59.1001 92.9 54.8001 90.2 50.5001 87.5C46.5001 84.9 42.4001 82.3 39.0001 79C35.3001 75.4 32.6001 71.3 32.1001 66.1C31.7001 61.7 32.8001 57.7 35.7001 54.3C39.2001 50.2 43.9001 47.9 49.0001 46.4C53.8001 45 58.7001 44.7 63.7001 44.9C69.7001 45.2 75.5001 46.7 80.9001 49.2C83.4001 50.5 85.9001 51.9 88.7001 53.4ZM111.4 87.7C112.2 87 112.8 86.4 113.5 85.8C117.8 82.3 122.6 79.8 127.5 77.3C131.4 75.2 135.4 73.3 139 70.6C140.8 69.2 142.5 67.7 143.5 65.6C144.8 62.9 144.1 60.5 141.6 58.9C140 57.8 138.2 57.4 136.3 57.2C132.2 56.8 128.3 57.7 124.6 59.1C120.2 60.8 116.3 63.2 112.6 66.1C111.6 66.9 111.3 67.7 111.3 68.9C111.3 74.6 111.3 80.3 111.3 86C111.3 86.6 111.4 87.1 111.4 87.7ZM88.7001 87.8C88.7001 87 88.7001 86.4 88.7001 85.8C88.7001 79.9 88.7001 74 88.7001 68.2C88.7001 67.5 88.5001 67.1 88.0001 66.8C85.8001 65.3 83.8001 63.6 81.5001 62.3C76.1001 59.1 70.5001 57 64.1001 57.4C62.1001 57.5 60.1001 58 58.4001 59.1C56.4001 60.4 55.6001 62.4 56.2001 64.8C56.8001 67 58.3001 68.6 60.0001 70C63.3001 72.8 67.2001 74.7 71.1001 76.7C77.2001 79.8 83.5001 82.7 88.7001 87.8ZM147.3 110.6C147.3 102 147.3 93.6 147.3 85.1C147.1 85.1 147 85.1 147 85.1C143.5 87 140 88.9 136.5 90.9C134.2 92.3 131.9 93.7 130 95.7C127.6 98.3 127.2 101.8 129.1 104.8C130.5 107.2 132.7 108.6 135.3 109.5C139.2 110.9 143.2 111.1 147.3 110.6Z" fill="#025B96"/>
<path d="M34.2 182.5C34.2 166.1 34.2 149.7 34.2 133.2C78.9 133.2 123.5 133.2 168.1 133.2C168.1 149.6 168.1 166 168.1 182.5C123.5 182.5 78.9 182.5 34.2 182.5ZM91.3 173.4C92 173.4 92.7 173.5 93.3 173.4C93.6 173.4 94 173 94 172.8C94.0999 171.9 94.0999 171 94.0999 170C94.0999 169.7 94.2 169.1 94.3 169.1C94.7 169 95.0999 169.1 95.5 169.2C95.7999 169.3 95.8999 169.6 96.0999 169.9C96.5 170.8 96.9 171.7 97.3 172.6C97.5 173.1 97.9 173.4 98.5 173.4C99.7 173.3 100.9 173.3 102.1 173.4C103.2 173.5 103.7 173.1 103.9 172.1C104 171.4 104.4 171.1 105.2 171.1C106.1 171.2 107 171.2 107.9 171.1C108.8 171 109.2 171.4 109.4 172.2C109.5 172.6 109.8 173.1 110.1 173.2C110.9 173.4 111.8 173.3 112.7 173.4C112.6 173.1 112.6 172.9 112.5 172.8C111.3 170 110.1 167.3 108.9 164.5C107.9 162.2 107.9 162.3 105.4 162.3C105.3 162.3 105.3 162.3 105.2 162.3C105 162.4 104.7 162.5 104.6 162.7C104.1 164 103.6 165.3 103.1 166.6C102.3 168.7 101.4 170.8 100.6 173C99.7999 171.3 98.8999 169.7 98.0999 168C98.1999 167.9 98.3 167.8 98.5 167.6C99.4 166.8 99.7 165.9 99.3999 164.7C99.0999 163.5 98.2999 162.5 97.0999 162.4C95.1999 162.2 93.1999 162.3 91.1999 162.3C91.2999 166 91.3 169.7 91.3 173.4ZM107.3 142.3C106.8 142.4 106.1 142.4 105.5 142.5C102.5 143.2 100.4 144.9 99.5999 147.8C98.7999 150.6 99.7 153 101.7 154.9C104.3 157.4 109.2 157.8 112.3 155.7C114.6 154.2 115.9 152 115.8 149.2C115.4 145.1 111.8 142.3 107.3 142.3ZM146.4 149.7C146.4 151.8 146.4 154 146.4 156.1C146.4 156.6 146.5 156.9 147.1 156.9C149.5 156.8 151.8 156.9 154.2 156.7C155.9 156.6 157.4 156 158.6 154.8C160.7 152.7 161.1 150.2 160.4 147.4C159.6 144.6 157.5 143 154.7 142.6C152.2 142.3 149.7 142.5 147.2 142.4C146.6 142.4 146.5 142.7 146.5 143.2C146.4 145.4 146.4 147.5 146.4 149.7ZM89.5 151.1C90.9 150.9 91.7 151.3 92.3 152.5C92.9 153.7 93.4 155 94 156.2C94.0999 156.5 94.3999 156.8 94.6999 156.9C95.8999 157 96.9999 156.9 98.1999 156.9C97.8999 155.3 95.9 151.4 94.8 150.3C95.4 149.5 96.1999 148.9 96.5999 148C97.5999 145.5 95.8 142.7 92.9 142.5C90.7 142.3 88.6 142.4 86.4 142.5C86.2 142.5 85.8 142.9 85.8 143.1C85.8 147.5 85.8 151.9 85.8 156.3C85.8 156.5 86.0999 156.9 86.1999 156.9C87.2999 157 88.2999 156.9 89.5 156.9C89.5 154.9 89.5 153 89.5 151.1ZM56.9 156.9C56.5 155.9 56.0999 155.1 55.7999 154.3C54.1999 150.6 52.5 146.9 50.7999 143.2C50.6999 142.9 50.2999 142.6 50 142.5C49 142.4 48.0999 142.5 47.0999 142.5C46.4999 142.5 46.2 142.7 46 143.3C44.9 146.1 43.8 148.8 42.7 151.6C42 153.3 41.2999 155.1 40.5999 156.9C41.8999 156.9 43.1999 157.1 44.2999 156.8C44.7999 156.7 44.9999 155.5 45.2999 154.8V154.7C45.5999 154.5 45.9 154.2 46.2 154.2C47.3 154.1 48.3999 154.2 49.5999 154.2C51.7999 154.2 51.8 154.2 52.7 156.3C52.8 156.6 53.2999 157 53.5999 157C54.5999 156.9 55.7 156.9 56.9 156.9ZM136.9 145.3C138.5 145.3 140.1 145.3 141.7 145.3C144 145.3 143.6 145.8 143.7 143.3C143.7 142.7 143.5 142.5 142.9 142.5C139.9 142.5 137 142.5 134 142.5C133.5 142.5 133.2 142.6 133.2 143.2C133.2 147.5 133.2 151.8 133.2 156C133.2 156.7 133.4 156.9 134.1 156.9C136.7 156.9 139.3 156.9 142 156.9C144 156.9 144 156.9 143.9 154.9C143.9 154.3 143.7 154.1 143.1 154.1C141.4 154.1 139.6 154.1 137.9 154.1C137.6 154.1 137.3 154.1 137 154.1C137 152.9 137 151.9 137 150.8C138.1 150.8 139.1 150.8 140.2 150.8C141.2 150.8 142.3 150.8 143.3 150.8C143.4 150.3 143.4 150 143.4 149.6C143.5 148 143.5 148 141.9 148C140.2 148 138.6 148 136.9 148C136.9 147.1 136.9 146.2 136.9 145.3ZM75.9 151.3C77.3 151.2 78.5 151.2 79.8 151C82.8 150.6 84.3999 147 82.6999 144.5C81.6999 143 80.2 142.5 78.5 142.5C76.7999 142.5 75.1 142.5 73.4 142.5C72.1 142.5 72.0999 142.5 72.0999 143.8C72.0999 147.2 72.0999 150.7 72.0999 154.1C72.0999 156.9 72.1 156.9 74.9 156.9C75.7 156.9 75.9 156.6 75.9 155.8C75.9 154.3 75.9 152.8 75.9 151.3ZM58.5999 142.5C58.5999 147.4 58.5999 152.1 58.5999 156.9C59.0999 156.9 59.5999 157 60.0999 157C62.5999 157 62.1999 157.3 62.2999 154.9C62.2999 153.7 62.2999 152.5 62.2999 151.4C63.6999 151.3 64.9999 151.3 66.1999 151.1C68.1999 150.8 69.7 149.1 69.8 147.1C69.9 145.2 68.5999 143.4 66.6999 142.9C63.9999 142.1 61.2999 142.6 58.5999 142.5ZM131.7 142.5C130.6 142.5 129.6 142.5 128.7 142.5C128 142.5 127.6 142.7 127.4 143.3C127.1 144 126.8 144.8 126.5 145.5C125.8 147.1 125.1 148.7 124.3 150.4C124.1 150.2 124.1 150.2 124 150.1C122.9 147.8 121.9 145.5 120.8 143.3C120.7 143 120.5 142.6 120.3 142.6C119.1 142.5 117.9 142.6 116.5 142.6C118.8 147.5 121.1 152.1 123.4 156.8C123.5 157.1 124.2 157.2 124.7 157.2C124.9 157.2 125.3 156.9 125.4 156.6C127 153.1 128.6 149.6 130.2 146C130.7 144.8 131.1 143.7 131.7 142.5ZM75.1999 168.9C73.4999 166.9 71.9 165.2 70.5 163.3C69.7 162.2 68.8 162.2 67.8 162.2C67.3 162.2 67.0999 162.4 67.0999 162.9C67.0999 166.2 67.0999 169.4 67.0999 172.7C67.0999 172.9 67.2 173.3 67.3 173.3C68.1 173.3 68.7999 173.4 69.5999 173.2C69.7999 173.2 69.9 172.4 69.9 172C69.9 170.3 69.9 168.6 69.9 166.9C70 166.8 70.0999 166.8 70.1999 166.7C70.3999 166.9 70.4999 167.2 70.6999 167.4C71.7999 168.7 72.8 170 73.9 171.3C74.8 172.3 75.3999 173.7 77.1999 173.4C77.6999 173.3 78 173.2 78 172.6C78 169.2 78 165.8 78 162.4C77 162.4 76.0999 162.4 75.1999 162.4C75.1999 163.5 75.1999 164.5 75.1999 165.5C75.1999 166.5 75.1999 167.5 75.1999 168.9ZM142.5 173.5C145.6 173.5 147.7 171.8 148.5 168.9C149.1 166.7 147.7 163.6 144.8 162.6C141.9 161.5 138.1 162.9 136.9 165.5C135 169.6 138.3 173.6 142.5 173.5ZM59.4 173.5C63.2 173.6 66.1999 170.1 65.1999 166.6C64.4999 164 62.0999 161.8 58.2999 162.3C55.0999 162.7 52.7999 165.5 53.2999 168.7C53.6999 171.5 56.1 173.5 59.4 173.5ZM150.4 162.3C150.4 166 150.4 169.7 150.4 173.3C151.4 173.3 152.2 173.3 153.2 173.3C153.2 171.8 153.2 170.4 153.2 169C154.8 169.1 155.1 169.2 155.6 170.8C156.2 172.9 157.3 173.9 159.5 173.4C159.6 173.4 159.6 173.3 159.8 173.2C159 171.5 158.1 169.8 157.3 168.1C157.2 168.2 157.3 168.1 157.4 168C158.6 167.1 159.1 166 158.6 164.6C158.1 163.2 157 162.5 155.6 162.4C153.8 162.3 152.1 162.3 150.4 162.3ZM51.7 170.2C50.1 170.5 48.6999 170.9 47.2999 171C45.5999 171.1 44.3999 169.9 44.0999 168.4C43.7999 167.1 44.6 165.4 46 165C47 164.7 48.1999 164.7 49.2999 164.8C49.9999 164.9 50.7 165.3 51.5 165.6C51.5 165.1 51.4999 164.6 51.5999 164.2C51.6999 163.6 51.5999 163.1 50.7999 162.8C48.9999 162.1 47.3 162 45.5 162.5C41.7 163.5 40.1 167.7 42.2 170.9C44.2 174 48.7 174.1 51.5 172.5C51.6 172.4 51.7999 172.3 51.7999 172.2C51.6999 171.4 51.7 170.7 51.7 170.2ZM123.7 165.4C123.7 165.1 123.6 164.6 123.7 164.2C123.9 163.3 123.3 162.9 122.6 162.6C120.8 162 118.9 162 117.1 162.6C113.7 163.8 112.3 168 114.4 171C115.9 173.2 119.1 174.1 122.1 173.1C123.9 172.5 124.2 171.9 123.8 169.9C123.1 170.2 122.5 170.5 121.8 170.6C121.1 170.8 120.4 170.9 119.7 170.9C117.7 170.9 116.3 169.6 116.2 167.7C116.2 165.8 117.6 164.4 119.6 164.5C120.9 164.7 122.2 165.1 123.7 165.4ZM128.8 164.5C128.8 165 128.8 165.3 128.8 165.7C128.8 168 128.8 170.3 128.8 172.6C128.8 172.9 129 173.4 129.2 173.4C129.9 173.5 130.7 173.5 131.4 173.3C131.6 173.2 131.6 172.3 131.6 171.8C131.6 170.9 131.6 170 131.6 169.1C131.6 167.6 131.6 166.1 131.6 164.5C132.7 164.5 133.7 164.5 134.7 164.5C135.3 164.5 135.6 164.3 135.5 163.7C135.4 163.2 135.9 162.3 134.8 162.3C131.6 162.3 128.4 162.3 125.2 162.3C125.2 163.1 125.2 163.8 125.2 164.5C126.3 164.5 127.5 164.5 128.8 164.5ZM79.5 164.5C80.7999 164.5 82 164.5 83.3 164.5C83.3 165 83.3 165.3 83.3 165.7C83.3 168 83.3 170.3 83.3 172.6C83.3 173.2 83.3999 173.4 84.0999 173.4C86.0999 173.4 86.0999 173.4 86.0999 171.4C86.0999 170.6 86.0999 169.8 86.0999 169C86.0999 167.5 86.0999 166 86.0999 164.4C86.7999 164.4 87.5 164.4 88.0999 164.4C90 164.4 90 164.4 89.9 162.5C89.9 162.4 89.7999 162.4 89.6999 162.2C89.3999 162.2 89.0999 162.2 88.6999 162.2C86.1999 162.2 83.6999 162.2 81.1999 162.2C79.2999 162.3 79.2999 162.3 79.5 164.5Z" fill="#025B96"/>
<path d="M100.1 37.8C96.2002 37.8 92.6002 36.6 89.8002 33.8C85.5002 29.5 86.1002 22.7 90.9002 18.9C95.8002 15.1 103.8 14.8 109 18.7C114.7 23 114.9 30.7 108.8 35.1C106.2 37 103.3 37.9 100.1 37.8Z" fill="#025B96"/>
<path d="M94.1001 166.8C94.1001 166 94.1001 165.3 94.1001 164.6C94.9001 164.5 95.8001 164.2 96.5001 165C96.7001 165.3 96.8001 165.9 96.6001 166.2C96.0001 167.1 95.1001 166.7 94.1001 166.8Z" fill="#025B96"/>
<path d="M105.1 169.1C105.5 167.9 106 166.7 106.5 165.2C107.1 166.6 107.5 167.8 108.1 169.1C107 169.1 106.1 169.1 105.1 169.1Z" fill="#025B96"/>
<path d="M107.5 145.4C110.2 145.4 111.9 147 111.9 149.7C111.9 152.2 110.1 153.9 107.6 153.9C104.9 153.9 103 152.2 103.1 149.8C103.1 147 104.7 145.4 107.5 145.4Z" fill="#025B96"/>
<path d="M150 154.1C150 151.1 150 148.2 150 145.3C152 145.3 154.2 144.8 155.8 146.6C157 148 157.2 150.4 156.2 152C154.8 154.5 152.4 154 150 154.1Z" fill="#025B96"/>
<path d="M89.5 145.3C90.3 145.3 91 145.3 91.7 145.3C92.6 145.4 93.1 145.9 93.1 146.8C93.1 147.7 92.7 148.2 91.7 148.3C89 148.3 89.6 148.9 89.5 146.3C89.5 146 89.5 145.7 89.5 145.3Z" fill="#025B96"/>
<path d="M48.5001 146.2C49.3001 148 49.9001 149.6 50.6001 151.3C49.2001 151.3 48.0001 151.3 46.6001 151.3C47.2001 149.7 47.8001 148 48.5001 146.2Z" fill="#025B96"/>
<path d="M75.9001 148.4C75.9001 147.3 75.9001 146.3 75.9001 145.2C76.8001 145.3 77.6001 145.3 78.5001 145.4C79.3001 145.5 79.6001 146.1 79.6001 146.8C79.6001 147.6 79.3001 148.1 78.5001 148.2C77.7001 148.3 76.9001 148.4 75.9001 148.4Z" fill="#025B96"/>
<path d="M62.3 148.4C62.3 147.3 62.3 146.3 62.3 145.2C63.2 145.3 64.0001 145.3 64.8001 145.4C65.6001 145.5 65.9001 146 65.9001 146.8C65.9001 147.6 65.6001 148.2 64.8001 148.3C64.0001 148.3 63.2 148.4 62.3 148.4Z" fill="#025B96"/>
<path d="M145.7 167.9C145.7 169.9 144.5 171.1 142.5 171.1C140.5 171.1 139.3 169.9 139.3 167.9C139.3 165.9 140.6 164.7 142.7 164.7C144.5 164.6 145.7 165.9 145.7 167.9Z" fill="#025B96"/>
<path d="M59.3 171C57.3 171 56 169.8 56 167.8C56 165.9 57.3 164.6 59.2 164.6C61.2 164.6 62.5 165.8 62.5 167.8C62.5 169.8 61.3 171 59.3 171Z" fill="#025B96"/>
<path d="M153.2 166.8C153.2 166 153.2 165.3 153.2 164.5C154 164.4 154.9 164.1 155.6 164.9C155.8 165.2 155.8 165.8 155.7 166.1C155.1 167.1 154.1 166.7 153.2 166.8Z" fill="#025B96"/>
</g>
<defs>
<clipPath id="clip0_3_2">
<rect width="200" height="200" fill="white"/>
</clipPath>
</defs>
</svg>
