<svg width="282" height="344" viewBox="0 0 282 344" fill="none" xmlns="http://www.w3.org/2000/svg">
<path fill-rule="evenodd" clip-rule="evenodd" d="M121.68 319.279C121.168 318.766 120.339 318.766 119.827 319.279C119.314 319.791 119.314 320.62 119.827 321.132C120.339 321.644 121.168 321.644 121.68 321.132C122.192 320.62 122.192 319.791 121.68 319.279ZM116.253 310.861C115.41 310.017 114.041 310.017 113.197 310.861C112.354 311.705 112.354 313.073 113.197 313.917C114.041 314.761 115.41 314.761 116.253 313.917C117.097 313.073 117.097 311.705 116.253 310.861ZM109.41 305.952C109.101 305.643 108.599 305.643 108.29 305.952C107.981 306.261 107.981 306.763 108.29 307.072C108.599 307.381 109.101 307.381 109.41 307.072C109.719 306.763 109.719 306.261 109.41 305.952ZM139.24 323.131C138.683 322.573 137.779 322.573 137.221 323.131C136.664 323.688 136.664 324.592 137.221 325.15C137.779 325.707 138.683 325.707 139.24 325.15C139.797 324.592 139.797 323.688 139.24 323.131ZM133.786 316.833C132.995 316.042 131.714 316.042 130.923 316.833C130.132 317.624 130.132 318.904 130.923 319.695C131.714 320.486 132.995 320.486 133.786 319.695C134.577 318.904 134.577 317.624 133.786 316.833ZM128.221 310.645C127.259 309.683 125.7 309.683 124.736 310.645C123.774 311.607 123.774 313.166 124.736 314.128C125.697 315.09 127.257 315.09 128.221 314.128C129.183 313.166 129.183 311.607 128.221 310.643V310.645ZM122.365 304.749C121.391 303.775 119.814 303.775 118.839 304.749C117.865 305.723 117.865 307.3 118.839 308.275C119.814 309.249 121.391 309.249 122.365 308.275C123.339 307.3 123.339 305.723 122.365 304.749ZM145.254 317.116C144.621 316.484 143.592 316.484 142.959 317.116C142.326 317.749 142.326 318.779 142.959 319.412C143.592 320.044 144.621 320.044 145.254 319.412C145.887 318.779 145.887 317.749 145.254 317.116ZM139.993 310.625C139.019 309.65 137.442 309.65 136.467 310.625C135.493 311.599 135.493 313.176 136.467 314.15C137.442 315.125 139.019 315.125 139.993 314.15C140.967 313.176 140.967 311.599 139.993 310.625ZM134.117 304.749C133.143 303.774 131.566 303.774 130.591 304.749C129.617 305.723 129.617 307.3 130.591 308.274C131.566 309.249 133.143 309.249 134.117 308.274C135.091 307.3 135.091 305.723 134.117 304.749ZM128.206 298.908C127.251 297.953 125.705 297.953 124.748 298.908C123.794 299.862 123.794 301.409 124.748 302.366C125.702 303.32 127.249 303.32 128.206 302.366C129.16 301.411 129.16 299.864 128.206 298.91V298.908ZM145.869 304.749C144.895 303.774 143.318 303.774 142.344 304.749C141.369 305.723 141.369 307.3 142.344 308.274C143.318 309.249 144.895 309.249 145.869 308.274C146.844 307.3 146.844 305.723 145.869 304.749ZM139.993 298.873C139.019 297.898 137.442 297.898 136.468 298.873C135.493 299.847 135.493 301.424 136.468 302.398C137.442 303.373 139.019 303.373 139.993 302.398C140.968 301.424 140.968 299.847 139.993 298.873ZM134.117 292.996C133.143 292.022 131.566 292.022 130.592 292.996C129.617 293.971 129.617 295.548 130.592 296.522C131.566 297.496 133.143 297.496 134.117 296.522C135.092 295.548 135.092 293.971 134.117 292.996ZM127.473 287.889C126.923 287.339 126.031 287.339 125.481 287.889C124.931 288.439 124.931 289.33 125.481 289.88C126.031 290.43 126.923 290.43 127.473 289.88C128.023 289.33 128.023 288.439 127.473 287.889ZM162.24 311.885C161.961 311.607 161.509 311.607 161.23 311.885C160.951 312.164 160.951 312.616 161.23 312.895C161.509 313.174 161.961 313.174 162.24 312.895C162.518 312.616 162.518 312.164 162.24 311.885ZM157.496 304.874C156.592 303.97 155.123 303.97 154.219 304.874C153.315 305.778 153.315 307.247 154.219 308.151C155.123 309.055 156.592 309.055 157.496 308.151C158.4 307.247 158.4 305.778 157.496 304.874ZM151.746 298.873C150.771 297.898 149.194 297.898 148.22 298.873C147.246 299.847 147.246 301.424 148.22 302.398C149.194 303.373 150.771 303.373 151.746 302.398C152.72 301.424 152.72 299.847 151.746 298.873ZM145.869 292.997C144.895 292.022 143.318 292.022 142.344 292.997C141.369 293.971 141.369 295.548 142.344 296.522C143.318 297.497 144.895 297.497 145.869 296.522C146.844 295.548 146.844 293.971 145.869 292.997ZM139.903 287.211C138.979 286.287 137.482 286.287 136.558 287.211C135.634 288.135 135.634 289.632 136.558 290.556C137.482 291.48 138.979 291.48 139.903 290.556C140.827 289.632 140.827 288.132 139.903 287.211ZM174.698 311.18C174.03 310.512 172.947 310.512 172.277 311.18C171.609 311.848 171.609 312.93 172.277 313.601C172.945 314.269 174.027 314.269 174.698 313.601C175.366 312.933 175.366 311.85 174.698 311.18ZM169.366 304.756C168.397 303.787 166.825 303.787 165.853 304.756C164.884 305.726 164.884 307.298 165.853 308.269C166.823 309.239 168.395 309.239 169.366 308.269C170.336 307.3 170.336 305.728 169.366 304.756ZM163.498 298.873C162.524 297.898 160.946 297.898 159.972 298.873C158.998 299.847 158.998 301.424 159.972 302.398C160.946 303.373 162.524 303.373 163.498 302.398C164.472 301.424 164.472 299.847 163.498 298.873ZM157.622 292.997C156.647 292.022 155.07 292.022 154.096 292.997C153.122 293.971 153.122 295.548 154.096 296.522C155.07 297.497 156.647 297.497 157.622 296.522C158.596 295.548 158.596 293.971 157.622 292.997ZM151.565 287.301C150.691 286.427 149.272 286.427 148.398 287.301C147.524 288.175 147.524 289.594 148.398 290.468C149.272 291.342 150.691 291.342 151.565 290.468C152.439 289.594 152.439 288.175 151.565 287.301ZM122.164 257.941C121.3 257.077 119.902 257.077 119.04 257.941C118.177 258.804 118.177 260.203 119.04 261.065C119.904 261.928 121.303 261.928 122.164 261.065C123.028 260.201 123.028 258.802 122.164 257.941ZM115.452 252.901C115.051 252.499 114.403 252.499 114.001 252.901C113.599 253.303 113.599 253.95 114.001 254.352C114.403 254.754 115.051 254.754 115.452 254.352C115.854 253.95 115.854 253.303 115.452 252.901ZM186.353 311.275C185.738 310.66 184.741 310.66 184.128 311.275C183.513 311.891 183.513 312.888 184.128 313.5C184.743 314.115 185.74 314.115 186.353 313.5C186.968 312.885 186.968 311.888 186.353 311.275ZM181.127 304.749C180.153 303.775 178.576 303.775 177.602 304.749C176.627 305.723 176.627 307.3 177.602 308.275C178.576 309.249 180.153 309.249 181.127 308.275C182.102 307.3 182.102 305.723 181.127 304.749ZM175.251 298.873C174.277 297.899 172.7 297.899 171.726 298.873C170.751 299.847 170.751 301.424 171.726 302.399C172.7 303.373 174.277 303.373 175.251 302.399C176.226 301.424 176.226 299.847 175.251 298.873ZM169.375 292.997C168.401 292.023 166.824 292.023 165.849 292.997C164.875 293.971 164.875 295.548 165.849 296.523C166.824 297.497 168.401 297.497 169.375 296.523C170.349 295.548 170.349 293.971 169.375 292.997ZM162.939 287.681C162.273 287.015 161.199 287.015 160.533 287.681C159.868 288.346 159.868 289.421 160.533 290.086C161.199 290.752 162.273 290.752 162.939 290.086C163.604 289.421 163.604 288.346 162.939 287.681ZM150.737 276.378C150.321 275.961 149.648 275.961 149.231 276.378C148.814 276.795 148.814 277.468 149.231 277.885C149.647 278.302 150.32 278.302 150.737 277.885C151.154 277.468 151.154 276.795 150.737 276.378ZM144.613 270.751C144.334 270.472 143.882 270.472 143.603 270.751C143.324 271.029 143.324 271.481 143.603 271.76C143.882 272.039 144.334 272.039 144.613 271.76C144.891 271.481 144.891 271.029 144.613 270.751ZM139.573 264.038C138.832 263.298 137.632 263.298 136.891 264.038C136.15 264.779 136.15 265.98 136.891 266.72C137.632 267.461 138.832 267.461 139.573 266.72C140.314 265.98 140.314 264.779 139.573 264.038ZM133.677 258.182C132.948 257.454 131.766 257.454 131.035 258.182C130.307 258.911 130.307 260.093 131.035 260.824C131.763 261.552 132.946 261.552 133.677 260.824C134.405 260.096 134.405 258.913 133.677 258.182ZM128.242 251.864C127.268 250.89 125.691 250.89 124.717 251.864C123.742 252.839 123.742 254.416 124.717 255.39C125.691 256.364 127.268 256.364 128.242 255.39C129.217 254.416 129.217 252.839 128.242 251.864ZM121.349 247.005C120.937 246.593 120.269 246.593 119.855 247.005C119.443 247.417 119.443 248.085 119.855 248.499C120.267 248.911 120.935 248.911 121.349 248.499C121.761 248.088 121.761 247.42 121.349 247.005ZM197.798 311.587C197.356 311.145 196.638 311.145 196.193 311.587C195.751 312.029 195.751 312.747 196.193 313.191C196.635 313.633 197.353 313.633 197.798 313.191C198.24 312.749 198.24 312.031 197.798 311.587ZM192.868 304.764C191.901 303.797 190.337 303.797 189.37 304.764C188.403 305.731 188.403 307.295 189.37 308.262C190.337 309.229 191.901 309.229 192.868 308.262C193.835 307.295 193.835 305.731 192.868 304.764ZM187.005 298.873C186.03 297.899 184.453 297.899 183.479 298.873C182.505 299.847 182.505 301.424 183.479 302.399C184.453 303.373 186.03 303.373 187.005 302.399C187.979 301.424 187.979 299.847 187.005 298.873ZM181.129 292.997C180.154 292.022 178.577 292.022 177.603 292.997C176.629 293.971 176.629 295.548 177.603 296.522C178.577 297.497 180.154 297.497 181.129 296.522C182.103 295.548 182.103 293.971 181.129 292.997ZM175.252 287.121C174.278 286.146 172.701 286.146 171.727 287.121C170.752 288.095 170.752 289.672 171.727 290.646C172.701 291.621 174.278 291.621 175.252 290.646C176.227 289.672 176.227 288.095 175.252 287.121ZM168.761 281.86C168.128 281.227 167.099 281.227 166.466 281.86C165.833 282.493 165.833 283.522 166.466 284.155C167.099 284.788 168.128 284.788 168.761 284.155C169.394 283.522 169.394 282.493 168.761 281.86ZM163.176 275.692C162.383 274.899 161.094 274.899 160.301 275.692C159.507 276.486 159.507 277.774 160.301 278.568C161.094 279.361 162.383 279.361 163.176 278.568C163.97 277.774 163.97 276.486 163.176 275.692ZM157.624 269.492C156.65 268.518 155.073 268.518 154.098 269.492C153.124 270.467 153.124 272.044 154.098 273.018C155.073 273.992 156.65 273.992 157.624 273.018C158.598 272.044 158.598 270.467 157.624 269.492ZM151.728 263.636C150.766 262.674 149.206 262.674 148.242 263.636C147.28 264.598 147.28 266.157 148.242 267.119C149.204 268.081 150.763 268.081 151.728 267.119C152.689 266.157 152.689 264.598 151.728 263.636ZM145.872 257.74C144.897 256.766 143.32 256.766 142.346 257.74C141.372 258.714 141.372 260.291 142.346 261.266C143.32 262.24 144.897 262.24 145.872 261.266C146.846 260.291 146.846 258.714 145.872 257.74ZM139.996 251.864C139.021 250.89 137.444 250.89 136.47 251.864C135.496 252.838 135.496 254.415 136.47 255.39C137.444 256.364 139.021 256.364 139.996 255.39C140.97 254.415 140.97 252.838 139.996 251.864ZM133.906 246.201C133.05 245.345 131.663 245.345 130.81 246.201C129.953 247.058 129.953 248.444 130.81 249.298C131.666 250.154 133.052 250.154 133.906 249.298C134.762 248.441 134.762 247.055 133.906 246.201ZM204.241 305.144C203.485 304.388 202.26 304.388 201.504 305.144C200.748 305.899 200.748 307.125 201.504 307.881C202.26 308.637 203.485 308.637 204.241 307.881C204.997 307.125 204.997 305.899 204.241 305.144ZM198.759 298.873C197.785 297.899 196.208 297.899 195.233 298.873C194.259 299.848 194.259 301.425 195.233 302.399C196.208 303.373 197.785 303.373 198.759 302.399C199.733 301.425 199.733 299.848 198.759 298.873ZM192.883 292.997C191.909 292.023 190.332 292.023 189.357 292.997C188.383 293.971 188.383 295.548 189.357 296.523C190.332 297.497 191.909 297.497 192.883 296.523C193.857 295.548 193.857 293.971 192.883 292.997ZM187.007 287.121C186.033 286.147 184.456 286.147 183.481 287.121C182.507 288.095 182.507 289.672 183.481 290.647C184.456 291.621 186.033 291.621 187.007 290.647C187.981 289.672 187.981 288.095 187.007 287.121ZM181.131 281.245C180.157 280.271 178.579 280.271 177.605 281.245C176.631 282.219 176.631 283.796 177.605 284.771C178.579 285.745 180.157 285.745 181.131 284.771C182.105 283.796 182.105 282.219 181.131 281.245ZM175.164 275.459C174.24 274.535 172.744 274.535 171.819 275.459C170.895 276.383 170.895 277.88 171.819 278.804C172.744 279.728 174.24 279.728 175.164 278.804C176.088 277.88 176.088 276.381 175.164 275.459ZM169.379 269.493C168.404 268.518 166.827 268.518 165.853 269.493C164.879 270.467 164.879 272.044 165.853 273.018C166.827 273.993 168.404 273.993 169.379 273.018C170.353 272.044 170.353 270.467 169.379 269.493ZM163.503 263.617C162.528 262.642 160.951 262.642 159.977 263.617C159.003 264.591 159.003 266.168 159.977 267.142C160.951 268.117 162.528 268.117 163.503 267.142C164.477 266.168 164.477 264.591 163.503 263.617ZM157.626 257.741C156.652 256.766 155.075 256.766 154.101 257.741C153.126 258.715 153.126 260.292 154.101 261.266C155.075 262.24 156.652 262.24 157.626 261.266C158.601 260.292 158.601 258.715 157.626 257.741ZM151.75 251.864C150.776 250.89 149.199 250.89 148.225 251.864C147.25 252.839 147.25 254.416 148.225 255.39C149.199 256.364 150.776 256.364 151.75 255.39C152.725 254.416 152.725 252.839 151.75 251.864ZM145.874 245.988C144.9 245.014 143.323 245.014 142.349 245.988C141.374 246.963 141.374 248.54 142.349 249.514C143.323 250.488 144.9 250.488 145.874 249.514C146.849 248.54 146.849 246.963 145.874 245.988ZM138.74 241.37C138.461 241.092 138.009 241.092 137.73 241.37C137.452 241.649 137.452 242.101 137.73 242.38C138.009 242.658 138.461 242.658 138.74 242.38C139.019 242.101 139.019 241.649 138.74 241.37ZM221.99 310.902C221.169 310.081 219.838 310.081 219.017 310.902C218.195 311.723 218.195 313.054 219.017 313.875C219.838 314.696 221.169 314.696 221.99 313.875C222.811 313.054 222.811 311.723 221.99 310.902ZM216.39 304.749C215.416 303.775 213.839 303.775 212.864 304.749C211.89 305.724 211.89 307.301 212.864 308.275C213.839 309.249 215.416 309.249 216.39 308.275C217.364 307.301 217.364 305.724 216.39 304.749ZM210.514 298.873C209.54 297.899 207.962 297.899 206.988 298.873C206.014 299.848 206.014 301.425 206.988 302.399C207.962 303.373 209.54 303.373 210.514 302.399C211.488 301.425 211.488 299.848 210.514 298.873ZM204.638 292.997C203.663 292.023 202.086 292.023 201.112 292.997C200.138 293.971 200.138 295.549 201.112 296.523C202.086 297.497 203.663 297.497 204.638 296.523C205.612 295.549 205.612 293.971 204.638 292.997ZM198.762 287.121C197.787 286.147 196.21 286.147 195.236 287.121C194.262 288.095 194.262 289.672 195.236 290.647C196.21 291.621 197.787 291.621 198.762 290.647C199.736 289.672 199.736 288.095 198.762 287.121ZM192.886 281.245C191.911 280.271 190.334 280.271 189.36 281.245C188.386 282.219 188.386 283.796 189.36 284.771C190.334 285.745 191.911 285.745 192.886 284.771C193.86 283.796 193.86 282.219 192.886 281.245ZM187.009 275.369C186.035 274.395 184.458 274.395 183.484 275.369C182.509 276.343 182.509 277.92 183.484 278.895C184.458 279.869 186.035 279.869 187.009 278.895C187.984 277.92 187.984 276.343 187.009 275.369ZM181.133 269.493C180.159 268.518 178.582 268.518 177.608 269.493C176.633 270.467 176.633 272.044 177.608 273.018C178.582 273.993 180.159 273.993 181.133 273.018C182.108 272.044 182.108 270.467 181.133 269.493ZM175.257 263.617C174.283 262.642 172.706 262.642 171.732 263.617C170.757 264.591 170.757 266.168 171.732 267.142C172.706 268.117 174.283 268.117 175.257 267.142C176.232 266.168 176.232 264.591 175.257 263.617ZM169.381 257.741C168.407 256.766 166.83 256.766 165.855 257.741C164.881 258.715 164.881 260.292 165.855 261.266C166.83 262.241 168.407 262.241 169.381 261.266C170.355 260.292 170.355 258.715 169.381 257.741ZM163.505 251.864C162.531 250.89 160.954 250.89 159.979 251.864C159.005 252.839 159.005 254.416 159.979 255.39C160.954 256.364 162.531 256.364 163.505 255.39C164.479 254.416 164.479 252.839 163.505 251.864ZM157.629 245.988C156.655 245.014 155.078 245.014 154.103 245.988C153.129 246.963 153.129 248.54 154.103 249.514C155.078 250.488 156.655 250.488 157.629 249.514C158.603 248.54 158.603 246.963 157.629 245.988ZM151.753 240.112C150.779 239.138 149.201 239.138 148.227 240.112C147.253 241.087 147.253 242.664 148.227 243.638C149.201 244.612 150.779 244.612 151.753 243.638C152.727 242.664 152.727 241.087 151.753 240.112ZM233.833 310.814C232.961 309.942 231.55 309.942 230.681 310.814C229.81 311.685 229.81 313.096 230.681 313.965C231.553 314.837 232.964 314.837 233.833 313.965C234.704 313.094 234.704 311.682 233.833 310.814ZM228.143 304.752C227.168 303.777 225.591 303.777 224.617 304.752C223.643 305.726 223.643 307.303 224.617 308.277C225.591 309.252 227.168 309.252 228.143 308.277C229.117 307.303 229.117 305.726 228.143 304.752ZM222.266 298.876C221.292 297.901 219.715 297.901 218.741 298.876C217.766 299.85 217.766 301.427 218.741 302.401C219.715 303.376 221.292 303.376 222.266 302.401C223.241 301.427 223.241 299.85 222.266 298.876ZM216.39 293C215.416 292.025 213.839 292.025 212.865 293C211.89 293.974 211.89 295.551 212.865 296.525C213.839 297.5 215.416 297.5 216.39 296.525C217.365 295.551 217.365 293.974 216.39 293ZM210.514 287.123C209.54 286.149 207.963 286.149 206.989 287.123C206.014 288.098 206.014 289.675 206.989 290.649C207.963 291.623 209.54 291.623 210.514 290.649C211.489 289.675 211.489 288.098 210.514 287.123ZM204.638 281.247C203.664 280.273 202.087 280.273 201.112 281.247C200.138 282.222 200.138 283.799 201.112 284.773C202.087 285.747 203.664 285.747 204.638 284.773C205.612 283.799 205.612 282.222 204.638 281.247ZM198.762 275.371C197.788 274.397 196.211 274.397 195.236 275.371C194.262 276.346 194.262 277.923 195.236 278.897C196.211 279.871 197.788 279.871 198.762 278.897C199.736 277.923 199.736 276.346 198.762 275.371ZM192.886 269.495C191.912 268.521 190.335 268.521 189.36 269.495C188.386 270.469 188.386 272.047 189.36 273.021C190.335 273.995 191.912 273.995 192.886 273.021C193.86 272.047 193.86 270.469 192.886 269.495ZM187.01 263.619C186.036 262.645 184.458 262.645 183.484 263.619C182.51 264.593 182.51 266.17 183.484 267.145C184.458 268.119 186.036 268.119 187.01 267.145C187.984 266.17 187.984 264.593 187.01 263.619ZM181.134 257.743C180.159 256.769 178.582 256.769 177.608 257.743C176.634 258.717 176.634 260.294 177.608 261.269C178.582 262.243 180.159 262.243 181.134 261.269C182.108 260.294 182.108 258.717 181.134 257.743ZM175.258 251.867C174.283 250.893 172.706 250.893 171.732 251.867C170.758 252.841 170.758 254.418 171.732 255.393C172.706 256.367 174.283 256.367 175.258 255.393C176.232 254.418 176.232 252.841 175.258 251.867ZM169.382 245.991C168.407 245.016 166.83 245.016 165.856 245.991C164.882 246.965 164.882 248.542 165.856 249.516C166.83 250.491 168.407 250.491 169.382 249.516C170.356 248.542 170.356 246.965 169.382 245.991ZM163.505 240.115C162.531 239.14 160.954 239.14 159.98 240.115C159.005 241.089 159.005 242.666 159.98 243.64C160.954 244.615 162.531 244.615 163.505 243.64C164.48 242.666 164.48 241.089 163.505 240.115ZM157.629 234.239C156.655 233.264 155.078 233.264 154.104 234.239C153.129 235.213 153.129 236.79 154.104 237.764C155.078 238.739 156.655 238.739 157.629 237.764C158.604 236.79 158.604 235.213 157.629 234.239ZM150.744 229.372C150.327 228.955 149.654 228.955 149.237 229.372C148.82 229.789 148.82 230.462 149.237 230.879C149.654 231.295 150.327 231.295 150.744 230.879C151.161 230.462 151.161 229.789 150.744 229.372ZM245.771 310.629C244.797 309.655 243.219 309.655 242.245 310.629C241.271 311.603 241.271 313.18 242.245 314.155C243.219 315.129 244.797 315.129 245.771 314.155C246.745 313.18 246.745 311.603 245.771 310.629ZM239.895 304.753C238.92 303.779 237.343 303.779 236.369 304.753C235.395 305.727 235.395 307.304 236.369 308.279C237.343 309.253 238.92 309.253 239.895 308.279C240.869 307.304 240.869 305.727 239.895 304.753ZM234.019 298.877C233.044 297.903 231.467 297.903 230.493 298.877C229.519 299.851 229.519 301.428 230.493 302.403C231.467 303.377 233.044 303.377 234.019 302.403C234.993 301.428 234.993 299.851 234.019 298.877ZM228.143 293.001C227.168 292.026 225.591 292.026 224.617 293.001C223.643 293.975 223.643 295.552 224.617 296.526C225.591 297.501 227.168 297.501 228.143 296.526C229.117 295.552 229.117 293.975 228.143 293.001ZM222.266 287.125C221.292 286.15 219.715 286.15 218.741 287.125C217.766 288.099 217.766 289.676 218.741 290.65C219.715 291.625 221.292 291.625 222.266 290.65C223.241 289.676 223.241 288.099 222.266 287.125ZM216.39 281.249C215.416 280.274 213.839 280.274 212.865 281.249C211.89 282.223 211.89 283.8 212.865 284.774C213.839 285.749 215.416 285.749 216.39 284.774C217.365 283.8 217.365 282.223 216.39 281.249ZM210.514 275.372C209.54 274.398 207.963 274.398 206.989 275.372C206.014 276.347 206.014 277.924 206.989 278.898C207.963 279.872 209.54 279.872 210.514 278.898C211.489 277.924 211.489 276.347 210.514 275.372ZM204.638 269.496C203.664 268.522 202.087 268.522 201.112 269.496C200.138 270.471 200.138 272.048 201.112 273.022C202.087 273.996 203.664 273.996 204.638 273.022C205.612 272.048 205.612 270.471 204.638 269.496ZM198.762 263.62C197.788 262.646 196.211 262.646 195.236 263.62C194.262 264.595 194.262 266.172 195.236 267.146C196.211 268.12 197.788 268.12 198.762 267.146C199.736 266.172 199.736 264.595 198.762 263.62ZM192.886 257.744C191.912 256.77 190.335 256.77 189.36 257.744C188.386 258.718 188.386 260.296 189.36 261.27C190.335 262.244 191.912 262.244 192.886 261.27C193.86 260.296 193.86 258.718 192.886 257.744ZM187.01 251.868C186.036 250.894 184.458 250.894 183.484 251.868C182.51 252.842 182.51 254.419 183.484 255.394C184.458 256.368 186.036 256.368 187.01 255.394C187.984 254.419 187.984 252.842 187.01 251.868ZM181.134 245.992C180.159 245.018 178.582 245.018 177.608 245.992C176.634 246.966 176.634 248.543 177.608 249.518C178.582 250.492 180.159 250.492 181.134 249.518C182.108 248.543 182.108 246.966 181.134 245.992ZM175.258 240.116C174.283 239.142 172.706 239.142 171.732 240.116C170.758 241.09 170.758 242.667 171.732 243.642C172.706 244.616 174.283 244.616 175.258 243.642C176.232 242.667 176.232 241.09 175.258 240.116ZM169.382 234.24C168.407 233.265 166.83 233.265 165.856 234.24C164.882 235.214 164.882 236.791 165.856 237.765C166.83 238.74 168.407 238.74 169.382 237.765C170.356 236.791 170.356 235.214 169.382 234.24ZM163.505 228.364C162.531 227.389 160.954 227.389 159.98 228.364C159.005 229.338 159.005 230.915 159.98 231.889C160.954 232.864 162.531 232.864 163.505 231.889C164.48 230.915 164.48 229.338 163.505 228.364ZM157.609 222.508C156.647 221.546 155.088 221.546 154.126 222.508C153.164 223.469 153.164 225.029 154.126 225.993C155.088 226.955 156.647 226.955 157.609 225.993C158.571 225.031 158.571 223.472 157.609 222.508ZM86.4513 152.635C85.8436 152.028 84.8592 152.028 84.2541 152.635C83.6464 153.243 83.6464 154.228 84.2541 154.833C84.8618 155.44 85.8462 155.44 86.4513 154.833C87.059 154.225 87.059 153.241 86.4513 152.635ZM80.3392 146.995C79.8621 146.518 79.0886 146.518 78.6115 146.995C78.1344 147.473 78.1344 148.246 78.6115 148.723C79.0886 149.2 79.8621 149.2 80.3392 148.723C80.8163 148.246 80.8163 147.473 80.3392 146.995ZM256.971 311.188C256.303 310.52 255.22 310.52 254.55 311.188C253.882 311.856 253.882 312.938 254.55 313.608C255.218 314.276 256.3 314.276 256.971 313.608C257.639 312.94 257.639 311.858 256.971 311.188ZM251.647 304.759C250.673 303.785 249.096 303.785 248.121 304.759C247.147 305.733 247.147 307.31 248.121 308.285C249.096 309.259 250.673 309.259 251.647 308.285C252.621 307.31 252.621 305.733 251.647 304.759ZM245.771 298.883C244.797 297.909 243.22 297.909 242.245 298.883C241.271 299.857 241.271 301.434 242.245 302.409C243.22 303.383 244.797 303.383 245.771 302.409C246.745 301.434 246.745 299.857 245.771 298.883ZM239.895 293.007C238.92 292.032 237.343 292.032 236.369 293.007C235.395 293.981 235.395 295.558 236.369 296.532C237.343 297.507 238.92 297.507 239.895 296.532C240.869 295.558 240.869 293.981 239.895 293.007ZM234.019 287.131C233.044 286.156 231.467 286.156 230.493 287.131C229.519 288.105 229.519 289.682 230.493 290.656C231.467 291.631 233.044 291.631 234.019 290.656C234.993 289.682 234.993 288.105 234.019 287.131ZM228.143 281.255C227.168 280.28 225.591 280.28 224.617 281.255C223.643 282.229 223.643 283.806 224.617 284.78C225.591 285.755 227.168 285.755 228.143 284.78C229.117 283.806 229.117 282.229 228.143 281.255ZM222.266 275.379C221.292 274.404 219.715 274.404 218.741 275.379C217.766 276.353 217.766 277.93 218.741 278.904C219.715 279.879 221.292 279.879 222.266 278.904C223.241 277.93 223.241 276.353 222.266 275.379ZM216.39 269.502C215.416 268.528 213.839 268.528 212.865 269.502C211.89 270.477 211.89 272.054 212.865 273.028C213.839 274.002 215.416 274.002 216.39 273.028C217.365 272.054 217.365 270.477 216.39 269.502ZM210.514 263.626C209.54 262.652 207.963 262.652 206.989 263.626C206.014 264.601 206.014 266.178 206.989 267.152C207.963 268.126 209.54 268.126 210.514 267.152C211.489 266.178 211.489 264.601 210.514 263.626ZM204.638 257.75C203.664 256.776 202.087 256.776 201.113 257.75C200.138 258.725 200.138 260.302 201.113 261.276C202.087 262.25 203.664 262.25 204.638 261.276C205.613 260.302 205.613 258.725 204.638 257.75ZM198.762 251.874C197.788 250.9 196.211 250.9 195.236 251.874C194.262 252.848 194.262 254.425 195.236 255.4C196.211 256.374 197.788 256.374 198.762 255.4C199.736 254.425 199.736 252.848 198.762 251.874ZM192.886 245.998C191.912 245.024 190.335 245.024 189.36 245.998C188.386 246.972 188.386 248.549 189.36 249.524C190.335 250.498 191.912 250.498 192.886 249.524C193.86 248.549 193.86 246.972 192.886 245.998ZM187.01 240.122C186.036 239.148 184.459 239.148 183.484 240.122C182.51 241.096 182.51 242.673 183.484 243.648C184.459 244.622 186.036 244.622 187.01 243.648C187.984 242.673 187.984 241.096 187.01 240.122ZM181.134 234.246C180.159 233.271 178.582 233.271 177.608 234.246C176.634 235.22 176.634 236.797 177.608 237.771C178.582 238.746 180.159 238.746 181.134 237.771C182.108 236.797 182.108 235.22 181.134 234.246ZM175.258 228.37C174.283 227.395 172.706 227.395 171.732 228.37C170.758 229.344 170.758 230.921 171.732 231.895C172.706 232.87 174.283 232.87 175.258 231.895C176.232 230.921 176.232 229.344 175.258 228.37ZM169.382 222.494C168.407 221.519 166.83 221.519 165.856 222.494C164.882 223.468 164.882 225.045 165.856 226.019C166.83 226.994 168.407 226.994 169.382 226.019C170.356 225.045 170.356 223.468 169.382 222.494ZM163.505 216.618C162.531 215.643 160.954 215.643 159.98 216.618C159.005 217.592 159.005 219.169 159.98 220.143C160.954 221.118 162.531 221.118 163.505 220.143C164.48 219.169 164.48 217.592 163.505 216.618ZM157.629 210.741C156.655 209.767 155.078 209.767 154.104 210.741C153.129 211.716 153.129 213.293 154.104 214.267C155.078 215.241 156.655 215.241 157.629 214.267C158.604 213.293 158.604 211.716 157.629 210.741ZM151.532 205.086C150.681 204.235 149.3 204.235 148.449 205.086C147.597 205.938 147.597 207.319 148.449 208.17C149.3 209.021 150.681 209.021 151.532 208.17C152.384 207.319 152.384 205.938 151.532 205.086ZM144.91 199.956C144.471 199.516 143.76 199.516 143.321 199.956C142.881 200.395 142.881 201.106 143.321 201.546C143.76 201.985 144.471 201.985 144.91 201.546C145.35 201.106 145.35 200.395 144.91 199.956ZM103.486 159.112C103.207 158.833 102.755 158.833 102.476 159.112C102.198 159.391 102.198 159.843 102.476 160.121C102.755 160.4 103.207 160.4 103.486 160.121C103.765 159.843 103.765 159.391 103.486 159.112ZM92.7783 146.315C91.922 145.459 90.5359 145.459 89.6821 146.315C88.8258 147.172 88.8258 148.558 89.6821 149.412C90.5384 150.268 91.9246 150.268 92.7783 149.412C93.6346 148.555 93.6346 147.169 92.7783 146.315ZM87.1157 140.226C86.1414 139.251 84.5643 139.251 83.59 140.226C82.6157 141.2 82.6157 142.777 83.59 143.751C84.5643 144.726 86.1414 144.726 87.1157 143.751C88.09 142.777 88.09 141.2 87.1157 140.226ZM263.355 304.81C262.408 303.863 260.874 303.863 259.927 304.81C258.981 305.757 258.981 307.291 259.927 308.24C260.874 309.187 262.408 309.187 263.355 308.24C264.302 307.293 264.302 305.759 263.355 304.812V304.81ZM257.396 299.017C256.495 298.115 255.033 298.115 254.134 299.017C253.233 299.918 253.233 301.38 254.134 302.279C255.035 303.18 256.497 303.18 257.396 302.279C258.297 301.377 258.297 299.916 257.396 299.017ZM245.774 287.134C244.8 286.16 243.223 286.16 242.249 287.134C241.274 288.108 241.274 289.686 242.249 290.66C243.223 291.634 244.8 291.634 245.774 290.66C246.749 289.686 246.749 288.108 245.774 287.134ZM239.898 281.258C238.924 280.284 237.347 280.284 236.373 281.258C235.398 282.232 235.398 283.809 236.373 284.784C237.347 285.758 238.924 285.758 239.898 284.784C240.873 283.809 240.873 282.232 239.898 281.258ZM234.022 275.382C233.048 274.408 231.471 274.408 230.497 275.382C229.522 276.356 229.522 277.933 230.497 278.908C231.471 279.882 233.048 279.882 234.022 278.908C234.997 277.933 234.997 276.356 234.022 275.382ZM228.146 269.506C227.172 268.532 225.595 268.532 224.62 269.506C223.646 270.48 223.646 272.057 224.62 273.032C225.595 274.006 227.172 274.006 228.146 273.032C229.12 272.057 229.12 270.48 228.146 269.506ZM222.27 263.63C221.296 262.655 219.719 262.655 218.744 263.63C217.77 264.604 217.77 266.181 218.744 267.155C219.719 268.13 221.296 268.13 222.27 267.155C223.244 266.181 223.244 264.604 222.27 263.63ZM216.394 257.754C215.42 256.779 213.843 256.779 212.868 257.754C211.894 258.728 211.894 260.305 212.868 261.279C213.843 262.254 215.42 262.254 216.394 261.279C217.368 260.305 217.368 258.728 216.394 257.754ZM210.518 251.878C209.544 250.903 207.966 250.903 206.992 251.878C206.018 252.852 206.018 254.429 206.992 255.403C207.966 256.378 209.544 256.378 210.518 255.403C211.492 254.429 211.492 252.852 210.518 251.878ZM204.642 246.001C203.667 245.027 202.09 245.027 201.116 246.001C200.142 246.976 200.142 248.553 201.116 249.527C202.09 250.501 203.667 250.501 204.642 249.527C205.616 248.553 205.616 246.976 204.642 246.001ZM198.766 240.125C197.791 239.151 196.214 239.151 195.24 240.125C194.266 241.1 194.266 242.677 195.24 243.651C196.214 244.625 197.791 244.625 198.766 243.651C199.74 242.677 199.74 241.1 198.766 240.125ZM192.89 234.249C191.915 233.275 190.338 233.275 189.364 234.249C188.39 235.224 188.39 236.801 189.364 237.775C190.338 238.749 191.915 238.749 192.89 237.775C193.864 236.801 193.864 235.224 192.89 234.249ZM187.013 228.373C186.039 227.399 184.462 227.399 183.488 228.373C182.513 229.347 182.513 230.925 183.488 231.899C184.462 232.873 186.039 232.873 187.013 231.899C187.988 230.925 187.988 229.347 187.013 228.373ZM181.137 222.497C180.163 221.523 178.586 221.523 177.612 222.497C176.637 223.471 176.637 225.048 177.612 226.023C178.586 226.997 180.163 226.997 181.137 226.023C182.112 225.048 182.112 223.471 181.137 222.497ZM175.261 216.621C174.287 215.647 172.71 215.647 171.736 216.621C170.761 217.595 170.761 219.172 171.736 220.147C172.71 221.121 174.287 221.121 175.261 220.147C176.236 219.172 176.236 217.595 175.261 216.621ZM169.385 210.745C168.411 209.771 166.834 209.771 165.859 210.745C164.885 211.719 164.885 213.296 165.859 214.271C166.834 215.245 168.411 215.245 169.385 214.271C170.359 213.296 170.359 211.719 169.385 210.745ZM162.962 205.414C162.289 204.741 161.201 204.741 160.528 205.414C159.855 206.087 159.855 207.174 160.528 207.847C161.201 208.52 162.289 208.52 162.962 207.847C163.635 207.174 163.635 206.087 162.962 205.414ZM116.402 157.955C115.483 157.036 113.989 157.036 113.07 157.955C112.151 158.874 112.151 160.369 113.07 161.288C113.989 162.207 115.48 162.207 116.402 161.288C117.321 160.369 117.321 158.877 116.402 157.955ZM110.621 151.981C109.647 151.007 108.07 151.007 107.096 151.981C106.121 152.956 106.121 154.533 107.096 155.507C108.07 156.481 109.647 156.481 110.621 155.507C111.596 154.533 111.596 152.956 110.621 151.981ZM104.642 146.208C103.726 145.292 102.239 145.292 101.325 146.208C100.408 147.125 100.408 148.611 101.325 149.525C102.242 150.442 103.728 150.442 104.642 149.525C105.559 148.609 105.559 147.125 104.642 146.208ZM98.8615 140.234C97.8922 139.265 96.3202 139.265 95.3484 140.234C94.3791 141.203 94.3791 142.775 95.3484 143.747C96.3177 144.716 97.8897 144.716 98.8615 143.747C99.8308 142.778 99.8308 141.206 98.8615 140.234ZM92.9502 134.393C91.9985 133.441 90.4592 133.441 89.5074 134.393C88.5557 135.345 88.5557 136.884 89.5074 137.836C90.4592 138.788 91.9985 138.788 92.9502 137.836C93.902 136.884 93.902 135.345 92.9502 134.393ZM251.652 281.26C250.678 280.286 249.101 280.286 248.127 281.26C247.152 282.235 247.152 283.812 248.127 284.786C249.101 285.76 250.678 285.76 251.652 284.786C252.627 283.812 252.627 282.235 251.652 281.26ZM245.776 275.384C244.802 274.41 243.225 274.41 242.251 275.384C241.276 276.358 241.276 277.936 242.251 278.91C243.225 279.884 244.802 279.884 245.776 278.91C246.751 277.936 246.751 276.358 245.776 275.384ZM239.9 269.508C238.926 268.534 237.349 268.534 236.374 269.508C235.4 270.482 235.4 272.059 236.374 273.034C237.349 274.008 238.926 274.008 239.9 273.034C240.875 272.059 240.875 270.482 239.9 269.508ZM234.024 263.632C233.05 262.658 231.473 262.658 230.498 263.632C229.524 264.606 229.524 266.183 230.498 267.158C231.473 268.132 233.05 268.132 234.024 267.158C234.998 266.183 234.998 264.606 234.024 263.632ZM228.148 257.756C227.174 256.782 225.597 256.782 224.622 257.756C223.648 258.73 223.648 260.307 224.622 261.282C225.597 262.256 227.174 262.256 228.148 261.282C229.122 260.307 229.122 258.73 228.148 257.756ZM222.272 251.88C221.298 250.905 219.721 250.905 218.746 251.88C217.772 252.854 217.772 254.431 218.746 255.405C219.721 256.38 221.298 256.38 222.272 255.405C223.246 254.431 223.246 252.854 222.272 251.88ZM216.396 246.004C215.421 245.029 213.844 245.029 212.87 246.004C211.896 246.978 211.896 248.555 212.87 249.529C213.844 250.504 215.421 250.504 216.396 249.529C217.37 248.555 217.37 246.978 216.396 246.004ZM210.52 240.128C209.545 239.153 207.968 239.153 206.994 240.128C206.02 241.102 206.02 242.679 206.994 243.653C207.968 244.628 209.545 244.628 210.52 243.653C211.494 242.679 211.494 241.102 210.52 240.128ZM204.644 234.251C203.669 233.277 202.092 233.277 201.118 234.251C200.144 235.226 200.144 236.803 201.118 237.777C202.092 238.751 203.669 238.751 204.644 237.777C205.618 236.803 205.618 235.226 204.644 234.251ZM198.767 228.375C197.793 227.401 196.216 227.401 195.242 228.375C194.267 229.35 194.267 230.927 195.242 231.901C196.216 232.875 197.793 232.875 198.767 231.901C199.742 230.927 199.742 229.35 198.767 228.375ZM192.891 222.499C191.917 221.525 190.34 221.525 189.366 222.499C188.391 223.474 188.391 225.051 189.366 226.025C190.34 226.999 191.917 226.999 192.891 226.025C193.866 225.051 193.866 223.474 192.891 222.499ZM187.015 216.623C186.041 215.649 184.464 215.649 183.49 216.623C182.515 217.597 182.515 219.175 183.49 220.149C184.464 221.123 186.041 221.123 187.015 220.149C187.99 219.175 187.99 217.597 187.015 216.623ZM181.021 210.865C180.112 209.956 178.638 209.956 177.732 210.865C176.822 211.774 176.822 213.248 177.732 214.155C178.641 215.064 180.115 215.064 181.021 214.155C181.93 213.246 181.93 211.772 181.021 210.865ZM127.064 159.049C126.747 158.733 126.232 158.733 125.916 159.049C125.6 159.366 125.6 159.881 125.916 160.197C126.232 160.514 126.747 160.514 127.064 160.197C127.38 159.881 127.38 159.366 127.064 159.049ZM122.363 151.998C121.396 151.031 119.831 151.031 118.865 151.998C117.898 152.965 117.898 154.529 118.865 155.496C119.831 156.463 121.396 156.463 122.363 155.496C123.329 154.529 123.329 152.965 122.363 151.998ZM116.499 146.107C115.525 145.132 113.948 145.132 112.973 146.107C111.999 147.081 111.999 148.658 112.973 149.632C113.948 150.607 115.525 150.607 116.499 149.632C117.473 148.658 117.473 147.081 116.499 146.107ZM110.623 140.231C109.649 139.256 108.072 139.256 107.097 140.231C106.123 141.205 106.123 142.782 107.097 143.756C108.072 144.731 109.649 144.731 110.623 143.756C111.597 142.782 111.597 141.205 110.623 140.231ZM104.747 134.355C103.773 133.38 102.196 133.38 101.221 134.355C100.247 135.329 100.247 136.906 101.221 137.88C102.196 138.855 103.773 138.855 104.747 137.88C105.721 136.906 105.721 135.329 104.747 134.355ZM98.8432 128.506C97.8839 127.547 96.332 127.547 95.3728 128.506C94.4135 129.465 94.4135 131.017 95.3728 131.976C96.332 132.936 97.8839 132.936 98.8432 131.976C99.8025 131.017 99.8025 129.465 98.8432 128.506ZM262.862 281.802C262.186 281.126 261.091 281.126 260.413 281.802C259.738 282.477 259.738 283.572 260.413 284.25C261.089 284.926 262.184 284.926 262.862 284.25C263.537 283.575 263.537 282.48 262.862 281.802ZM257.526 275.386C256.551 274.411 254.974 274.411 254 275.386C253.026 276.36 253.026 277.937 254 278.911C254.974 279.886 256.551 279.886 257.526 278.911C258.5 277.937 258.5 276.36 257.526 275.386ZM251.649 269.51C250.675 268.535 249.098 268.535 248.124 269.51C247.149 270.484 247.149 272.061 248.124 273.035C249.098 274.01 250.675 274.01 251.649 273.035C252.624 272.061 252.624 270.484 251.649 269.51ZM245.773 263.634C244.799 262.659 243.222 262.659 242.248 263.634C241.273 264.608 241.273 266.185 242.248 267.159C243.222 268.134 244.799 268.134 245.773 267.159C246.748 266.185 246.748 264.608 245.773 263.634ZM239.897 257.757C238.923 256.783 237.346 256.783 236.372 257.757C235.397 258.732 235.397 260.309 236.372 261.283C237.346 262.257 238.923 262.257 239.897 261.283C240.872 260.309 240.872 258.732 239.897 257.757ZM234.021 251.881C233.047 250.907 231.47 250.907 230.495 251.881C229.521 252.856 229.521 254.433 230.495 255.407C231.47 256.381 233.047 256.381 234.021 255.407C234.995 254.433 234.995 252.856 234.021 251.881ZM228.145 246.005C227.171 245.031 225.594 245.031 224.619 246.005C223.645 246.98 223.645 248.557 224.619 249.531C225.594 250.505 227.171 250.505 228.145 249.531C229.119 248.557 229.119 246.98 228.145 246.005ZM222.269 240.129C221.295 239.155 219.718 239.155 218.743 240.129C217.769 241.103 217.769 242.681 218.743 243.655C219.718 244.629 221.295 244.629 222.269 243.655C223.243 242.681 223.243 241.103 222.269 240.129ZM216.393 234.253C215.419 233.279 213.841 233.279 212.867 234.253C211.893 235.227 211.893 236.804 212.867 237.779C213.841 238.753 215.419 238.753 216.393 237.779C217.367 236.804 217.367 235.227 216.393 234.253ZM210.517 228.377C209.542 227.403 207.965 227.403 206.991 228.377C206.017 229.351 206.017 230.928 206.991 231.903C207.965 232.877 209.542 232.877 210.517 231.903C211.491 230.928 211.491 229.351 210.517 228.377ZM204.641 222.501C203.666 221.527 202.089 221.527 201.115 222.501C200.141 223.475 200.141 225.052 201.115 226.027C202.089 227.001 203.666 227.001 204.641 226.027C205.615 225.052 205.615 223.475 204.641 222.501ZM198.765 216.625C197.79 215.65 196.213 215.65 195.239 216.625C194.265 217.599 194.265 219.176 195.239 220.15C196.213 221.125 197.79 221.125 198.765 220.15C199.739 219.176 199.739 217.599 198.765 216.625ZM192.888 210.749C191.914 209.774 190.337 209.774 189.363 210.749C188.388 211.723 188.388 213.3 189.363 214.274C190.337 215.249 191.914 215.249 192.888 214.274C193.863 213.3 193.863 211.723 192.888 210.749ZM186.633 205.252C185.87 204.488 184.632 204.488 183.868 205.252C183.105 206.015 183.105 207.253 183.868 208.017C184.632 208.78 185.87 208.78 186.633 208.017C187.397 207.253 187.397 206.015 186.633 205.252ZM180.536 199.597C179.896 198.956 178.854 198.956 178.213 199.597C177.573 200.237 177.573 201.279 178.213 201.919C178.853 202.56 179.896 202.56 180.536 201.919C181.176 201.279 181.176 200.237 180.536 199.597ZM133.112 153.002C132.701 152.59 132.033 152.59 131.618 153.002C131.206 153.414 131.206 154.082 131.618 154.496C132.03 154.908 132.698 154.908 133.112 154.496C133.524 154.085 133.524 153.417 133.112 153.002ZM127.919 146.441C127.128 145.65 125.848 145.65 125.057 146.441C124.266 147.232 124.266 148.512 125.057 149.303C125.848 150.094 127.128 150.094 127.919 149.303C128.71 148.512 128.71 147.232 127.919 146.441ZM122.355 140.253C121.393 139.291 119.833 139.291 118.869 140.253C117.907 141.215 117.907 142.774 118.869 143.736C119.831 144.698 121.39 144.698 122.355 143.736C123.316 142.774 123.316 141.215 122.355 140.253ZM116.499 134.357C115.524 133.383 113.947 133.383 112.973 134.357C111.999 135.331 111.999 136.908 112.973 137.883C113.947 138.857 115.524 138.857 116.499 137.883C117.473 136.908 117.473 135.331 116.499 134.357ZM110.623 128.481C109.648 127.507 108.071 127.507 107.097 128.481C106.123 129.455 106.123 131.032 107.097 132.007C108.071 132.981 109.648 132.981 110.623 132.007C111.597 131.032 111.597 129.455 110.623 128.481ZM104.317 123.034C103.581 122.298 102.386 122.298 101.648 123.034C100.912 123.77 100.912 124.965 101.648 125.703C102.383 126.439 103.579 126.439 104.317 125.703C105.053 124.968 105.053 123.772 104.317 123.034ZM268.831 275.835C268.105 275.109 266.93 275.109 266.204 275.835C265.478 276.561 265.478 277.736 266.204 278.461C266.93 279.187 268.105 279.187 268.831 278.461C269.556 277.736 269.556 276.561 268.831 275.835ZM263.404 269.509C262.43 268.535 260.853 268.535 259.878 269.509C258.904 270.484 258.904 272.061 259.878 273.035C260.853 274.009 262.43 274.009 263.404 273.035C264.378 272.061 264.378 270.484 263.404 269.509ZM257.528 263.633C256.554 262.659 254.976 262.659 254.002 263.633C253.028 264.607 253.028 266.184 254.002 267.159C254.976 268.133 256.554 268.133 257.528 267.159C258.502 266.184 258.502 264.607 257.528 263.633ZM251.652 257.757C250.677 256.783 249.1 256.783 248.126 257.757C247.152 258.731 247.152 260.308 248.126 261.283C249.1 262.257 250.677 262.257 251.652 261.283C252.626 260.308 252.626 258.731 251.652 257.757ZM245.776 251.881C244.801 250.907 243.224 250.907 242.25 251.881C241.276 252.855 241.276 254.432 242.25 255.407C243.224 256.381 244.801 256.381 245.776 255.407C246.75 254.432 246.75 252.855 245.776 251.881ZM239.9 246.005C238.925 245.031 237.348 245.031 236.374 246.005C235.4 246.979 235.4 248.556 236.374 249.531C237.348 250.505 238.925 250.505 239.9 249.531C240.874 248.556 240.874 246.979 239.9 246.005ZM234.023 240.129C233.049 239.154 231.472 239.154 230.498 240.129C229.523 241.103 229.523 242.68 230.498 243.654C231.472 244.629 233.049 244.629 234.023 243.654C234.998 242.68 234.998 241.103 234.023 240.129ZM228.147 234.253C227.173 233.278 225.596 233.278 224.622 234.253C223.647 235.227 223.647 236.804 224.622 237.778C225.596 238.753 227.173 238.753 228.147 237.778C229.122 236.804 229.122 235.227 228.147 234.253ZM222.271 228.377C221.297 227.402 219.72 227.402 218.746 228.377C217.771 229.351 217.771 230.928 218.746 231.902C219.72 232.877 221.297 232.877 222.271 231.902C223.246 230.928 223.246 229.351 222.271 228.377ZM216.395 222.5C215.421 221.526 213.844 221.526 212.869 222.5C211.895 223.475 211.895 225.052 212.869 226.026C213.844 227 215.421 227 216.395 226.026C217.369 225.052 217.369 223.475 216.395 222.5ZM210.519 216.624C209.545 215.65 207.968 215.65 206.993 216.624C206.019 217.599 206.019 219.176 206.993 220.15C207.968 221.124 209.545 221.124 210.519 220.15C211.493 219.176 211.493 217.599 210.519 216.624ZM204.643 210.748C203.669 209.774 202.092 209.774 201.117 210.748C200.143 211.723 200.143 213.3 201.117 214.274C202.092 215.248 203.669 215.248 204.643 214.274C205.617 213.3 205.617 211.723 204.643 210.748ZM198.767 204.872C197.793 203.898 196.215 203.898 195.241 204.872C194.267 205.846 194.267 207.423 195.241 208.398C196.215 209.372 197.793 209.372 198.767 208.398C199.741 207.423 199.741 205.846 198.767 204.872ZM192.891 198.996C191.916 198.022 190.339 198.022 189.365 198.996C188.391 199.97 188.391 201.547 189.365 202.522C190.339 203.496 191.916 203.496 192.891 202.522C193.865 201.547 193.865 199.97 192.891 198.996ZM186.952 193.183C186.013 192.244 184.491 192.244 183.552 193.183C182.613 194.122 182.613 195.644 183.552 196.583C184.491 197.522 186.013 197.522 186.952 196.583C187.891 195.644 187.891 194.122 186.952 193.183ZM127.967 134.643C127.151 133.827 125.825 133.827 125.009 134.643C124.193 135.459 124.193 136.785 125.009 137.601C125.825 138.417 127.151 138.417 127.967 137.601C128.783 136.785 128.783 135.459 127.967 134.643ZM122.355 128.503C121.393 127.541 119.833 127.541 118.869 128.503C117.907 129.465 117.907 131.024 118.869 131.986C119.831 132.948 121.39 132.948 122.355 131.986C123.316 131.024 123.316 129.465 122.355 128.503ZM116.491 122.612C115.522 121.642 113.95 121.642 112.978 122.612C112.009 123.581 112.009 125.153 112.978 126.125C113.947 127.094 115.519 127.094 116.491 126.125C117.46 125.156 117.46 123.584 116.491 122.612ZM275.071 269.595C274.144 268.668 272.638 268.668 271.711 269.595C270.785 270.521 270.785 272.025 271.711 272.955C272.638 273.881 274.142 273.881 275.071 272.955C275.998 272.028 275.998 270.524 275.071 269.595ZM269.278 263.636C268.304 262.661 266.726 262.661 265.752 263.636C264.778 264.61 264.778 266.187 265.752 267.161C266.726 268.136 268.304 268.136 269.278 267.161C270.252 266.187 270.252 264.61 269.278 263.636ZM263.402 257.76C262.427 256.785 260.85 256.785 259.876 257.76C258.902 258.734 258.902 260.311 259.876 261.285C260.85 262.26 262.427 262.26 263.402 261.285C264.376 260.311 264.376 258.734 263.402 257.76ZM257.526 251.883C256.551 250.909 254.974 250.909 254 251.883C253.026 252.858 253.026 254.435 254 255.409C254.974 256.383 256.551 256.383 257.526 255.409C258.5 254.435 258.5 252.858 257.526 251.883ZM251.65 246.007C250.675 245.033 249.098 245.033 248.124 246.007C247.15 246.982 247.15 248.559 248.124 249.533C249.098 250.507 250.675 250.507 251.65 249.533C252.624 248.559 252.624 246.982 251.65 246.007ZM245.773 240.131C244.799 239.157 243.222 239.157 242.248 240.131C241.273 241.106 241.273 242.683 242.248 243.657C243.222 244.631 244.799 244.631 245.773 243.657C246.748 242.683 246.748 241.106 245.773 240.131ZM239.897 234.255C238.923 233.281 237.346 233.281 236.372 234.255C235.397 235.23 235.397 236.807 236.372 237.781C237.346 238.755 238.923 238.755 239.897 237.781C240.872 236.807 240.872 235.23 239.897 234.255ZM234.021 228.379C233.047 227.405 231.47 227.405 230.496 228.379C229.521 229.353 229.521 230.93 230.496 231.905C231.47 232.879 233.047 232.879 234.021 231.905C234.996 230.93 234.996 229.353 234.021 228.379ZM228.145 222.503C227.171 221.529 225.594 221.529 224.619 222.503C223.645 223.477 223.645 225.054 224.619 226.029C225.594 227.003 227.171 227.003 228.145 226.029C229.119 225.054 229.119 223.477 228.145 222.503ZM222.269 216.627C221.295 215.653 219.718 215.653 218.743 216.627C217.769 217.601 217.769 219.178 218.743 220.153C219.718 221.127 221.295 221.127 222.269 220.153C223.243 219.178 223.243 217.601 222.269 216.627ZM216.393 210.751C215.419 209.776 213.842 209.776 212.867 210.751C211.893 211.725 211.893 213.302 212.867 214.276C213.842 215.251 215.419 215.251 216.393 214.276C217.367 213.302 217.367 211.725 216.393 210.751ZM210.517 204.875C209.543 203.9 207.965 203.9 206.991 204.875C206.017 205.849 206.017 207.426 206.991 208.4C207.965 209.375 209.543 209.375 210.517 208.4C211.491 207.426 211.491 205.849 210.517 204.875ZM204.641 198.999C203.666 198.024 202.089 198.024 201.115 198.999C200.141 199.973 200.141 201.55 201.115 202.524C202.089 203.499 203.666 203.499 204.641 202.524C205.615 201.55 205.615 199.973 204.641 198.999ZM198.765 193.122C197.79 192.148 196.213 192.148 195.239 193.122C194.265 194.097 194.265 195.674 195.239 196.648C196.213 197.622 197.79 197.622 198.765 196.648C199.739 195.674 199.739 194.097 198.765 193.122ZM192.889 187.246C191.914 186.272 190.337 186.272 189.363 187.246C188.389 188.221 188.389 189.798 189.363 190.772C190.337 191.746 191.914 191.746 192.889 190.772C193.863 189.798 193.863 188.221 192.889 187.246ZM179.934 176.697C179.625 176.388 179.123 176.388 178.814 176.697C178.505 177.006 178.505 177.508 178.814 177.817C179.123 178.126 179.625 178.126 179.934 177.817C180.243 177.508 180.243 177.006 179.934 176.697ZM121.09 118.019C120.826 117.755 120.399 117.755 120.136 118.019C119.872 118.283 119.872 118.71 120.136 118.973C120.399 119.237 120.826 119.237 121.09 118.973C121.353 118.71 121.353 118.283 121.09 118.019ZM280.743 263.928C279.93 263.115 278.611 263.115 277.798 263.928C276.984 264.742 276.984 266.06 277.798 266.874C278.611 267.688 279.93 267.688 280.743 266.874C281.557 266.06 281.557 264.742 280.743 263.928ZM275.159 257.761C274.184 256.787 272.607 256.787 271.633 257.761C270.659 258.735 270.659 260.312 271.633 261.287C272.607 262.261 274.184 262.261 275.159 261.287C276.133 260.312 276.133 258.735 275.159 257.761ZM269.282 251.885C268.308 250.91 266.731 250.91 265.757 251.885C264.782 252.859 264.782 254.436 265.757 255.41C266.731 256.385 268.308 256.385 269.282 255.41C270.257 254.436 270.257 252.859 269.282 251.885ZM263.406 246.009C262.432 245.034 260.855 245.034 259.881 246.009C258.906 246.983 258.906 248.56 259.881 249.534C260.855 250.509 262.432 250.509 263.406 249.534C264.381 248.56 264.381 246.983 263.406 246.009ZM257.467 240.195C256.528 239.256 255.006 239.256 254.067 240.195C253.128 241.134 253.128 242.656 254.067 243.595C255.006 244.535 256.528 244.535 257.467 243.595C258.407 242.656 258.407 241.135 257.467 240.195ZM250.18 235.73C250.019 235.57 249.761 235.57 249.6 235.73C249.439 235.891 249.439 236.15 249.6 236.311C249.761 236.471 250.019 236.471 250.18 236.311C250.341 236.15 250.341 235.891 250.18 235.73ZM245.735 228.423C244.783 227.471 243.244 227.471 242.292 228.423C241.341 229.375 241.341 230.914 242.292 231.866C243.244 232.818 244.783 232.818 245.735 231.866C246.687 230.914 246.687 229.375 245.735 228.423ZM239.902 222.504C238.927 221.53 237.35 221.53 236.376 222.504C235.402 223.479 235.402 225.056 236.376 226.03C237.35 227.004 238.927 227.004 239.902 226.03C240.876 225.056 240.876 223.479 239.902 222.504ZM234.026 216.628C233.051 215.654 231.474 215.654 230.5 216.628C229.526 217.603 229.526 219.18 230.5 220.154C231.474 221.128 233.051 221.128 234.026 220.154C235 219.18 235 217.603 234.026 216.628ZM228.15 210.752C227.175 209.778 225.598 209.778 224.624 210.752C223.65 211.726 223.65 213.304 224.624 214.278C225.598 215.252 227.175 215.252 228.15 214.278C229.124 213.304 229.124 211.726 228.15 210.752ZM222.273 204.876C221.299 203.902 219.722 203.902 218.748 204.876C217.773 205.85 217.773 207.427 218.748 208.402C219.722 209.376 221.299 209.376 222.273 208.402C223.248 207.427 223.248 205.85 222.273 204.876ZM216.397 199C215.423 198.026 213.846 198.026 212.872 199C211.897 199.974 211.897 201.551 212.872 202.526C213.846 203.5 215.423 203.5 216.397 202.526C217.372 201.551 217.372 199.974 216.397 199ZM210.521 193.124C209.547 192.15 207.97 192.15 206.996 193.124C206.021 194.098 206.021 195.675 206.996 196.65C207.97 197.624 209.547 197.624 210.521 196.65C211.496 195.675 211.496 194.098 210.521 193.124ZM204.645 187.248C203.671 186.273 202.094 186.273 201.12 187.248C200.145 188.222 200.145 189.799 201.12 190.773C202.094 191.748 203.671 191.748 204.645 190.773C205.62 189.799 205.62 188.222 204.645 187.248ZM198.769 181.372C197.795 180.397 196.218 180.397 195.243 181.372C194.269 182.346 194.269 183.923 195.243 184.897C196.218 185.872 197.795 185.872 198.769 184.897C199.743 183.923 199.743 182.346 198.769 181.372ZM192.845 175.543C191.899 174.596 190.364 174.596 189.418 175.543C188.471 176.49 188.471 178.024 189.418 178.971C190.364 179.918 191.899 179.918 192.848 178.971C193.795 178.024 193.795 176.49 192.848 175.541L192.845 175.543ZM186.934 169.702C186.007 168.776 184.501 168.776 183.574 169.702C182.647 170.629 182.647 172.136 183.574 173.062C184.501 173.989 186.005 173.989 186.934 173.062C187.861 172.136 187.861 170.632 186.934 169.702ZM180.905 163.979C180.061 163.136 178.692 163.136 177.849 163.979C177.005 164.823 177.005 166.192 177.849 167.035C178.692 167.879 180.061 167.879 180.905 167.035C181.748 166.192 181.748 164.823 180.905 163.979ZM174.027 159.105C173.736 158.814 173.266 158.814 172.977 159.105C172.686 159.397 172.686 159.866 172.977 160.155C173.268 160.446 173.738 160.446 174.027 160.155C174.318 159.864 174.318 159.394 174.027 159.105ZM157.574 140.302C156.634 139.363 155.113 139.363 154.173 140.302C153.234 141.241 153.234 142.763 154.173 143.702C155.113 144.641 156.634 144.641 157.574 143.702C158.513 142.763 158.513 141.241 157.574 140.302ZM151.67 134.453C150.746 133.529 149.247 133.529 148.325 134.453C147.401 135.377 147.401 136.876 148.325 137.798C149.249 138.722 150.746 138.722 151.67 137.798C152.594 136.874 152.594 135.377 151.67 134.453ZM133.06 117.806C132.678 117.425 132.058 117.425 131.676 117.806C131.294 118.188 131.294 118.808 131.676 119.19C132.058 119.572 132.678 119.572 133.06 119.19C133.441 118.808 133.441 118.188 133.06 117.806ZM281.039 251.887C280.065 250.913 278.488 250.913 277.513 251.887C276.539 252.861 276.539 254.438 277.513 255.413C278.488 256.387 280.065 256.387 281.039 255.413C282.013 254.438 282.013 252.861 281.039 251.887ZM275.163 246.011C274.189 245.037 272.612 245.037 271.637 246.011C270.663 246.985 270.663 248.562 271.637 249.537C272.612 250.511 274.189 250.511 275.163 249.537C276.137 248.562 276.137 246.985 275.163 246.011ZM269.287 240.135C268.312 239.161 266.735 239.161 265.761 240.135C264.787 241.109 264.787 242.686 265.761 243.661C266.735 244.635 268.312 244.635 269.287 243.661C270.261 242.686 270.261 241.109 269.287 240.135ZM263.348 234.322C262.409 233.382 260.887 233.382 259.948 234.322C259.009 235.261 259.009 236.782 259.948 237.722C260.887 238.661 262.409 238.661 263.348 237.722C264.287 236.783 264.287 235.261 263.348 234.322ZM256.06 229.857C255.9 229.696 255.641 229.696 255.48 229.857C255.32 230.017 255.32 230.276 255.48 230.437C255.641 230.597 255.9 230.597 256.06 230.437C256.221 230.276 256.221 230.017 256.06 229.857ZM251.568 222.597C250.644 221.673 249.147 221.673 248.223 222.597C247.299 223.521 247.299 225.018 248.223 225.942C249.147 226.866 250.646 226.866 251.568 225.942C252.492 225.018 252.492 223.521 251.568 222.597ZM245.782 216.63C244.808 215.656 243.231 215.656 242.257 216.63C241.282 217.605 241.282 219.182 242.257 220.156C243.231 221.13 244.808 221.13 245.782 220.156C246.757 219.182 246.757 217.605 245.782 216.63ZM239.906 210.754C238.932 209.78 237.355 209.78 236.38 210.754C235.406 211.729 235.406 213.306 236.38 214.28C237.355 215.254 238.932 215.254 239.906 214.28C240.88 213.306 240.88 211.729 239.906 210.754ZM234.03 204.878C233.056 203.904 231.479 203.904 230.504 204.878C229.53 205.853 229.53 207.43 230.504 208.404C231.479 209.378 233.056 209.378 234.03 208.404C235.004 207.43 235.004 205.853 234.03 204.878ZM228.154 199.002C227.18 198.028 225.603 198.028 224.628 199.002C223.654 199.976 223.654 201.553 224.628 202.528C225.603 203.502 227.18 203.502 228.154 202.528C229.128 201.553 229.128 199.976 228.154 199.002ZM222.278 193.126C221.304 192.152 219.726 192.152 218.752 193.126C217.778 194.1 217.778 195.677 218.752 196.652C219.726 197.626 221.304 197.626 222.278 196.652C223.252 195.677 223.252 194.1 222.278 193.126ZM216.402 187.25C215.427 186.276 213.85 186.276 212.876 187.25C211.902 188.224 211.902 189.801 212.876 190.776C213.85 191.75 215.427 191.75 216.402 190.776C217.376 189.801 217.376 188.224 216.402 187.25ZM210.526 181.374C209.551 180.4 207.974 180.4 207 181.374C206.026 182.348 206.026 183.925 207 184.9C207.974 185.874 209.551 185.874 210.526 184.9C211.5 183.925 211.5 182.348 210.526 181.374ZM204.65 175.498C203.675 174.523 202.098 174.523 201.124 175.498C200.15 176.472 200.15 178.049 201.124 179.023C202.098 179.998 203.675 179.998 204.65 179.023C205.624 178.049 205.624 176.472 204.65 175.498ZM198.773 169.622C197.799 168.647 196.222 168.647 195.248 169.622C194.273 170.596 194.273 172.173 195.248 173.147C196.222 174.122 197.799 174.122 198.773 173.147C199.748 172.173 199.748 170.596 198.773 169.622ZM192.897 163.746C191.923 162.771 190.346 162.771 189.372 163.746C188.397 164.72 188.397 166.297 189.372 167.271C190.346 168.246 191.923 168.246 192.897 167.271C193.872 166.297 193.872 164.72 192.897 163.746ZM187.021 157.869C186.047 156.895 184.47 156.895 183.496 157.869C182.521 158.844 182.521 160.421 183.496 161.395C184.47 162.369 186.047 162.369 187.021 161.395C187.996 160.421 187.996 158.844 187.021 157.869ZM169.385 140.249C168.416 139.279 166.844 139.279 165.872 140.249C164.903 141.218 164.903 142.79 165.872 143.762C166.841 144.731 168.413 144.731 169.385 143.762C170.354 142.792 170.354 141.221 169.385 140.249ZM163.517 134.365C162.542 133.391 160.965 133.391 159.991 134.365C159.017 135.339 159.017 136.916 159.991 137.891C160.965 138.865 162.542 138.865 163.517 137.891C164.491 136.916 164.491 135.339 163.517 134.365ZM157.64 128.489C156.666 127.515 155.089 127.515 154.115 128.489C153.14 129.463 153.14 131.04 154.115 132.015C155.089 132.989 156.666 132.989 157.64 132.015C158.615 131.04 158.615 129.463 157.64 128.489ZM139.57 111.303C138.842 110.575 137.659 110.575 136.929 111.303C136.2 112.031 136.2 113.214 136.929 113.945C137.657 114.673 138.84 114.673 139.57 113.945C140.299 113.216 140.299 112.034 139.57 111.303ZM250.855 211.563C250.328 211.036 249.474 211.036 248.947 211.563C248.42 212.09 248.42 212.944 248.947 213.471C249.474 213.999 250.328 213.999 250.855 213.471C251.383 212.944 251.383 212.09 250.855 211.563ZM245.788 204.878C244.814 203.904 243.236 203.904 242.262 204.878C241.288 205.853 241.288 207.43 242.262 208.404C243.236 209.378 244.814 209.378 245.788 208.404C246.762 207.43 246.762 205.853 245.788 204.878ZM239.912 199.002C238.937 198.028 237.36 198.028 236.386 199.002C235.412 199.977 235.412 201.554 236.386 202.528C237.36 203.502 238.937 203.502 239.912 202.528C240.886 201.554 240.886 199.977 239.912 199.002ZM234.036 193.126C233.061 192.152 231.484 192.152 230.51 193.126C229.536 194.101 229.536 195.678 230.51 196.652C231.484 197.626 233.061 197.626 234.036 196.652C235.01 195.678 235.01 194.101 234.036 193.126ZM228.16 187.25C227.185 186.276 225.608 186.276 224.634 187.25C223.66 188.224 223.66 189.801 224.634 190.776C225.608 191.75 227.185 191.75 228.16 190.776C229.134 189.801 229.134 188.224 228.16 187.25ZM222.283 181.374C221.309 180.4 219.732 180.4 218.758 181.374C217.783 182.348 217.783 183.925 218.758 184.9C219.732 185.874 221.309 185.874 222.283 184.9C223.258 183.925 223.258 182.348 222.283 181.374ZM216.407 175.498C215.433 174.524 213.856 174.524 212.882 175.498C211.907 176.472 211.907 178.049 212.882 179.024C213.856 179.998 215.433 179.998 216.407 179.024C217.382 178.049 217.382 176.472 216.407 175.498ZM210.531 169.622C209.557 168.648 207.98 168.648 207.006 169.622C206.031 170.596 206.031 172.173 207.006 173.148C207.98 174.122 209.557 174.122 210.531 173.148C211.506 172.173 211.506 170.596 210.531 169.622ZM204.655 163.746C203.681 162.771 202.104 162.771 201.129 163.746C200.155 164.72 200.155 166.297 201.129 167.271C202.104 168.246 203.681 168.246 204.655 167.271C205.629 166.297 205.629 164.72 204.655 163.746ZM198.779 157.87C197.805 156.895 196.228 156.895 195.253 157.87C194.279 158.844 194.279 160.421 195.253 161.395C196.228 162.37 197.805 162.37 198.779 161.395C199.753 160.421 199.753 158.844 198.779 157.87ZM192.903 151.994C191.929 151.019 190.352 151.019 189.377 151.994C188.403 152.968 188.403 154.545 189.377 155.519C190.352 156.493 191.929 156.493 192.903 155.519C193.877 154.545 193.877 152.968 192.903 151.994ZM186.708 146.436C185.909 145.638 184.616 145.638 183.818 146.436C183.019 147.235 183.019 148.528 183.818 149.327C184.616 150.125 185.909 150.125 186.708 149.327C187.506 148.528 187.506 147.235 186.708 146.436ZM180.922 140.47C180.073 139.621 178.7 139.621 177.854 140.47C177.005 141.319 177.005 142.692 177.854 143.538C178.702 144.387 180.076 144.387 180.922 143.538C181.771 142.69 181.771 141.316 180.922 140.47ZM175.275 134.365C174.3 133.391 172.723 133.391 171.749 134.365C170.775 135.34 170.775 136.917 171.749 137.891C172.723 138.865 174.3 138.865 175.275 137.891C176.249 136.917 176.249 135.34 175.275 134.365ZM169.398 128.489C168.424 127.515 166.847 127.515 165.873 128.489C164.898 129.463 164.898 131.04 165.873 132.015C166.847 132.989 168.424 132.989 169.398 132.015C170.373 131.04 170.373 129.463 169.398 128.489ZM163.522 122.613C162.548 121.639 160.971 121.639 159.997 122.613C159.022 123.587 159.022 125.164 159.997 126.139C160.971 127.113 162.548 127.113 163.522 126.139C164.497 125.164 164.497 123.587 163.522 122.613ZM156.456 117.925C156.14 117.608 155.625 117.608 155.308 117.925C154.992 118.241 154.992 118.756 155.308 119.072C155.625 119.389 156.14 119.389 156.456 119.072C156.773 118.756 156.773 118.241 156.456 117.925ZM144.732 106.145C144.4 105.813 143.86 105.813 143.529 106.145C143.197 106.476 143.197 107.016 143.529 107.348C143.86 107.679 144.4 107.679 144.732 107.348C145.063 107.016 145.063 106.476 144.732 106.145ZM251.015 199.655C250.4 199.04 249.403 199.04 248.79 199.655C248.175 200.27 248.175 201.267 248.79 201.88C249.406 202.495 250.403 202.495 251.015 201.88C251.63 201.265 251.63 200.268 251.015 199.655ZM245.747 193.171C244.795 192.219 243.256 192.219 242.304 193.171C241.352 194.123 241.352 195.662 242.304 196.614C243.256 197.566 244.795 197.566 245.747 196.614C246.699 195.662 246.699 194.123 245.747 193.171ZM239.913 187.252C238.939 186.278 237.362 186.278 236.388 187.252C235.413 188.227 235.413 189.804 236.388 190.778C237.362 191.752 238.939 191.752 239.913 190.778C240.888 189.804 240.888 188.227 239.913 187.252ZM234.037 181.376C233.063 180.402 231.486 180.402 230.512 181.376C229.537 182.351 229.537 183.928 230.512 184.902C231.486 185.876 233.063 185.876 234.037 184.902C235.012 183.928 235.012 182.351 234.037 181.376ZM228.161 175.5C227.187 174.526 225.61 174.526 224.636 175.5C223.661 176.474 223.661 178.051 224.636 179.026C225.61 180 227.187 180 228.161 179.026C229.136 178.051 229.136 176.474 228.161 175.5ZM222.285 169.624C221.311 168.65 219.734 168.65 218.759 169.624C217.785 170.598 217.785 172.175 218.759 173.15C219.734 174.124 221.311 174.124 222.285 173.15C223.259 172.175 223.259 170.598 222.285 169.624ZM216.409 163.748C215.435 162.774 213.858 162.774 212.883 163.748C211.909 164.722 211.909 166.299 212.883 167.274C213.858 168.248 215.435 168.248 216.409 167.274C217.383 166.299 217.383 164.722 216.409 163.748ZM210.533 157.872C209.559 156.897 207.982 156.897 207.007 157.872C206.033 158.846 206.033 160.423 207.007 161.397C207.982 162.372 209.559 162.372 210.533 161.397C211.507 160.423 211.507 158.846 210.533 157.872ZM204.657 151.996C203.683 151.021 202.105 151.021 201.131 151.996C200.157 152.97 200.157 154.547 201.131 155.521C202.105 156.496 203.683 156.496 204.657 155.521C205.631 154.547 205.631 152.97 204.657 151.996ZM198.781 146.12C197.806 145.145 196.229 145.145 195.255 146.12C194.281 147.094 194.281 148.671 195.255 149.645C196.229 150.62 197.806 150.62 198.781 149.645C199.755 148.671 199.755 147.094 198.781 146.12ZM192.885 140.264C191.923 139.302 190.363 139.302 189.402 140.264C188.44 141.225 188.44 142.785 189.402 143.747C190.363 144.708 191.923 144.708 192.885 143.747C193.846 142.785 193.846 141.225 192.885 140.264ZM187.028 134.367C186.054 133.393 184.477 133.393 183.503 134.367C182.528 135.342 182.528 136.919 183.503 137.893C184.477 138.867 186.054 138.867 187.028 137.893C188.003 136.919 188.003 135.342 187.028 134.367ZM181.152 128.491C180.178 127.517 178.601 127.517 177.627 128.491C176.652 129.466 176.652 131.043 177.627 132.017C178.601 132.991 180.178 132.991 181.152 132.017C182.127 131.043 182.127 129.466 181.152 128.491ZM175.276 122.615C174.302 121.641 172.725 121.641 171.751 122.615C170.776 123.589 170.776 125.166 171.751 126.141C172.725 127.115 174.302 127.115 175.276 126.141C176.251 125.166 176.251 123.589 175.276 122.615ZM169.4 116.739C168.426 115.765 166.849 115.765 165.874 116.739C164.9 117.713 164.9 119.29 165.874 120.265C166.849 121.239 168.426 121.239 169.4 120.265C170.374 119.29 170.374 117.713 169.4 116.739ZM163.517 110.87C162.547 109.901 160.975 109.901 160.003 110.87C159.034 111.84 159.034 113.412 160.003 114.384C160.973 115.353 162.545 115.353 163.517 114.384C164.486 113.414 164.486 111.842 163.517 110.87ZM145.502 93.629C144.746 92.8732 143.52 92.8732 142.765 93.629C142.009 94.3849 142.009 95.6103 142.765 96.3662C143.52 97.122 144.746 97.122 145.502 96.3662C146.258 95.6103 146.258 94.3849 145.502 93.629ZM245.762 181.405C244.802 180.445 243.251 180.445 242.291 181.405C241.332 182.364 241.332 183.916 242.291 184.875C243.251 185.834 244.802 185.834 245.762 184.875C246.721 183.916 246.721 182.364 245.762 181.405ZM239.795 175.619C238.886 174.71 237.412 174.71 236.506 175.619C235.597 176.528 235.597 178.002 236.506 178.909C237.415 179.818 238.889 179.818 239.795 178.909C240.704 178 240.704 176.526 239.795 175.619ZM234.03 169.632C233.06 168.663 231.488 168.663 230.517 169.632C229.547 170.602 229.547 172.174 230.517 173.146C231.486 174.115 233.058 174.115 234.03 173.146C234.999 172.176 234.999 170.604 234.03 169.632ZM227.933 163.977C227.084 163.128 225.71 163.128 224.864 163.977C224.015 164.824 224.015 166.2 224.864 167.046C225.713 167.895 227.086 167.895 227.933 167.046C228.781 166.197 228.781 164.824 227.933 163.977ZM222.097 158.058C221.225 157.187 219.814 157.187 218.945 158.058C218.074 158.93 218.074 160.341 218.945 161.21C219.816 162.081 221.228 162.081 222.097 161.21C222.968 160.339 222.968 158.927 222.097 158.058ZM216.406 151.997C215.432 151.022 213.855 151.022 212.881 151.997C211.906 152.971 211.906 154.548 212.881 155.522C213.855 156.497 215.432 156.497 216.406 155.522C217.381 154.548 217.381 152.971 216.406 151.997ZM210.53 146.12C209.556 145.146 207.979 145.146 207.004 146.12C206.03 147.095 206.03 148.672 207.004 149.646C207.979 150.62 209.556 150.62 210.53 149.646C211.504 148.672 211.504 147.095 210.53 146.12ZM204.654 140.244C203.68 139.27 202.103 139.27 201.128 140.244C200.154 141.219 200.154 142.796 201.128 143.77C202.103 144.744 203.68 144.744 204.654 143.77C205.628 142.796 205.628 141.219 204.654 140.244ZM198.778 134.368C197.804 133.394 196.227 133.394 195.252 134.368C194.278 135.343 194.278 136.92 195.252 137.894C196.227 138.868 197.804 138.868 198.778 137.894C199.752 136.92 199.752 135.343 198.778 134.368ZM192.902 128.492C191.928 127.518 190.35 127.518 189.376 128.492C188.402 129.466 188.402 131.044 189.376 132.018C190.35 132.992 191.928 132.992 192.902 132.018C193.876 131.044 193.876 129.466 192.902 128.492ZM187.026 122.616C186.051 121.642 184.474 121.642 183.5 122.616C182.526 123.59 182.526 125.167 183.5 126.142C184.474 127.116 186.051 127.116 187.026 126.142C188 125.167 188 123.59 187.026 122.616ZM181.15 116.74C180.175 115.766 178.598 115.766 177.624 116.74C176.65 117.714 176.65 119.291 177.624 120.266C178.598 121.24 180.175 121.24 181.15 120.266C182.124 119.291 182.124 117.714 181.15 116.74ZM175.274 110.864C174.299 109.89 172.722 109.89 171.748 110.864C170.774 111.838 170.774 113.415 171.748 114.39C172.722 115.364 174.299 115.364 175.274 114.39C176.248 113.415 176.248 111.838 175.274 110.864ZM169.397 104.988C168.423 104.013 166.846 104.013 165.872 104.988C164.897 105.962 164.897 107.539 165.872 108.513C166.846 109.488 168.423 109.488 169.397 108.513C170.372 107.539 170.372 105.962 169.397 104.988ZM163.147 99.4858C162.379 98.7174 161.136 98.7174 160.367 99.4858C159.599 100.254 159.599 101.497 160.367 102.266C161.136 103.034 162.379 103.034 163.147 102.266C163.916 101.497 163.916 100.254 163.147 99.4858ZM139.628 75.9939C138.867 75.233 137.636 75.233 136.875 75.9939C136.114 76.7547 136.114 77.9852 136.875 78.746C137.636 79.5069 138.867 79.5069 139.628 78.746C140.388 77.9852 140.388 76.7547 139.628 75.9939ZM132.556 71.3131C132.456 71.2126 132.295 71.2126 132.197 71.3131C132.097 71.4135 132.097 71.5742 132.197 71.6722C132.298 71.7726 132.458 71.7726 132.556 71.6722C132.657 71.5717 132.657 71.411 132.556 71.3131ZM216.404 140.247C215.43 139.272 213.853 139.272 212.878 140.247C211.904 141.221 211.904 142.798 212.878 143.772C213.853 144.747 215.43 144.747 216.404 143.772C217.378 142.798 217.378 141.221 216.404 140.247ZM210.528 134.371C209.554 133.396 207.977 133.396 207.002 134.371C206.028 135.345 206.028 136.922 207.002 137.896C207.977 138.871 209.554 138.871 210.528 137.896C211.502 136.922 211.502 135.345 210.528 134.371ZM204.652 128.494C203.677 127.52 202.1 127.52 201.126 128.494C200.152 129.469 200.152 131.046 201.126 132.02C202.1 132.994 203.677 132.994 204.652 132.02C205.626 131.046 205.626 129.469 204.652 128.494ZM198.776 122.618C197.801 121.644 196.224 121.644 195.25 122.618C194.276 123.593 194.276 125.17 195.25 126.144C196.224 127.118 197.801 127.118 198.776 126.144C199.75 125.17 199.75 123.593 198.776 122.618ZM192.9 116.742C191.925 115.768 190.348 115.768 189.374 116.742C188.4 117.717 188.4 119.294 189.374 120.268C190.348 121.242 191.925 121.242 192.9 120.268C193.874 119.294 193.874 117.717 192.9 116.742ZM187.024 110.866C186.049 109.892 184.472 109.892 183.498 110.866C182.524 111.84 182.524 113.418 183.498 114.392C184.472 115.366 186.049 115.366 187.024 114.392C187.998 113.418 187.998 111.84 187.024 110.866ZM181.147 104.99C180.173 104.016 178.596 104.016 177.622 104.99C176.647 105.964 176.647 107.541 177.622 108.516C178.596 109.49 180.173 109.49 181.147 108.516C182.122 107.541 182.122 105.964 181.147 104.99ZM175.271 99.1139C174.297 98.1396 172.72 98.1396 171.746 99.1139C170.771 100.088 170.771 101.665 171.746 102.64C172.72 103.614 174.297 103.614 175.271 102.64C176.246 101.665 176.246 100.088 175.271 99.1139ZM169.395 93.2378C168.421 92.2635 166.844 92.2635 165.87 93.2378C164.895 94.2122 164.895 95.7892 165.87 96.7635C166.844 97.7378 168.421 97.7378 169.395 96.7635C170.37 95.7892 170.37 94.2122 169.395 93.2378ZM163.504 87.3743C162.537 86.4075 160.973 86.4075 160.006 87.3743C159.039 88.3411 159.039 89.9055 160.006 90.8723C160.973 91.8391 162.537 91.8391 163.504 90.8723C164.471 89.9055 164.471 88.3411 163.504 87.3743ZM157.64 81.4831C156.666 80.5088 155.089 80.5088 154.115 81.4831C153.14 82.4574 153.14 84.0344 154.115 85.0088C155.089 85.9831 156.666 85.9831 157.64 85.0088C158.615 84.0344 158.615 82.4574 157.64 81.4831ZM151.217 76.1519C150.544 75.4789 149.457 75.4789 148.784 76.1519C148.111 76.8249 148.111 77.9122 148.784 78.5852C149.457 79.2582 150.544 79.2582 151.217 78.5852C151.89 77.9122 151.89 76.8249 151.217 76.1519ZM145.853 69.7635C144.899 68.8092 143.352 68.8092 142.398 69.7635C141.443 70.7177 141.443 72.2646 142.398 73.2188C143.352 74.1731 144.899 74.1731 145.853 73.2188C146.807 72.2646 146.807 70.7177 145.853 69.761V69.7635ZM139.645 64.2188C138.875 63.4479 137.624 63.4479 136.853 64.2188C136.082 64.9897 136.082 66.2403 136.853 67.0113C137.624 67.7822 138.874 67.7822 139.645 67.0113C140.416 66.2404 140.416 64.9898 139.645 64.2188ZM221.983 134.663C221.174 133.855 219.861 133.855 219.052 134.663C218.243 135.472 218.243 136.785 219.052 137.594C219.861 138.402 221.174 138.402 221.983 137.594C222.791 136.785 222.791 135.472 221.983 134.663ZM216.403 128.491C215.428 127.516 213.851 127.516 212.877 128.491C211.903 129.465 211.903 131.042 212.877 132.016C213.851 132.991 215.428 132.991 216.403 132.016C217.377 131.042 217.377 129.465 216.403 128.491ZM210.527 122.615C209.552 121.64 207.975 121.64 207.001 122.615C206.027 123.589 206.027 125.166 207.001 126.14C207.975 127.115 209.552 127.115 210.527 126.14C211.501 125.166 211.501 123.589 210.527 122.615ZM204.651 116.738C203.676 115.764 202.099 115.764 201.125 116.738C200.151 117.713 200.151 119.29 201.125 120.264C202.099 121.238 203.676 121.238 204.651 120.264C205.625 119.29 205.625 117.713 204.651 116.738ZM198.774 110.862C197.8 109.888 196.223 109.888 195.249 110.862C194.274 111.837 194.274 113.414 195.249 114.388C196.223 115.362 197.8 115.362 198.774 114.388C199.749 113.414 199.749 111.837 198.774 110.862ZM192.595 105.29C191.788 104.484 190.483 104.484 189.677 105.29C188.87 106.096 188.87 107.402 189.677 108.208C190.483 109.014 191.788 109.014 192.595 108.208C193.401 107.402 193.401 106.096 192.595 105.29ZM187.022 99.1101C186.048 98.1358 184.471 98.1358 183.497 99.1101C182.522 100.084 182.522 101.661 183.497 102.636C184.471 103.61 186.048 103.61 187.022 102.636C187.997 101.661 187.997 100.084 187.022 99.1101ZM181.146 93.234C180.172 92.2597 178.595 92.2597 177.62 93.234C176.646 94.2083 176.646 95.7854 177.62 96.7597C178.595 97.734 180.172 97.734 181.146 96.7597C182.12 95.7854 182.12 94.2083 181.146 93.234ZM175.27 87.3579C174.296 86.3836 172.719 86.3836 171.744 87.3579C170.77 88.3322 170.77 89.9093 171.744 90.8836C172.719 91.8579 174.296 91.8579 175.27 90.8836C176.244 89.9093 176.244 88.3322 175.27 87.3579ZM169.394 81.4818C168.42 80.5075 166.843 80.5075 165.868 81.4818C164.894 82.4561 164.894 84.0332 165.868 85.0075C166.843 85.9818 168.42 85.9818 169.394 85.0075C170.368 84.0332 170.368 82.4561 169.394 81.4818ZM163.518 75.6057C162.544 74.6314 160.966 74.6314 159.992 75.6057C159.018 76.58 159.018 78.1571 159.992 79.1314C160.966 80.1057 162.544 80.1057 163.518 79.1314C164.492 78.1571 164.492 76.58 163.518 75.6057ZM151.75 63.8658C150.784 62.899 149.219 62.899 148.252 63.8658C147.285 64.8326 147.285 66.3971 148.252 67.3639C149.219 68.3307 150.784 68.3307 151.75 67.3639C152.717 66.3971 152.717 64.8326 151.75 63.8658ZM216.338 116.801C215.399 115.862 213.877 115.862 212.938 116.801C211.999 117.74 211.999 119.262 212.938 120.201C213.877 121.141 215.399 121.141 216.338 120.201C217.277 119.262 217.277 117.74 216.338 116.801ZM210.525 110.862C209.551 109.888 207.973 109.888 206.999 110.862C206.025 111.837 206.025 113.414 206.999 114.388C207.973 115.362 209.551 115.362 210.525 114.388C211.499 113.414 211.499 111.837 210.525 110.862ZM204.435 105.2C203.579 104.343 202.193 104.343 201.339 105.2C200.483 106.056 200.483 107.442 201.339 108.296C202.195 109.152 203.581 109.152 204.435 108.296C205.292 107.44 205.292 106.053 204.435 105.2ZM197.984 99.8961C197.447 99.3587 196.573 99.3587 196.036 99.8961C195.498 100.433 195.498 101.307 196.036 101.845C196.573 102.382 197.447 102.382 197.984 101.845C198.522 101.307 198.522 100.433 197.984 99.8961ZM192.897 93.2316C191.922 92.2573 190.345 92.2573 189.371 93.2316C188.397 94.2059 188.397 95.783 189.371 96.7573C190.345 97.7316 191.922 97.7316 192.897 96.7573C193.871 95.783 193.871 94.2059 192.897 93.2316ZM187.02 87.3555C186.046 86.3812 184.469 86.3812 183.495 87.3555C182.52 88.3298 182.52 89.9069 183.495 90.8812C184.469 91.8555 186.046 91.8555 187.02 90.8812C187.995 89.9069 187.995 88.3298 187.02 87.3555ZM181.144 81.4794C180.17 80.5051 178.593 80.5051 177.619 81.4794C176.644 82.4537 176.644 84.0308 177.619 85.0051C178.593 85.9794 180.17 85.9794 181.144 85.0051C182.119 84.0308 182.119 82.4537 181.144 81.4794ZM175.268 75.6033C174.294 74.629 172.717 74.629 171.743 75.6033C170.768 76.5776 170.768 78.1547 171.743 79.129C172.717 80.1033 174.294 80.1033 175.268 79.129C176.243 78.1547 176.243 76.5776 175.268 75.6033ZM169.392 69.7272C168.418 68.7529 166.841 68.7529 165.866 69.7272C164.892 70.7015 164.892 72.2786 165.866 73.2529C166.841 74.2272 168.418 74.2272 169.392 73.2529C170.366 72.2786 170.366 70.7015 169.392 69.7272ZM163.516 63.8511C162.542 62.8768 160.965 62.8768 159.99 63.8511C159.016 64.8254 159.016 66.4025 159.99 67.3768C160.965 68.3511 162.542 68.3511 163.516 67.3768C164.49 66.4025 164.49 64.8254 163.516 63.8511ZM157.64 57.975C156.666 57.0007 155.089 57.0007 154.114 57.975C153.14 58.9493 153.14 60.5264 154.114 61.5007C155.089 62.475 156.666 62.475 157.64 61.5007C158.614 60.5264 158.614 58.9493 157.64 57.975ZM215.17 106.214C214.877 105.921 214.4 105.921 214.106 106.214C213.812 106.508 213.812 106.985 214.106 107.279C214.4 107.573 214.877 107.573 215.17 107.279C215.464 106.985 215.464 106.508 215.17 106.214ZM209.42 100.213C209.058 99.8511 208.468 99.8511 208.107 100.213C207.745 100.574 207.745 101.164 208.107 101.526C208.468 101.888 209.058 101.888 209.42 101.526C209.782 101.164 209.782 100.574 209.42 100.213ZM204.581 93.2994C203.644 92.3628 202.13 92.3628 201.193 93.2994C200.257 94.2361 200.257 95.7503 201.193 96.687C202.128 97.6211 203.644 97.6211 204.581 96.687C205.515 95.7528 205.515 94.2361 204.581 93.2994ZM198.773 87.353C197.798 86.3787 196.221 86.3787 195.247 87.353C194.273 88.3273 194.273 89.9044 195.247 90.8787C196.221 91.853 197.798 91.853 198.773 90.8787C199.747 89.9044 199.747 88.3273 198.773 87.353ZM192.897 81.4769C191.922 80.5026 190.345 80.5026 189.371 81.4769C188.397 82.4512 188.397 84.0283 189.371 85.0026C190.345 85.9769 191.922 85.9769 192.897 85.0026C193.871 84.0283 193.871 82.4512 192.897 81.4769ZM187.02 75.6008C186.046 74.6265 184.469 74.6265 183.495 75.6008C182.52 76.5751 182.52 78.1522 183.495 79.1265C184.469 80.1008 186.046 80.1008 187.02 79.1265C187.995 78.1522 187.995 76.5751 187.02 75.6008ZM181.144 69.7247C180.17 68.7504 178.593 68.7504 177.619 69.7247C176.644 70.699 176.644 72.2761 177.619 73.2504C178.593 74.2247 180.17 74.2247 181.144 73.2504C182.119 72.2761 182.119 70.699 181.144 69.7247ZM175.268 63.8486C174.294 62.8743 172.717 62.8743 171.743 63.8486C170.768 64.8229 170.768 66.4 171.743 67.3743C172.717 68.3486 174.294 68.3486 175.268 67.3743C176.243 66.4 176.243 64.8229 175.268 63.8486ZM169.392 57.9725C168.418 56.9982 166.841 56.9982 165.866 57.9725C164.892 58.9468 164.892 60.5239 165.866 61.4982C166.841 62.4725 168.418 62.4725 169.392 61.4982C170.366 60.5239 170.366 58.9468 169.392 57.9725ZM163.516 52.0964C162.542 51.1221 160.965 51.1221 159.99 52.0964C159.016 53.0707 159.016 54.6478 159.99 55.6221C160.965 56.5964 162.542 56.5964 163.516 55.6221C164.49 54.6478 164.49 53.0707 163.516 52.0964ZM209.337 88.5432C209.021 88.2268 208.506 88.2268 208.189 88.5432C207.873 88.8596 207.873 89.3744 208.189 89.6908C208.506 90.0072 209.021 90.0072 209.337 89.6908C209.653 89.3744 209.653 88.8596 209.337 88.5432ZM204.649 81.4769C203.674 80.5026 202.097 80.5026 201.123 81.4769C200.149 82.4512 200.149 84.0283 201.123 85.0026C202.097 85.9769 203.674 85.9769 204.649 85.0026C205.623 84.0283 205.623 82.4512 204.649 81.4769ZM198.772 75.6008C197.798 74.6265 196.221 74.6265 195.247 75.6008C194.272 76.5751 194.272 78.1522 195.247 79.1265C196.221 80.1008 197.798 80.1008 198.772 79.1265C199.747 78.1522 199.747 76.5751 198.772 75.6008ZM192.896 69.7247C191.922 68.7504 190.345 68.7504 189.371 69.7247C188.396 70.699 188.396 72.2761 189.371 73.2504C190.345 74.2247 191.922 74.2247 192.896 73.2504C193.871 72.2761 193.871 70.699 192.896 69.7247ZM187.02 63.8486C186.046 62.8743 184.469 62.8743 183.495 63.8486C182.52 64.8229 182.52 66.4 183.495 67.3743C184.469 68.3486 186.046 68.3486 187.02 67.3743C187.995 66.4 187.995 64.8229 187.02 63.8486ZM181.144 57.9725C180.17 56.9982 178.593 56.9982 177.619 57.9725C176.644 58.9468 176.644 60.5239 177.619 61.4982C178.593 62.4725 180.17 62.4725 181.144 61.4982C182.119 60.5239 182.119 58.9468 181.144 57.9725ZM175.268 52.0964C174.294 51.1221 172.717 51.1221 171.742 52.0964C170.768 53.0707 170.768 54.6478 171.742 55.6221C172.717 56.5964 174.294 56.5964 175.268 55.6221C176.242 54.6478 176.242 53.0707 175.268 52.0964ZM169.392 46.2203C168.418 45.246 166.841 45.246 165.866 46.2203C164.892 47.1946 164.892 48.7717 165.866 49.746C166.841 50.7203 168.418 50.7203 169.392 49.746C170.366 48.7717 170.366 47.1946 169.392 46.2203ZM163.508 40.3517C162.539 39.3824 160.967 39.3824 159.995 40.3517C159.026 41.321 159.026 42.893 159.995 43.8648C160.965 44.8341 162.537 44.8341 163.508 43.8648C164.478 42.8955 164.478 41.3235 163.508 40.3517ZM210.525 75.6009C209.551 74.6266 207.974 74.6266 206.999 75.6009C206.025 76.5752 206.025 78.1522 206.999 79.1266C207.974 80.1009 209.551 80.1009 210.525 79.1266C211.499 78.1522 211.499 76.5752 210.525 75.6009ZM204.649 69.7248C203.675 68.7505 202.098 68.7505 201.123 69.7248C200.149 70.6991 200.149 72.2761 201.123 73.2505C202.098 74.2248 203.675 74.2248 204.649 73.2505C205.623 72.2761 205.623 70.6991 204.649 69.7248ZM198.773 63.8487C197.799 62.8744 196.221 62.8744 195.247 63.8487C194.273 64.823 194.273 66.4 195.247 67.3744C196.221 68.3487 197.799 68.3487 198.773 67.3744C199.747 66.4 199.747 64.823 198.773 63.8487ZM192.897 57.9726C191.922 56.9983 190.345 56.9983 189.371 57.9726C188.397 58.9469 188.397 60.5239 189.371 61.4983C190.345 62.4726 191.922 62.4726 192.897 61.4983C193.871 60.5239 193.871 58.9469 192.897 57.9726ZM187.021 52.0965C186.046 51.1222 184.469 51.1222 183.495 52.0965C182.521 53.0708 182.521 54.6478 183.495 55.6222C184.469 56.5965 186.046 56.5965 187.021 55.6222C187.995 54.6478 187.995 53.0708 187.021 52.0965ZM181.145 46.2204C180.17 45.2461 178.593 45.2461 177.619 46.2204C176.645 47.1947 176.645 48.7717 177.619 49.7461C178.593 50.7204 180.17 50.7204 181.145 49.7461C182.119 48.7717 182.119 47.1947 181.145 46.2204ZM175.268 40.3443C174.294 39.37 172.717 39.37 171.743 40.3443C170.768 41.3186 170.768 42.8956 171.743 43.87C172.717 44.8443 174.294 44.8443 175.268 43.87C176.243 42.8956 176.243 41.3186 175.268 40.3443ZM169.392 34.4682C168.418 33.4939 166.841 33.4939 165.867 34.4682C164.892 35.4425 164.892 37.0195 165.867 37.9939C166.841 38.9682 168.418 38.9682 169.392 37.9939C170.367 37.0195 170.367 35.4425 169.392 34.4682ZM163.516 28.5921C162.542 27.6178 160.965 27.6178 159.991 28.5921C159.016 29.5664 159.016 31.1434 159.991 32.1178C160.965 33.0921 162.542 33.0921 163.516 32.1178C164.491 31.1434 164.491 29.5664 163.516 28.5921ZM156.832 23.5246C156.304 22.9972 155.451 22.9972 154.923 23.5246C154.396 24.0519 154.396 24.9057 154.923 25.4331C155.451 25.9604 156.304 25.9604 156.832 25.4331C157.359 24.9057 157.359 24.052 156.832 23.5246ZM216.404 69.7248C215.43 68.7505 213.853 68.7505 212.878 69.7248C211.904 70.6991 211.904 72.2761 212.878 73.2505C213.853 74.2248 215.43 74.2248 216.404 73.2505C217.378 72.2761 217.378 70.6991 216.404 69.7248ZM210.528 63.8487C209.554 62.8744 207.977 62.8744 207.002 63.8487C206.028 64.823 206.028 66.4 207.002 67.3744C207.977 68.3487 209.554 68.3487 210.528 67.3744C211.502 66.4 211.502 64.823 210.528 63.8487ZM204.652 57.9726C203.678 56.9983 202.101 56.9983 201.126 57.9726C200.152 58.9469 200.152 60.5239 201.126 61.4983C202.101 62.4726 203.678 62.4726 204.652 61.4983C205.626 60.5239 205.626 58.9469 204.652 57.9726ZM198.776 52.0965C197.801 51.1222 196.224 51.1222 195.25 52.0965C194.276 53.0708 194.276 54.6478 195.25 55.6222C196.224 56.5965 197.801 56.5965 198.776 55.6222C199.75 54.6478 199.75 53.0708 198.776 52.0965ZM192.9 46.2204C191.925 45.2461 190.348 45.2461 189.374 46.2204C188.4 47.1947 188.4 48.7717 189.374 49.7461C190.348 50.7204 191.925 50.7204 192.9 49.7461C193.874 48.7717 193.874 47.1947 192.9 46.2204ZM181.105 34.5082C180.153 33.5564 178.613 33.5564 177.662 34.5082C176.71 35.4599 176.71 36.9992 177.662 37.951C178.613 38.9027 180.153 38.9027 181.105 37.951C182.056 36.9992 182.056 35.4599 181.105 34.5082ZM175.269 28.5894C174.294 27.6151 172.717 27.6151 171.743 28.5894C170.769 29.5637 170.769 31.1407 171.743 32.1151C172.717 33.0894 174.294 33.0894 175.269 32.1151C176.243 31.1407 176.243 29.5637 175.269 28.5894ZM169.322 22.781C168.386 21.8444 166.871 21.8444 165.935 22.781C164.998 23.7177 164.998 25.2319 165.935 26.1686C166.871 27.1052 168.386 27.1052 169.322 26.1686C170.259 25.2319 170.259 23.7177 169.322 22.781ZM162.417 17.9345C162.05 17.5678 161.455 17.5678 161.088 17.9345C160.722 18.3011 160.722 18.8962 161.088 19.2629C161.455 19.6295 162.05 19.6295 162.417 19.2629C162.783 18.8962 162.783 18.3011 162.417 17.9345ZM222.258 63.866C221.296 62.9042 219.736 62.9042 218.775 63.866C217.813 64.8277 217.813 66.3872 218.775 67.349C219.736 68.3107 221.296 68.3107 222.258 67.349C223.219 66.3872 223.219 64.8277 222.258 63.866ZM216.402 57.9697C215.427 56.9954 213.85 56.9954 212.876 57.9697C211.902 58.9441 211.902 60.5211 212.876 61.4954C213.85 62.4697 215.427 62.4697 216.402 61.4954C217.376 60.5211 217.376 58.9441 216.402 57.9697ZM210.525 52.0936C209.551 51.1193 207.974 51.1193 207 52.0936C206.025 53.068 206.025 54.645 207 55.6193C207.974 56.5936 209.551 56.5936 210.525 55.6193C211.5 54.645 211.5 53.068 210.525 52.0936ZM204.649 46.2175C203.675 45.2432 202.098 45.2432 201.124 46.2175C200.149 47.1919 200.149 48.7689 201.124 49.7432C202.098 50.7175 203.675 50.7175 204.649 49.7432C205.624 48.7689 205.624 47.1919 204.649 46.2175ZM191.88 35.4825C191.468 35.0706 190.8 35.0706 190.386 35.4825C189.974 35.8943 189.974 36.5623 190.386 36.9766C190.798 37.3884 191.466 37.3884 191.88 36.9766C192.292 36.5648 192.292 35.8968 191.88 35.4825ZM187.021 28.5891C186.047 27.6148 184.47 27.6148 183.496 28.5891C182.521 29.5634 182.521 31.1405 183.496 32.1148C184.47 33.0891 186.047 33.0891 187.021 32.1148C187.996 31.1405 187.996 29.5634 187.021 28.5891ZM181.145 22.713C180.171 21.7387 178.594 21.7387 177.619 22.713C176.645 23.6873 176.645 25.2644 177.619 26.2387C178.594 27.213 180.171 27.213 181.145 26.2387C182.119 25.2644 182.119 23.6873 181.145 22.713ZM175.269 16.8369C174.295 15.8626 172.718 15.8626 171.743 16.8369C170.769 17.8112 170.769 19.3883 171.743 20.3626C172.718 21.3369 174.295 21.3369 175.269 20.3626C176.243 19.3883 176.243 17.8112 175.269 16.8369ZM227.783 58.3436C227.014 57.5752 225.771 57.5752 225.003 58.3436C224.234 59.112 224.234 60.3551 225.003 61.1235C225.771 61.8919 227.014 61.8919 227.783 61.1235C228.551 60.3551 228.551 59.112 227.783 58.3436ZM222.281 52.0933C221.306 51.119 219.729 51.119 218.755 52.0933C217.781 53.0676 217.781 54.6447 218.755 55.619C219.729 56.5933 221.306 56.5933 222.281 55.619C223.255 54.6447 223.255 53.0676 222.281 52.0933ZM216.405 46.2172C215.43 45.2429 213.853 45.2429 212.879 46.2172C211.905 47.1915 211.905 48.7686 212.879 49.7429C213.853 50.7172 215.43 50.7172 216.405 49.7429C217.379 48.7686 217.379 47.1915 216.405 46.2172ZM210.287 40.5822C209.449 39.7435 208.085 39.7435 207.246 40.5822C206.408 41.4209 206.408 42.7845 207.246 43.6232C208.088 44.4645 209.449 44.4645 210.287 43.6232C211.126 42.7845 211.129 41.4209 210.287 40.5822ZM203.422 35.6954C203.128 35.4016 202.651 35.4016 202.357 35.6954C202.063 35.9893 202.063 36.4664 202.357 36.7601C202.651 37.054 203.128 37.054 203.422 36.7601C203.716 36.4663 203.716 35.9892 203.422 35.6954ZM197.194 30.1709C197.094 30.0704 196.933 30.0704 196.835 30.1709C196.735 30.2713 196.735 30.432 196.835 30.53C196.935 30.6304 197.096 30.6304 197.194 30.53C197.295 30.4295 197.295 30.2688 197.194 30.1709ZM192.832 22.7806C191.896 21.8439 190.381 21.8464 189.445 22.7806C188.508 23.7172 188.508 25.2315 189.445 26.1681C190.381 27.1048 191.896 27.1048 192.832 26.1681C193.769 25.2315 193.769 23.7172 192.832 22.7806ZM187.024 16.8341C186.05 15.8598 184.472 15.8598 183.498 16.8341C182.524 17.8085 182.524 19.3855 183.498 20.3598C184.472 21.3341 186.05 21.3341 187.024 20.3598C187.998 19.3855 187.998 17.8085 187.024 16.8341ZM174.621 5.73201C174.006 5.11677 173.009 5.11677 172.396 5.73201C171.781 6.34724 171.781 7.34416 172.396 7.95687C173.012 8.5721 174.008 8.5721 174.621 7.95687C175.236 7.34164 175.236 6.34471 174.621 5.73201ZM233.074 53.0521C232.632 52.6101 231.913 52.6101 231.469 53.0521C231.027 53.494 231.027 54.2122 231.469 54.6567C231.911 55.0987 232.629 55.0987 233.074 54.6567C233.516 54.2148 233.516 53.4966 233.074 53.0521ZM228.124 46.2494C227.17 45.2951 225.623 45.2951 224.669 46.2494C223.715 47.2036 223.715 48.7505 224.669 49.7072C225.623 50.6615 227.17 50.6615 228.124 49.7072C229.078 48.753 229.078 47.2061 228.124 46.2519V46.2494ZM198.764 16.8489C197.797 15.8821 196.232 15.8821 195.266 16.8489C194.299 17.8157 194.299 19.3802 195.266 20.347C196.232 21.3138 197.797 21.3138 198.764 20.347C199.73 19.3802 199.73 17.8157 198.764 16.8489ZM192.9 10.9577C191.926 9.98341 190.349 9.98341 189.374 10.9577C188.4 11.932 188.4 13.5091 189.374 14.4834C190.349 15.4577 191.926 15.4577 192.9 14.4834C193.874 13.5091 193.874 11.932 192.9 10.9577ZM186.851 5.25487C185.972 4.37596 184.548 4.37596 183.671 5.25487C182.793 6.13379 182.793 7.55759 183.671 8.434C184.55 9.31291 185.974 9.31291 186.851 8.434C187.729 7.55508 187.729 6.13128 186.851 5.25487ZM209.29 18.0722C208.999 17.7809 208.529 17.7809 208.24 18.0722C207.949 18.3635 207.949 18.833 208.24 19.1218C208.532 19.4131 209.001 19.4131 209.29 19.1218C209.581 18.8305 209.581 18.3609 209.29 18.0722ZM204.652 10.9583C203.678 9.98399 202.101 9.98399 201.126 10.9583C200.152 11.9326 200.152 13.5097 201.126 14.484C202.101 15.4583 203.678 15.4583 204.652 14.484C205.626 13.5097 205.626 11.9326 204.652 10.9583ZM198.776 5.08221C197.802 4.10789 196.225 4.10789 195.25 5.08221C194.276 6.05652 194.276 7.63358 195.25 8.60789C196.225 9.5822 197.802 9.5822 198.776 8.60789C199.75 7.63358 199.75 6.05652 198.776 5.08221ZM191.504 0.602262C191.301 0.398855 190.974 0.398855 190.771 0.602262C190.567 0.805668 190.567 1.13212 190.771 1.3355C190.974 1.53891 191.301 1.53891 191.504 1.3355C191.707 1.1321 191.707 0.805649 191.504 0.602262ZM210.493 5.11731C209.539 4.16305 207.992 4.16305 207.035 5.11731C206.081 6.07156 206.081 7.61841 207.035 8.57266C207.99 9.52692 209.537 9.52692 210.491 8.57266C211.445 7.61841 211.445 6.07156 210.491 5.1148L210.493 5.11731Z" fill="white"/>
<path d="M0.0198605 343.108H0V343.098V343.088C0.00496512 343.083 0.0124127 343.078 0.0198605 343.078V343.088H0.00993025V343.098V343.108H0.0198605V343.098V343.108Z" fill="white"/>
<path d="M0.0467976 343.097C0.0467976 343.093 0.0419952 343.088 0.0371927 343.088V343.097V343.107H0.0275879V343.088H0.0371927H0.0467976V343.097Z" fill="white"/>
<path d="M0.0643757 343.097H0.0547709V343.107H0.0643757V343.097V343.107H0.0547709H0.045166V343.097L0.0547709 343.088C0.0595733 343.088 0.0643757 343.093 0.0643757 343.097ZM0.0643757 343.097H0.0547709V343.088V343.097H0.0643757Z" fill="white"/>
<path d="M0.0774759 343.097V343.107L0.0870808 343.097H0.0774759ZM0.0870808 343.097V343.107H0.0774759H0.0678711V343.097H0.0774759H0.0870808H0.0774759V343.088H0.0678711V343.097V343.088H0.0774759H0.0870808V343.097Z" fill="white"/>
<path d="M0.102948 343.078V343.088H0.112878H0.102948V343.098V343.108H0.112878H0.102948H0.0930176V343.098V343.078H0.102948Z" fill="white"/>
<path d="M0.129805 343.097H0.120201V343.107H0.129805V343.097V343.107H0.120201H0.110596V343.097L0.120201 343.088C0.125003 343.088 0.129805 343.093 0.129805 343.097ZM0.129805 343.097H0.120201V343.088V343.097H0.129805Z" fill="white"/>
<path d="M0.155359 343.088V343.078V343.108H0.145428H0.135498V343.098L0.145428 343.088H0.155359ZM0.145428 343.108L0.155359 343.098H0.145428V343.088V343.098V343.108Z" fill="white"/>
<path d="M0.18327 343.108H0.1932V343.098C0.1932 343.093 0.188235 343.088 0.18327 343.088V343.098V343.108ZM0.18327 343.088H0.1932V343.098V343.108H0.18327H0.17334V343.078H0.18327V343.088Z" fill="white"/>
<path d="M0.198486 343.088H0.208417V343.098L0.218347 343.088L0.208417 343.108V343.118H0.198486V343.108H0.208417L0.198486 343.088Z" fill="white"/>
<path d="M0.253503 343.088H0.243573V343.098V343.108H0.253503V343.098V343.088ZM0.253503 343.078V343.088C0.258468 343.088 0.263433 343.093 0.263433 343.098L0.253503 343.108H0.233643V343.098V343.088C0.238608 343.083 0.246055 343.078 0.253503 343.078Z" fill="white"/>
<path d="M0.266113 343.078H0.276044V343.108H0.266113V343.078Z" fill="white"/>
<path d="M0.298018 343.097H0.288413V343.107H0.298018V343.097V343.107H0.288413H0.278809V343.097L0.288413 343.088C0.293216 343.088 0.298018 343.093 0.298018 343.097ZM0.298018 343.097H0.288413V343.088V343.097H0.298018Z" fill="white"/>
<path d="M0.30127 343.078H0.3112V343.098L0.32113 343.088L0.3112 343.098L0.32113 343.108L0.3112 343.098V343.108H0.30127V343.078Z" fill="white"/>
<path d="M0.345626 343.088V343.097C0.345626 343.093 0.340823 343.088 0.336021 343.088V343.097H0.345626V343.107H0.336021H0.326416V343.097V343.107H0.336021V343.097H0.326416V343.088H0.336021H0.345626Z" fill="white"/>
<path d="M0.35604 343.097V343.107L0.365645 343.097H0.35604ZM0.365645 343.097V343.107H0.35604H0.346436V343.097H0.35604H0.365645H0.35604V343.088H0.346436V343.097V343.088H0.35604H0.365645V343.097Z" fill="white"/>
<path d="M0.390792 343.097V343.107V343.097H0.381187V343.088V343.097V343.107H0.371582V343.088H0.381187H0.390792V343.097Z" fill="white"/>
<path d="M0.416589 343.088V343.078V343.108H0.406659H0.396729V343.098L0.406659 343.088H0.416589ZM0.406659 343.108L0.416589 343.098H0.406659V343.088V343.098V343.108Z" fill="white"/>
<path d="M0.441085 343.097C0.441085 343.093 0.436282 343.088 0.43148 343.088V343.097V343.107H0.421875V343.088H0.43148H0.441085V343.097Z" fill="white"/>
<path d="M0.45459 343.078H0.46452C0.469485 343.078 0.47445 343.083 0.47445 343.088V343.098H0.46452V343.108H0.45459V343.078ZM0.46452 343.088V343.098H0.47445V343.088H0.46452Z" fill="white"/>
<path d="M0.489341 343.097V343.107L0.498946 343.097H0.489341ZM0.498946 343.097V343.107H0.489341H0.479736V343.097H0.489341H0.498946H0.489341V343.088H0.479736V343.097V343.088H0.489341H0.498946V343.097Z" fill="white"/>
<path d="M0.523848 343.097V343.107V343.097H0.514244V343.088V343.097V343.107H0.504639V343.088H0.514244H0.523848V343.097Z" fill="white"/>
<path d="M0.53939 343.097V343.107L0.548995 343.097H0.53939ZM0.548995 343.097V343.107H0.53939H0.529785V343.097H0.53939H0.548995H0.53939V343.088H0.529785V343.097V343.088H0.53939H0.548995V343.097Z" fill="white"/>
<path d="M0.574141 343.088V343.097C0.574141 343.093 0.569339 343.088 0.564536 343.088V343.097H0.574141V343.107H0.564536H0.554932V343.097V343.107H0.564536V343.097H0.554932V343.088H0.564536H0.574141Z" fill="white"/>
<path d="M0.584556 343.088V343.097V343.107L0.594161 343.097H0.584556V343.088ZM0.584556 343.088C0.589358 343.088 0.594161 343.093 0.594161 343.097V343.107H0.584556H0.574951V343.097L0.584556 343.088Z" fill="white"/>
<path d="M0.600098 343.088H0.609702V343.097L0.619307 343.088V343.107H0.609702L0.600098 343.088Z" fill="white"/>
<path d="M0.642012 343.088V343.097C0.642012 343.093 0.63721 343.088 0.632408 343.088V343.097H0.642012V343.107H0.632408H0.622803V343.097V343.107H0.632408V343.097H0.622803V343.088H0.632408H0.642012Z" fill="white"/>
<path d="M0.645264 343.078H0.655194V343.098L0.665124 343.088L0.655194 343.098L0.665124 343.108L0.655194 343.098V343.108H0.645264V343.078Z" fill="white"/>
<path d="M0.667969 343.088H0.677899V343.098L0.687829 343.088L0.677899 343.108V343.118H0.667969V343.108H0.677899L0.667969 343.088Z" fill="white"/>
<path d="M0.693115 343.088H0.703045V343.108H0.693115V343.088ZM0.693115 343.078H0.703045V343.088H0.693115V343.078Z" fill="white"/>
<path d="M0.0198605 343.113V343.123H0.00993025H0.0198605H0.00993025V343.143H0V343.123L0.00993025 343.113H0.0198605Z" fill="white"/>
<path d="M0.0343464 343.133C0.0343464 343.128 0.029544 343.123 0.0247416 343.123V343.133V343.142H0.0151367V343.123H0.0247416H0.0343464V343.133Z" fill="white"/>
<path d="M0.0423197 343.123V343.133V343.142L0.0519245 343.133H0.0423197V343.123ZM0.0423197 343.123C0.0471221 343.123 0.0519245 343.128 0.0519245 343.133V343.142H0.0423197H0.0327148V343.133L0.0423197 343.123Z" fill="white"/>
<path d="M0.0777218 343.123H0.0876521V343.133V343.143V343.133V343.123C0.0802042 343.123 0.0777218 343.128 0.0777218 343.133V343.143V343.133H0.0677916V343.123V343.133V343.143H0.0578613V343.123H0.0677916H0.0777218Z" fill="white"/>
<path d="M0.11784 343.113V343.123H0.127771H0.11784V343.133V343.143H0.127771H0.11784H0.10791V343.133V343.113H0.11784Z" fill="white"/>
<path d="M0.145349 343.133V343.143V343.133H0.135419V343.123V343.133V343.143H0.125488V343.113H0.135419V343.123H0.145349V343.133Z" fill="white"/>
<path d="M0.169844 343.133H0.16024V343.142H0.169844V343.133V343.142H0.16024H0.150635V343.133L0.16024 343.123C0.165042 343.123 0.169844 343.128 0.169844 343.133ZM0.169844 343.133H0.16024V343.123V343.133H0.169844Z" fill="white"/>
<path d="M0.188232 343.113H0.198163L0.208093 343.133V343.113H0.218023V343.143H0.208093L0.198163 343.123V343.143H0.188232V343.113Z" fill="white"/>
<path d="M0.228111 343.123V343.133V343.142L0.237716 343.133H0.228111V343.123ZM0.228111 343.123C0.232913 343.123 0.237716 343.128 0.237716 343.133V343.142H0.228111H0.218506V343.133L0.228111 343.123Z" fill="white"/>
<path d="M0.243652 343.133V343.123H0.253257V343.133V343.142L0.262862 343.133V343.123V343.142H0.253257H0.243652V343.133Z" fill="white"/>
<path d="M0.288009 343.133V343.142V343.133H0.278404V343.123V343.133V343.142H0.268799V343.123H0.278404H0.288009V343.133Z" fill="white"/>
<path d="M0.306396 343.113H0.316327C0.321292 343.113 0.326257 343.118 0.326257 343.123V343.133H0.316327V343.143H0.306396V343.113ZM0.316327 343.123V343.133H0.326257V343.123H0.316327Z" fill="white"/>
<path d="M0.353194 343.133C0.353194 343.128 0.348392 343.123 0.343589 343.123V343.133V343.142H0.333984V343.123H0.343589H0.353194V343.133Z" fill="white"/>
<path d="M0.361167 343.123V343.133V343.142L0.370772 343.133H0.361167V343.123ZM0.361167 343.123C0.36597 343.123 0.370772 343.128 0.370772 343.133V343.142H0.361167H0.351562V343.133L0.361167 343.123Z" fill="white"/>
<path d="M0.376709 343.123H0.386883V343.144C0.386883 343.149 0.381796 343.154 0.376709 343.154V343.123ZM0.376709 343.113H0.386883V343.123H0.376709V343.113Z" fill="white"/>
<path d="M0.405928 343.133H0.396324V343.142H0.405928V343.133V343.142H0.396324H0.386719V343.133L0.396324 343.123C0.401126 343.123 0.405928 343.128 0.405928 343.133ZM0.405928 343.133H0.396324V343.123V343.133H0.405928Z" fill="white"/>
<path d="M0.431075 343.123V343.133C0.431075 343.128 0.426272 343.123 0.42147 343.123V343.133V343.142H0.431075V343.133V343.142H0.42147H0.411865V343.133L0.42147 343.123H0.431075Z" fill="white"/>
<path d="M0.444256 343.113V343.123H0.454187H0.444256V343.133V343.143H0.454187H0.444256H0.434326V343.133V343.113H0.444256Z" fill="white"/>
</svg>
