<svg width="150" height="150" viewBox="0 0 150 150" fill="none" xmlns="http://www.w3.org/2000/svg">
<g clip-path="url(#clip0_2_1095)">
<path d="M117.975 66.3751C118.575 60.9751 118.65 55.8001 116.25 50.9251C113.925 46.2751 110.1 43.8001 104.925 43.5751C98.9999 43.2751 93.375 44.8501 87.825 46.8751C76.125 51.1501 65.625 57.5251 55.35 64.4251C54.15 65.2501 52.95 66.0751 51.45 67.1251C54.075 67.7251 56.325 68.2501 58.5 68.7751C69.075 71.2501 79.65 73.8001 90.3 76.2001C98.475 78.0001 106.725 79.5001 115.05 79.9501C121.8 80.2501 128.4 79.7251 134.475 76.5001C134.55 76.4251 134.7 76.5001 134.925 76.8001C133.95 77.4001 132.975 78.0751 131.925 78.6001C127.2 80.7001 122.175 81.6001 117 81.6751C108.15 81.8251 99.375 80.4751 90.675 78.8251C75.675 75.9751 60.6749 73.0501 45.5999 70.4251C38.6999 69.2251 31.725 68.4001 24.6 69.0001C23.4 69.0751 22.275 69.3751 21.075 69.5251C18.9 69.9001 17.025 70.8001 15.825 72.7501C15.825 70.8751 16.65 69.3001 18.225 68.6251C20.4 67.6501 22.8 66.7501 25.125 66.6001C28.575 66.3001 32.1 66.6001 35.625 66.6751C36.45 66.6751 37.275 66.7501 38.025 66.6001C30.375 65.4751 22.65 63.4501 15.3 67.7251C15.225 67.5751 15.15 67.5001 15.075 67.3501C15.825 66.8251 16.425 66.0751 17.25 65.7751C19.725 65.0251 22.2 64.2001 24.75 63.9751C31.725 63.3001 38.55 64.5751 45.375 66.0001C48.375 66.6001 50.475 66.0751 52.875 64.2001C64.95 55.1251 77.625 46.8001 91.6499 40.8751C96.075 39.0001 100.575 37.7251 105.375 37.1251C114.375 36.0001 120.225 40.5751 121.5 49.5751C122.7 58.2001 120.675 66.3001 117.3 74.1001C116.625 75.6751 115.725 77.2501 114.975 78.8251C114.825 78.7501 114.675 78.6751 114.6 78.6751C115.425 76.0501 116.25 73.4251 117.225 70.3501C102.825 70.7251 88.8 71.1001 74.85 71.5501C74.85 71.4001 74.85 71.2501 74.85 71.1001C77.4 70.9501 79.95 70.8001 82.5 70.6501C92.325 70.0501 102.225 69.5251 112.05 68.9251C113.475 68.8501 114.975 69.0001 116.4 68.9251C116.775 68.9251 117.15 68.5501 117.525 68.3251C117.15 68.1001 116.775 67.8001 116.475 67.8001C111.825 67.8751 107.175 67.8751 102.525 68.1001C91.4999 68.6251 80.5499 69.3001 69.5249 69.9001C69 69.9001 68.475 69.8251 67.95 69.6001C84.6749 68.1001 101.1 65.3251 117.975 66.3751Z" fill="#727272"/>
<path d="M9.97494 108.15C10.7249 105.975 11.2499 104.175 11.8499 102.375C12.7499 99.4501 13.6499 96.6001 14.6249 93.6751C14.8499 93.0751 15.5249 92.5501 15.9749 92.0251C16.4249 92.5501 17.0999 93.0001 17.3249 93.6751C18.8249 98.1001 20.2499 102.6 21.7499 107.025C21.8249 107.25 21.8999 107.475 22.1249 108.075C22.4999 107.025 22.7249 106.275 22.9499 105.525C24.1499 101.7 25.2749 97.8001 26.4749 93.9751C26.6249 93.4501 26.6999 92.9251 27.0749 92.5501C27.3749 92.2501 27.9749 92.1001 28.3499 92.1751C28.6499 92.2501 28.9499 92.8501 28.9499 93.2251C28.8749 94.0501 28.5749 94.8001 28.2749 95.6251C26.6249 100.875 25.0499 106.2 23.3249 111.45C23.1749 112.05 22.4999 112.5 22.0499 112.95C21.5999 112.425 20.9999 112.05 20.7749 111.45C19.1249 106.65 17.6249 101.925 15.8999 96.6751C15.3749 98.1751 14.9999 99.3751 14.6249 100.5C13.4999 104.1 12.3749 107.775 11.0999 111.375C10.8749 111.975 10.2749 112.425 9.82493 112.875C9.37494 112.35 8.69993 111.975 8.54993 111.375C6.67493 105.675 4.94993 99.9001 3.14993 94.1251C2.92493 93.3751 2.47494 92.4001 3.67494 92.0251C4.79994 91.6501 5.02494 92.6251 5.32493 93.3751C6.67493 97.6501 8.02493 101.925 9.37494 106.2C9.52493 106.8 9.67493 107.25 9.97494 108.15Z" fill="#727272"/>
<path d="M67.425 98.4001C66.225 100.95 65.025 103.5 63.675 105.975C63.3 106.725 62.5499 107.325 62.0249 108C61.4249 107.325 60.675 106.8 60.3 106.05C58.95 103.575 57.75 101.025 56.1 98.4751C56.1 99.0751 56.1 99.7501 56.1 100.35C56.1 103.875 56.175 107.4 56.175 110.85C56.175 111.375 55.95 112.125 55.5 112.425C54.75 113.025 54 112.275 54 110.925C54 106.35 54 101.775 54 97.1251C54 95.9251 53.925 94.7251 54.075 93.6001C54.15 93.0751 54.525 92.6251 54.825 92.1001C55.35 92.4001 56.025 92.6251 56.325 93.1501C58.05 96.4501 59.7 99.7501 61.35 103.125C61.575 103.5 61.8 103.95 62.175 104.55C63.3 102.225 64.3499 100.05 65.3999 97.8751C66.2249 96.2251 66.9 94.5751 67.8 93.0001C68.025 92.5501 68.7 92.4001 69.225 92.1001C69.45 92.5501 69.975 93.0001 69.975 93.4501C70.05 99.3001 70.05 105.225 69.975 111.075C69.975 111.6 69.3 112.125 68.925 112.65C68.55 112.125 67.875 111.6 67.875 111.075C67.8 106.875 67.8 102.75 67.8 98.5501C67.65 98.4751 67.5 98.4001 67.425 98.4001Z" fill="#727272"/>
<path d="M88.275 101.55C90.9749 103.65 91.65 105.975 90.675 108.9C89.775 111.375 87.825 112.65 84.75 112.65C83.325 112.65 81.975 112.65 80.55 112.65C79.425 112.65 78.825 112.275 78.825 111.075C78.825 105.225 78.825 99.4501 78.825 93.6001C78.825 92.7001 79.125 92.0251 80.1 92.0251C81.825 92.0251 83.625 91.8751 85.35 92.1001C89.7 92.7001 91.5 97.3501 88.8 100.875C88.725 101.1 88.5 101.25 88.275 101.55ZM81.15 102.825C81.15 105.45 81.15 107.925 81.15 110.475C81.675 110.475 82.05 110.55 82.5 110.55C83.55 110.55 84.6 110.625 85.575 110.475C87.6 110.325 88.725 108.9 88.875 106.8C88.95 104.55 87.975 103.05 85.875 102.825C84.3 102.675 82.7249 102.825 81.15 102.825ZM81.075 100.575C82.575 100.575 83.85 100.65 85.125 100.575C86.625 100.5 87.6 99.4501 87.825 97.8751C88.05 96.2251 87.225 94.6501 85.725 94.3501C84.225 94.0501 82.65 94.1251 81.075 93.9751C81.075 96.3751 81.075 98.4001 81.075 100.575Z" fill="#727272"/>
<path d="M37.9499 94.05C37.9499 96.15 37.8749 98.025 38.0249 99.825C38.0249 100.125 38.6999 100.725 39.0749 100.725C40.4249 100.8 41.7749 100.65 43.1249 100.65C43.9499 100.65 45.0749 100.425 45.0749 101.775C45.0749 103.05 44.0249 102.75 43.1999 102.825C41.4749 102.825 39.8249 102.825 38.0999 102.825C38.0999 105.45 38.0999 107.925 38.0999 110.55C40.2749 110.55 42.3749 110.55 44.4749 110.55C45.2999 110.55 46.3499 110.475 46.2749 111.6C46.1999 111.975 45.2249 112.575 44.5499 112.575C42.2249 112.725 39.8999 112.575 37.5749 112.65C36.2999 112.65 35.8499 112.125 35.8499 110.85C35.8499 105.15 35.8499 99.375 35.8499 93.675C35.8499 92.475 36.2999 91.95 37.4999 91.95C39.8999 91.95 42.3749 91.875 44.7749 92.025C45.2999 92.025 45.8249 92.7 46.3499 93.075C45.8249 93.375 45.2999 93.975 44.6999 94.05C42.5249 94.125 40.3499 94.05 37.9499 94.05Z" fill="#727272"/>
<path d="M117.6 100.725C119.475 100.725 121.125 100.725 122.85 100.725C123.675 100.725 124.5 100.725 124.5 101.85C124.5 102.9 123.675 102.825 122.925 102.825C121.2 102.825 119.475 102.825 117.6 102.825C117.6 105.525 117.6 107.925 117.6 110.55C119.775 110.55 121.875 110.55 123.975 110.55C124.725 110.55 125.7 110.475 125.7 111.6C125.7 112.725 124.8 112.65 123.975 112.65C121.65 112.65 119.325 112.65 117 112.65C115.725 112.65 115.275 112.125 115.275 110.925C115.275 105.225 115.35 99.4501 115.275 93.7501C115.275 92.4751 115.8 91.9501 117 92.0251C119.4 92.0251 121.725 91.9501 124.125 92.1001C124.65 92.1001 125.55 92.7001 125.625 93.1501C125.775 94.1251 124.875 94.1251 124.125 94.1251C121.95 94.1251 119.85 94.1251 117.525 94.1251C117.6 96.3751 117.6 98.4001 117.6 100.725Z" fill="#727272"/>
<path d="M139.5 102.675C141.225 99.525 142.725 96.675 144.3 93.825C144.525 93.45 144.6 92.925 144.9 92.775C145.35 92.475 146.025 92.4 146.55 92.175C146.625 92.7 146.925 93.375 146.7 93.825C145.275 96.6 143.775 99.3751 142.125 102.075C140.925 104.1 140.25 106.125 140.475 108.525C140.55 109.425 140.625 110.325 140.475 111.15C140.4 111.675 139.8 112.125 139.5 112.65C139.125 112.125 138.525 111.675 138.45 111.15C138.225 110.4 138.3 109.5 138.375 108.675C138.675 106.2 137.925 104.1 136.65 102C135.075 99.45 133.65 96.825 132.3 94.125C132.075 93.675 132.3 92.925 132.375 92.25C132.975 92.55 133.875 92.7 134.175 93.15C136.05 96.15 137.7 99.3 139.5 102.675Z" fill="#727272"/>
<path d="M101.1 110.55C103.35 110.55 105.45 110.55 107.55 110.55C108.3 110.55 109.275 110.475 109.275 111.6C109.275 112.65 108.375 112.725 107.55 112.725C105.225 112.725 102.9 112.65 100.575 112.725C99.2999 112.725 98.8499 112.2 98.8499 111C98.8499 105.3 98.8499 99.525 98.7749 93.825C98.7749 93 98.8499 92.175 99.8999 92.175C100.95 92.175 101.025 93 101.025 93.825C101.025 98.85 101.025 103.8 101.025 108.825C101.1 109.275 101.1 109.875 101.1 110.55Z" fill="#727272"/>
<path d="M122.7 70.4251C123.075 70.2001 123.525 69.6751 123.9 69.7501C127.05 70.4251 130.125 71.1001 133.2 71.9251C133.65 72.0001 134.025 72.3751 134.4 72.6751C135.225 73.3501 135.3 74.1751 134.55 74.9251C134.175 75.3001 133.8 75.6001 133.35 75.9001C130.575 77.4001 127.575 77.9251 124.5 78.2251C126.075 77.6251 127.725 77.0251 129.3 76.4251C129.9 76.2001 130.5 75.8251 131.025 75.4501C132.6 74.4001 132.6 73.3501 130.8 72.7501C128.7 72.0751 126.525 71.7001 124.35 71.1751C123.9 71.1001 123.45 71.0251 123 70.9501C122.85 70.8001 122.775 70.5751 122.7 70.4251Z" fill="#727272"/>
<path d="M132.525 69.9C129.6 69.375 126.675 68.85 123.525 68.25C123.9 67.875 124.2 67.275 124.425 67.35C127.2 67.95 129.975 68.625 132.675 69.3C132.6 69.45 132.6 69.675 132.525 69.9Z" fill="#727272"/>
</g>
<defs>
<clipPath id="clip0_2_1095">
<rect width="150" height="150" fill="white"/>
</clipPath>
</defs>
</svg>
